<svg width="1120" height="769" viewBox="0 0 1120 769" fill="none" xmlns="http://www.w3.org/2000/svg">
<rect x="115.681" y="96.6489" width="915.725" height="581.521" rx="19.2179" fill="#D9D9D9" stroke="black" stroke-width="3.34224"/>
<rect x="160.636" y="136.654" width="822.45" height="500.719" rx="7.10226" fill="#000AFF" fill-opacity="0.5" stroke="black" stroke-width="2.50668"/>
<rect x="195.285" y="169.653" width="756.453" height="434.722" rx="7.10226" fill="#000AFF" fill-opacity="0.5" stroke="black" stroke-width="2.50668"/>
<mask id="path-4-inside-1_376_3" fill="white">
<path fill-rule="evenodd" clip-rule="evenodd" d="M622.044 676.842H522.037V714.833V751.004H450.031C447.27 751.004 445.031 753.243 445.031 756.004V760.002V764C445.031 766.761 447.27 769 450.031 769H704.051C706.812 769 709.051 766.761 709.051 764V756.004C709.051 753.243 706.812 751.004 704.051 751.004H622.044V676.842Z"/>
</mask>
<path fill-rule="evenodd" clip-rule="evenodd" d="M622.044 676.842H522.037V714.833V751.004H450.031C447.27 751.004 445.031 753.243 445.031 756.004V760.002V764C445.031 766.761 447.27 769 450.031 769H704.051C706.812 769 709.051 766.761 709.051 764V756.004C709.051 753.243 706.812 751.004 704.051 751.004H622.044V676.842Z" fill="#D9D9D9"/>
<path d="M522.037 676.842V673.542H518.737V676.842H522.037ZM622.044 676.842H625.344V673.542H622.044V676.842ZM522.037 751.004V754.304H525.337V751.004H522.037ZM622.044 751.004H618.744V754.304H622.044V751.004ZM522.037 680.142H622.044V673.542H522.037V680.142ZM525.337 714.833V676.842H518.737V714.833H525.337ZM525.337 751.004V714.833H518.737V751.004H525.337ZM450.031 754.304H522.037V747.704H450.031V754.304ZM448.331 756.004C448.331 755.065 449.092 754.304 450.031 754.304V747.704C445.447 747.704 441.731 751.42 441.731 756.004H448.331ZM448.331 760.002V756.004H441.731V760.002H448.331ZM448.331 764V760.002H441.731V764H448.331ZM450.031 765.7C449.092 765.7 448.331 764.939 448.331 764H441.731C441.731 768.584 445.447 772.3 450.031 772.3V765.7ZM704.051 765.7H450.031V772.3H704.051V765.7ZM705.751 764C705.751 764.939 704.989 765.7 704.051 765.7V772.3C708.635 772.3 712.351 768.584 712.351 764H705.751ZM705.751 756.004V764H712.351V756.004H705.751ZM704.051 754.304C704.989 754.304 705.751 755.065 705.751 756.004H712.351C712.351 751.42 708.635 747.704 704.051 747.704V754.304ZM622.044 754.304H704.051V747.704H622.044V754.304ZM618.744 676.842V751.004H625.344V676.842H618.744Z" fill="black" mask="url(#path-4-inside-1_376_3)"/>
<path d="M913.669 461.139L898.718 400.055L951.021 434.992L928.864 441.622C928.31 441.788 927.824 442.128 927.479 442.592L913.669 461.139Z" fill="black" stroke="white" stroke-width="2"/>
<line x1="271.02" y1="394.408" x2="507.037" y2="394.408" stroke="#FF3D00" stroke-width="3" stroke-dasharray="8 8"/>
<path d="M166.51 110.475H187.514V122.471H166.51C163.197 122.471 160.512 119.786 160.512 116.473C160.512 113.16 163.197 110.475 166.51 110.475Z" fill="#FFC700" stroke="black" stroke-width="3"/>
<rect x="187.514" y="110.475" width="27.0022" height="11.9965" fill="white" stroke="black" stroke-width="3"/>
<path d="M214.516 110.475H235.52C238.832 110.475 241.518 113.16 241.518 116.473C241.518 119.786 238.832 122.471 235.52 122.471H214.516V110.475Z" fill="#FF3D00" stroke="black" stroke-width="3"/>
<ellipse cx="582.043" cy="115.973" rx="5" ry="4.99884" fill="black"/>
<path d="M991.265 65.8898L1032.53 50.626C1033.54 50.2513 1034.34 49.4529 1034.71 48.4402L1049.98 7.1879C1050.53 5.70807 1052.62 5.70807 1053.17 7.1879L1068.44 48.4402C1068.82 49.4529 1069.61 50.2513 1070.63 50.626L1111.89 65.8898C1113.37 66.4374 1113.37 68.5311 1111.89 69.0786L1070.63 84.3425C1069.61 84.7171 1068.82 85.5156 1068.44 86.5283L1053.17 127.781C1052.62 129.26 1050.53 129.26 1049.98 127.781L1034.71 86.5283C1034.34 85.5156 1033.54 84.7171 1032.53 84.3425L991.265 69.0786C989.784 68.5311 989.784 66.4374 991.265 65.8898Z" fill="#FFC700" stroke="black" stroke-width="2"/>
<path d="M1021.59 67.1559L1042.23 59.524C1042.87 59.286 1043.38 58.7789 1043.61 58.1357L1051.25 37.5096C1051.36 37.2049 1051.79 37.2049 1051.9 37.5096L1059.54 58.1357C1059.78 58.7789 1060.28 59.286 1060.93 59.524L1081.56 67.1559C1081.86 67.2687 1081.86 67.6997 1081.56 67.8124L1060.93 75.4444C1060.28 75.6823 1059.78 76.1894 1059.54 76.8326L1051.9 97.4588C1051.79 97.7635 1051.36 97.7635 1051.25 97.4588L1043.61 76.8326C1043.38 76.1894 1042.87 75.6823 1042.23 75.4444L1021.59 67.8124C1021.29 67.6997 1021.29 67.2687 1021.59 67.1559Z" fill="white" stroke="black" stroke-width="2"/>
<path d="M956.667 132.172L977.115 124.607C977.622 124.42 978.021 124.021 978.208 123.514L985.776 103.071C986.05 102.331 987.096 102.331 987.37 103.071L994.937 123.514C995.125 124.021 995.524 124.42 996.03 124.607L1016.48 132.172C1017.22 132.446 1017.22 133.492 1016.48 133.766L996.03 141.331C995.524 141.518 995.125 141.917 994.937 142.424L987.37 162.867C987.096 163.607 986.05 163.607 985.776 162.867L978.208 142.424C978.021 141.917 977.622 141.518 977.115 141.331L956.667 133.766C955.926 133.492 955.926 132.446 956.667 132.172Z" fill="#FFC700" stroke="black"/>
<path d="M971.707 132.805L981.932 129.023C982.253 128.904 982.507 128.65 982.626 128.329L986.409 118.107C986.466 117.954 986.681 117.954 986.738 118.107L990.521 128.329C990.64 128.65 990.894 128.904 991.215 129.023L1001.44 132.805C1001.59 132.861 1001.59 133.077 1001.44 133.133L991.215 136.915C990.894 137.034 990.64 137.288 990.521 137.609L986.738 147.831C986.681 147.984 986.466 147.984 986.409 147.831L982.626 137.609C982.507 137.288 982.253 137.034 981.932 136.915L971.707 133.133C971.555 133.077 971.555 132.861 971.707 132.805Z" fill="white" stroke="black"/>
<path d="M1090.65 755.855L1082.73 725.085L1108.94 743.057L1098.04 746.187C1097.75 746.27 1097.5 746.446 1097.32 746.688L1090.65 755.855Z" fill="black" stroke="white"/>
<path d="M1053.6 755.855L1061.53 725.085L1035.32 743.057L1046.22 746.187C1046.5 746.27 1046.76 746.446 1046.93 746.688L1053.6 755.855Z" fill="black" stroke="white"/>
<path d="M1089.65 677.7L1081.73 708.47L1107.94 690.498L1097.04 687.368C1096.75 687.285 1096.5 687.109 1096.32 686.867L1089.65 677.7Z" fill="black" stroke="white"/>
<path d="M1052.6 677.7L1060.53 708.47L1034.32 690.498L1045.22 687.368C1045.5 687.285 1045.76 687.109 1045.93 686.867L1052.6 677.7Z" fill="black" stroke="white"/>
<path d="M74.128 231.339L81.6045 200.998L55.6416 218.399L66.6359 221.672C66.8981 221.75 67.1279 221.911 67.2909 222.131L74.128 231.339Z" fill="black" stroke="white" stroke-width="0.84375"/>
<rect x="746.617" y="286.888" width="148.011" height="107.975" fill="white" fill-opacity="0.3" stroke="white"/>
<rect x="0.582031" y="609.949" width="192.014" height="140.967" fill="white" fill-opacity="0.3" stroke="white"/>
<rect x="83.6055" y="43.1409" width="235.017" height="154.964" fill="white" fill-opacity="0.3" stroke="white"/>
<rect x="935.068" y="645.85" width="48.0037" height="22.9942" fill="#D9D9D9" stroke="black" stroke-width="2"/>
</svg>
