<svg width="572" height="571" viewBox="0 0 572 571" fill="none" xmlns="http://www.w3.org/2000/svg">
<path d="M37.47 83H30.36L28.02 69.59H13.44L11.1 83H4.53L16.23 20H25.68L37.47 83ZM20.64 28.01L14.52 63.47H26.94L20.64 28.01Z" fill="white"/>
<path d="M69.1788 83H62.9688C62.6688 81.86 62.4288 79.82 62.2488 76.88C60.3888 81.56 56.8788 83.9 51.7188 83.9C48.5988 83.9 46.1388 82.91 44.3388 80.93C42.5388 78.89 41.6388 76.16 41.6388 72.74C41.6388 69.26 42.4788 66.41 44.1588 64.19C45.8988 61.91 48.8088 59.81 52.8888 57.89C56.6088 56.21 58.9788 54.95 59.9988 54.11C60.9588 53.33 61.4388 52.13 61.4388 50.51V49.43C61.4388 44.93 59.4888 42.68 55.5888 42.68C53.6088 42.68 52.0488 43.28 50.9088 44.48C49.8288 45.68 49.2888 47.39 49.2888 49.61V50.96H42.8988V49.97C42.8988 45.77 44.0088 42.53 46.2288 40.25C48.4488 37.97 51.5988 36.83 55.6788 36.83C64.0188 36.83 68.1888 41.39 68.1888 50.51V70.67C68.1888 75.95 68.5188 80.06 69.1788 83ZM54.0588 77.96C56.3388 77.96 58.1388 77.06 59.4588 75.26C60.7788 73.46 61.4388 70.94 61.4388 67.7V58.61C60.7788 59.51 58.5888 60.92 54.8688 62.84C50.6088 65 48.4788 67.97 48.4788 71.75C48.4788 75.89 50.3388 77.96 54.0588 77.96Z" fill="#FFC700"/>
<path d="M11.34 185.75H4.32V122.75H11.34V149.66H26.28V122.75H33.3V185.75H26.28V156.05H11.34V185.75Z" fill="white"/>
<path d="M57.8672 139.58C64.8272 139.58 68.3072 143.93 68.3072 152.63V185.75H61.4672V153.53C61.4672 148.25 59.5772 145.61 55.7972 145.61C53.6372 145.61 51.8972 146.51 50.5772 148.31C49.3172 150.05 48.6872 152.51 48.6872 155.69V185.75H41.9372V122.75H48.6872V144.8C50.7272 141.32 53.7872 139.58 57.8672 139.58Z" fill="#FFC700"/>
<path d="M18 289.4C13.38 289.4 9.81 288.05 7.29 285.35C4.83 282.65 3.6 278.81 3.6 273.83V240.08C3.6 235.1 4.83 231.29 7.29 228.65C9.81 225.95 13.38 224.6 18 224.6C22.68 224.6 26.25 225.95 28.71 228.65C31.23 231.29 32.49 235.1 32.49 240.08V273.83C32.49 278.81 31.23 282.65 28.71 285.35C26.25 288.05 22.68 289.4 18 289.4ZM18 283.01C22.98 283.01 25.47 280.1 25.47 274.28V239.63C25.47 233.87 22.98 230.99 18 230.99C13.08 230.99 10.62 233.87 10.62 239.63V274.28C10.62 280.1 13.08 283.01 18 283.01Z" fill="white"/>
<path d="M53.2146 289.4C48.8946 289.4 45.5946 288.14 43.3146 285.62C41.0346 283.04 39.8946 279.41 39.8946 274.73V256.91C39.8946 252.23 41.0346 248.63 43.3146 246.11C45.5946 243.59 48.8946 242.33 53.2146 242.33C57.4746 242.33 60.7446 243.59 63.0246 246.11C65.3646 248.63 66.5346 252.23 66.5346 256.91V274.73C66.5346 279.41 65.3646 283.04 63.0246 285.62C60.7446 288.14 57.4746 289.4 53.2146 289.4ZM53.2146 283.37C57.5346 283.37 59.6946 280.7 59.6946 275.36V256.28C59.6946 251 57.5346 248.36 53.2146 248.36C48.8346 248.36 46.6446 251 46.6446 256.28V275.36C46.6446 280.7 48.8346 283.37 53.2146 283.37Z" fill="#FFC700"/>
<path d="M22.23 391.25H12.87L1.62 328.25H8.73L17.82 381.71L26.91 328.25H33.39L22.23 391.25Z" fill="white"/>
<path d="M54.881 391.25H46.421L36.161 345.98H43.091L50.921 382.16L58.751 345.98H65.141L54.881 391.25Z" fill="#FFC700"/>
<path d="M18 494.9C13.38 494.9 9.81 493.55 7.29 490.85C4.83 488.15 3.6 484.31 3.6 479.33V445.58C3.6 440.6 4.83 436.79 7.29 434.15C9.81 431.45 13.38 430.1 18 430.1C22.68 430.1 26.25 431.45 28.71 434.15C31.23 436.79 32.49 440.6 32.49 445.58V479.33C32.49 484.31 31.23 488.15 28.71 490.85C26.25 493.55 22.68 494.9 18 494.9ZM18 488.51C22.98 488.51 25.47 485.6 25.47 479.78V445.13C25.47 439.37 22.98 436.49 18 436.49C13.08 436.49 10.62 439.37 10.62 445.13V479.78C10.62 485.6 13.08 488.51 18 488.51ZM56.0152 494H48.9952V442.52C46.2352 443.78 42.6352 444.44 38.1952 444.5V439.28C41.7952 439.22 44.5852 438.56 46.5652 437.3C48.6052 435.98 50.1352 433.85 51.1552 430.91H56.0152V494ZM91.3261 494H63.6061V488.6C63.6061 483.74 64.4761 479.51 66.2161 475.91C68.0761 472.31 70.9261 468.5 74.7661 464.48C78.5461 460.52 81.1861 457.25 82.6861 454.67C84.2461 451.91 85.0261 448.97 85.0261 445.85C85.0261 439.61 82.5961 436.49 77.7361 436.49C72.7561 436.49 70.2661 439.37 70.2661 445.13V450.8H63.6061V445.58C63.6061 440.66 64.8061 436.85 67.2061 434.15C69.6061 431.45 73.1761 430.1 77.9161 430.1C82.5361 430.1 86.0461 431.45 88.4461 434.15C90.8461 436.85 92.0461 440.66 92.0461 445.58C92.0461 449.36 91.1161 452.99 89.2561 456.47C87.4561 459.89 84.4261 463.82 80.1661 468.26C76.8061 471.62 74.3161 474.68 72.6961 477.44C71.2561 479.96 70.5361 482.9 70.5361 486.26V487.61H91.3261V494ZM110.869 494.9C106.129 494.9 102.559 493.58 100.159 490.94C97.7588 488.24 96.5588 484.43 96.5588 479.51V474.74H103.219V479.78C103.219 485.6 105.709 488.51 110.689 488.51C115.609 488.51 118.069 485.39 118.069 479.15V473.66C118.069 467.42 115.429 464.3 110.149 464.3H106.369V457.91H110.329C115.369 457.91 117.889 455.06 117.889 449.36V445.22C117.889 439.4 115.489 436.49 110.689 436.49C105.949 436.49 103.579 439.31 103.579 444.95V448.64H96.9188V445.49C96.9188 440.51 98.0888 436.7 100.429 434.06C102.829 431.42 106.339 430.1 110.959 430.1C115.459 430.1 118.909 431.42 121.309 434.06C123.709 436.7 124.909 440.48 124.909 445.4V447.92C124.909 454.82 122.449 459.08 117.529 460.7V460.88C122.569 462.5 125.089 466.76 125.089 473.66V479.51C125.089 484.49 123.889 488.3 121.489 490.94C119.089 493.58 115.549 494.9 110.869 494.9ZM157.217 494H150.197V481.31H129.767V474.83L149.387 431H157.217V474.92H162.257V481.31H157.217V494ZM150.197 443.42L136.337 474.92H150.197V443.42ZM181.196 494.9C176.456 494.9 172.886 493.55 170.486 490.85C168.086 488.15 166.886 484.31 166.886 479.33V475.1H173.546V479.87C173.546 485.63 176.036 488.51 181.016 488.51C185.936 488.51 188.396 485.63 188.396 479.87V466.28C188.396 460.64 186.086 457.82 181.466 457.82C177.266 457.82 174.716 460.13 173.816 464.75V465.29H167.156L168.956 431H193.976V437.39H175.166L174.176 456.56C176.216 453.14 179.516 451.43 184.076 451.43C191.636 451.43 195.416 456.2 195.416 465.74V479.33C195.416 484.31 194.216 488.15 191.816 490.85C189.416 493.55 185.876 494.9 181.196 494.9ZM216.193 494.9C211.513 494.9 207.913 493.55 205.393 490.85C202.933 488.15 201.703 484.31 201.703 479.33V445.94C201.703 435.38 206.533 430.1 216.193 430.1C220.813 430.1 224.323 431.45 226.723 434.15C229.183 436.79 230.413 440.6 230.413 445.58V446.75H223.753V445.13C223.753 439.37 221.293 436.49 216.373 436.49C211.273 436.49 208.723 439.73 208.723 446.21V460.43C210.823 456.29 214.273 454.22 219.073 454.22C226.753 454.22 230.593 459.05 230.593 468.71V479.33C230.593 484.31 229.333 488.15 226.813 490.85C224.353 493.55 220.813 494.9 216.193 494.9ZM216.193 488.51C221.113 488.51 223.573 485.63 223.573 479.87V469.25C223.573 463.49 221.203 460.61 216.463 460.61C214.063 460.61 212.173 461.45 210.793 463.13C209.413 464.81 208.723 467.06 208.723 469.88V479.87C208.723 485.63 211.213 488.51 216.193 488.51ZM246.488 494H239.198L256.838 437.39H234.968V431H263.768V437.21L246.488 494ZM268.488 479.51V473.66C268.488 467 270.858 462.74 275.598 460.88V460.79C271.098 458.69 268.848 454.52 268.848 448.28V445.22C268.848 440.3 270.078 436.55 272.538 433.97C274.998 431.39 278.598 430.1 283.338 430.1C288.078 430.1 291.678 431.39 294.138 433.97C296.658 436.55 297.918 440.3 297.918 445.22V448.28C297.918 454.58 295.638 458.75 291.078 460.79V460.88C295.878 462.8 298.278 467.06 298.278 473.66V479.51C298.278 484.43 296.988 488.24 294.408 490.94C291.828 493.58 288.138 494.9 283.338 494.9C278.538 494.9 274.848 493.58 272.268 490.94C269.748 488.24 268.488 484.43 268.488 479.51ZM283.338 457.91C288.378 457.91 290.898 455.15 290.898 449.63V445.04C290.898 439.34 288.378 436.49 283.338 436.49C278.358 436.49 275.868 439.34 275.868 445.04V449.63C275.868 455.15 278.358 457.91 283.338 457.91ZM283.338 488.51C288.618 488.51 291.258 485.39 291.258 479.15V473.03C291.258 467.21 288.618 464.3 283.338 464.3C278.118 464.3 275.508 467.21 275.508 473.03V479.15C275.508 485.39 278.118 488.51 283.338 488.51ZM318.571 494.9C313.891 494.9 310.351 493.58 307.951 490.94C305.551 488.24 304.351 484.37 304.351 479.33V478.25H311.011V479.78C311.011 485.6 313.471 488.51 318.391 488.51C320.971 488.51 322.861 487.73 324.061 486.17C325.321 484.61 325.951 482.12 325.951 478.7V464.48C323.911 468.68 320.491 470.78 315.691 470.78C307.951 470.78 304.081 465.92 304.081 456.2V445.58C304.081 440.6 305.311 436.79 307.771 434.15C310.291 431.45 313.891 430.1 318.571 430.1C323.191 430.1 326.731 431.45 329.191 434.15C331.711 436.79 332.971 440.6 332.971 445.58V478.97C332.971 489.59 328.171 494.9 318.571 494.9ZM318.211 464.39C320.671 464.39 322.561 463.58 323.881 461.96C325.261 460.28 325.951 458 325.951 455.12V445.13C325.951 439.37 323.491 436.49 318.571 436.49C313.591 436.49 311.101 439.37 311.101 445.13V455.66C311.101 461.48 313.471 464.39 318.211 464.39ZM354.533 494.9C349.913 494.9 346.343 493.55 343.823 490.85C341.363 488.15 340.133 484.31 340.133 479.33V445.58C340.133 440.6 341.363 436.79 343.823 434.15C346.343 431.45 349.913 430.1 354.533 430.1C359.213 430.1 362.783 431.45 365.243 434.15C367.763 436.79 369.023 440.6 369.023 445.58V479.33C369.023 484.31 367.763 488.15 365.243 490.85C362.783 493.55 359.213 494.9 354.533 494.9ZM354.533 488.51C359.513 488.51 362.003 485.6 362.003 479.78V445.13C362.003 439.37 359.513 436.49 354.533 436.49C349.613 436.49 347.153 439.37 347.153 445.13V479.78C347.153 485.6 349.613 488.51 354.533 488.51ZM384.178 478.16H378.868L377.968 460.52V430.91H384.988V460.52L384.178 478.16ZM385.078 494H377.968V484.91H385.078V494ZM408.23 478.16H402.11V474.56C402.11 470 404 465.05 407.78 459.71C410 456.53 411.53 453.89 412.37 451.79C413.27 449.69 413.72 447.38 413.72 444.86C413.72 439.28 411.32 436.49 406.52 436.49C401.72 436.49 399.32 439.37 399.32 445.13V450.8H392.66V445.58C392.66 440.66 393.83 436.85 396.17 434.15C398.57 431.45 402.08 430.1 406.7 430.1C411.32 430.1 414.8 431.42 417.14 434.06C419.54 436.7 420.74 440.45 420.74 445.31C420.74 448.13 420.23 450.8 419.21 453.32C418.19 455.84 416.48 458.66 414.08 461.78C411.92 464.72 410.39 467.12 409.49 468.98C408.65 470.78 408.23 472.7 408.23 474.74V478.16ZM408.68 494H401.57V484.91H408.68V494Z" fill="white"/>
<path d="M99.765 552.335L106.605 535.865H110.115V558.5H107.01V542.03L100.17 558.5H96.66V535.865H99.765V552.335ZM128.008 535.415C130.168 535.415 131.818 536.045 132.958 537.305C134.128 538.565 134.713 540.365 134.713 542.705V547.7H124.723V551.93C124.723 554.6 125.833 555.935 128.053 555.935C130.303 555.935 131.428 554.6 131.428 551.93V551.255H134.713V551.615C134.713 553.955 134.128 555.77 132.958 557.06C131.818 558.32 130.168 558.95 128.008 558.95C125.848 558.95 124.183 558.32 123.013 557.06C121.873 555.77 121.303 553.955 121.303 551.615V542.705C121.303 540.365 121.873 538.565 123.013 537.305C124.153 536.045 125.818 535.415 128.008 535.415ZM124.723 542.39V544.91H131.383V542.39C131.383 539.75 130.258 538.43 128.008 538.43C125.818 538.43 124.723 539.75 124.723 542.39ZM162.573 562.73H159.198V558.5H138.408V535.865H141.783V555.575H147.543V535.865H150.918V555.575H156.678V535.865H160.053V555.575H162.573V562.73ZM171.777 535.415C173.937 535.415 175.587 536.045 176.727 537.305C177.897 538.565 178.482 540.365 178.482 542.705V547.7H168.492V551.93C168.492 554.6 169.602 555.935 171.822 555.935C174.072 555.935 175.197 554.6 175.197 551.93V551.255H178.482V551.615C178.482 553.955 177.897 555.77 176.727 557.06C175.587 558.32 173.937 558.95 171.777 558.95C169.617 558.95 167.952 558.32 166.782 557.06C165.642 555.77 165.072 553.955 165.072 551.615V542.705C165.072 540.365 165.642 538.565 166.782 537.305C167.922 536.045 169.587 535.415 171.777 535.415ZM168.492 542.39V544.91H175.152V542.39C175.152 539.75 174.027 538.43 171.777 538.43C169.587 538.43 168.492 539.75 168.492 542.39ZM199.191 553.1L203.916 535.865H208.866V558.5H205.581V539.87L200.406 558.5H197.706L192.576 539.87V558.5H189.516V535.865H194.421L199.191 553.1ZM223.193 545.27V535.865H226.568V558.5H223.193V548.15H216.578V558.5H213.203V535.865H216.578V545.27H223.193ZM237.079 558.95C234.919 558.95 233.269 558.32 232.129 557.06C230.989 555.77 230.419 553.955 230.419 551.615V542.705C230.419 540.365 230.989 538.565 232.129 537.305C233.269 536.045 234.919 535.415 237.079 535.415C239.209 535.415 240.844 536.045 241.984 537.305C243.154 538.565 243.739 540.365 243.739 542.705V551.615C243.739 553.955 243.154 555.77 241.984 557.06C240.844 558.32 239.209 558.95 237.079 558.95ZM237.079 555.935C239.239 555.935 240.319 554.6 240.319 551.93V542.39C240.319 539.75 239.239 538.43 237.079 538.43C234.889 538.43 233.794 539.75 233.794 542.39V551.93C233.794 554.6 234.889 555.935 237.079 555.935ZM250.943 558.5H247.568V535.865H257.873V538.745H250.943V558.5ZM266.874 558.95C264.714 558.95 263.064 558.32 261.924 557.06C260.784 555.77 260.214 553.955 260.214 551.615V542.705C260.214 540.365 260.784 538.565 261.924 537.305C263.064 536.045 264.714 535.415 266.874 535.415C269.004 535.415 270.639 536.045 271.779 537.305C272.949 538.565 273.534 540.365 273.534 542.705V551.615C273.534 553.955 272.949 555.77 271.779 557.06C270.639 558.32 269.004 558.95 266.874 558.95ZM266.874 555.935C269.034 555.935 270.114 554.6 270.114 551.93V542.39C270.114 539.75 269.034 538.43 266.874 538.43C264.684 538.43 263.589 539.75 263.589 542.39V551.93C263.589 554.6 264.684 555.935 266.874 555.935Z" fill="#FFC700"/>
<path d="M77.1213 550.371C78.2929 549.2 78.2929 547.3 77.1213 546.129L58.0294 527.037C56.8579 525.865 54.9584 525.865 53.7868 527.037C52.6152 528.208 52.6152 530.108 53.7868 531.279L70.7574 548.25L53.7868 565.221C52.6152 566.392 52.6152 568.292 53.7868 569.463C54.9584 570.635 56.8579 570.635 58.0294 569.463L77.1213 550.371ZM0 551.25H75V545.25H0V551.25Z" fill="#FFC700"/>
<path d="M97.44 391.25H90.69L103.11 359.03L91.23 328.25H98.7L107.52 351.83L116.52 328.25H123.27L111.39 359.03L123.81 391.25H116.34L106.89 366.14L97.44 391.25Z" fill="white"/>
<path d="M133.565 391.25H126.815L137.705 368.03L127.355 345.98H134.735L142.115 362.36L149.495 345.98H156.245L145.895 368.03L156.785 391.25H149.315L141.485 373.52L133.565 391.25Z" fill="#FFC700"/>
<path d="M202.56 391.25H195.54V363.62L182.85 328.25H190.32L199.32 354.53L208.32 328.25H215.25L202.56 363.62V391.25Z" fill="white"/>
<path d="M221.414 406.1C219.374 406.1 217.844 405.8 216.824 405.2V399.35C217.904 399.83 219.104 400.07 220.424 400.07C222.044 400.07 223.214 399.74 223.934 399.08C224.714 398.42 225.314 397.19 225.734 395.39L226.634 392.15L214.934 345.98H221.864L229.964 380.45L237.344 345.98H243.734L232.304 396.38C231.524 399.86 230.294 402.35 228.614 403.85C226.934 405.35 224.534 406.1 221.414 406.1Z" fill="#FFC700"/>
<path d="M298.38 391.25H270.39V384.95L290.82 334.64H271.29V328.25H298.38V334.46L277.95 384.86H298.38V391.25Z" fill="white"/>
<path d="M328.287 391.25H303.267V385.58L321.087 351.74H304.167V345.98H328.287V351.65L310.467 385.4H328.287V391.25Z" fill="#FFC700"/>
<path d="M381.78 312.05H389.61L380.97 323.57H375.39L381.78 312.05ZM403.65 328.25V334.64H384.93V355.16H400.14V361.55H384.93V384.86H403.65V391.25H377.91V377.84H365.4L361.35 391.25H354.6L374.13 328.25H403.65ZM377.91 336.8L367.29 371.72H377.91V336.8Z" fill="white"/>
<path d="M434.504 328.88H442.334L433.694 340.4H428.114L434.504 328.88ZM455.384 359.66V369.65H435.404V378.11C435.404 383.45 437.624 386.12 442.064 386.12C446.564 386.12 448.814 383.45 448.814 378.11V376.76H455.384V377.48C455.384 382.16 454.214 385.79 451.874 388.37C449.594 390.89 446.294 392.15 441.974 392.15C436.574 392.15 432.734 390.17 430.454 386.21C428.354 390.17 424.754 392.15 419.654 392.15C416.294 392.15 413.624 391.16 411.644 389.18C409.724 387.2 408.764 384.47 408.764 380.99C408.764 377.51 409.604 374.66 411.284 372.44C413.024 370.16 415.934 368.06 420.014 366.14C423.554 364.52 425.924 363.23 427.124 362.27C428.084 361.49 428.564 360.32 428.564 358.76V357.68C428.564 353.18 426.644 350.93 422.804 350.93C420.824 350.93 419.264 351.53 418.124 352.73C416.984 353.93 416.414 355.64 416.414 357.86V359.21H410.024V358.22C410.024 354.08 411.104 350.87 413.264 348.59C415.484 346.25 418.484 345.08 422.264 345.08C427.304 345.08 430.634 346.91 432.254 350.57C434.114 346.91 437.534 345.08 442.514 345.08C446.594 345.08 449.744 346.34 451.964 348.86C454.244 351.38 455.384 354.98 455.384 359.66ZM441.974 351.11C437.594 351.11 435.404 353.75 435.404 359.03V364.07H448.724V359.03C448.724 353.75 446.474 351.11 441.974 351.11ZM421.184 386.21C423.524 386.21 425.324 385.34 426.584 383.6C427.904 381.8 428.564 379.28 428.564 376.04V366.86C427.904 367.76 425.714 369.17 421.994 371.09C417.734 373.25 415.604 376.22 415.604 380C415.604 384.14 417.464 386.21 421.184 386.21Z" fill="#FFC700"/>
<path d="M532.53 391.25H499.32C489.84 391.25 485.1 386.15 485.1 375.95V343.55C485.1 333.35 489.84 328.25 499.32 328.25H532.53V334.64H513.72V355.16H529.02V361.55H513.72V384.86H532.53V391.25ZM499.5 384.86H506.7V334.64H499.5C496.92 334.64 495.03 335.3 493.83 336.62C492.69 337.94 492.12 340.13 492.12 343.19V376.22C492.12 379.28 492.69 381.5 493.83 382.88C495.03 384.2 496.92 384.86 499.5 384.86Z" fill="white"/>
<path d="M459.15 464.75H456.36L478.14 494H469.5L447.72 464.75V459.08H456.72C463.02 459.08 466.23 456.29 466.35 450.71H447.72V445.04H466.35C466.23 439.46 463.02 436.67 456.72 436.67H447.72L447.81 431H478.05L477.96 436.67H469.23C471.63 438.53 472.98 441.32 473.28 445.04H477.96V450.71H473.28C472.98 454.97 471.48 458.39 468.78 460.97C466.08 463.49 462.87 464.75 459.15 464.75Z" fill="white"/>
<path d="M527.88 461.42V461.6C533.28 463.28 535.98 467.75 535.98 475.01V477.08C535.98 485.06 532.8 489.77 526.44 491.21V498.95H521.76V491.75H515.91V498.95H511.23V491.75H504.66V485.36H508.53V439.64H504.66V433.25H511.23V426.95H515.91V433.25H521.76V426.95H526.44V433.88C532.14 435.32 534.99 439.79 534.99 447.29V448.64C534.99 455.48 532.62 459.74 527.88 461.42ZM527.97 450.17V448.28C527.97 445.22 527.4 443.03 526.26 441.71C525.12 440.33 523.23 439.64 520.59 439.64H515.55V458.81H519.69C522.57 458.81 524.67 458.15 525.99 456.83C527.31 455.45 527.97 453.23 527.97 450.17ZM528.96 476.9V474.65C528.96 471.23 528.27 468.8 526.89 467.36C525.57 465.92 523.29 465.2 520.05 465.2H515.55V485.36H521.49C524.07 485.36 525.96 484.7 527.16 483.38C528.36 482.06 528.96 479.9 528.96 476.9Z" fill="white"/>
<path d="M100.59 288.5H93.57V225.5H107.34C116.82 225.5 121.56 230.6 121.56 240.8V246.2C121.56 256.34 116.82 261.41 107.34 261.41H100.59V288.5ZM100.59 231.89V255.02H107.34C109.86 255.02 111.69 254.39 112.83 253.13C113.97 251.81 114.54 249.62 114.54 246.56V240.35C114.54 237.29 113.97 235.13 112.83 233.87C111.69 232.55 109.86 231.89 107.34 231.89H100.59Z" fill="white"/>
<path d="M144.043 242.33C151.123 242.33 154.663 246.68 154.663 255.38V276.26C154.663 285.02 151.123 289.4 144.043 289.4C139.963 289.4 136.873 287.6 134.773 284V302.45H128.023V243.23H133.873L133.963 249.35C135.883 244.67 139.243 242.33 144.043 242.33ZM147.823 275.72V255.92C147.823 250.88 145.903 248.36 142.063 248.36C139.843 248.36 138.073 249.26 136.753 251.06C135.433 252.8 134.773 255.26 134.773 258.44V273.29C134.773 276.47 135.433 278.96 136.753 280.76C138.073 282.5 139.843 283.37 142.063 283.37C145.903 283.37 147.823 280.82 147.823 275.72Z" fill="#FFC700"/>
<path d="M210.48 287.96H211.83V294.35H209.76C205.26 294.35 202.44 292.34 201.3 288.32C199.5 289.04 197.4 289.4 195 289.4C190.38 289.4 186.81 288.05 184.29 285.35C181.83 282.65 180.6 278.81 180.6 273.83V240.08C180.6 235.1 181.83 231.29 184.29 228.65C186.81 225.95 190.38 224.6 195 224.6C199.68 224.6 203.25 225.95 205.71 228.65C208.23 231.29 209.49 235.1 209.49 240.08V273.83C209.49 278.87 208.23 282.74 205.71 285.44C206.43 287.12 208.02 287.96 210.48 287.96ZM195 283.01C199.98 283.01 202.47 280.1 202.47 274.28V239.63C202.47 233.87 199.98 230.99 195 230.99C190.08 230.99 187.62 233.87 187.62 239.63V274.28C187.62 280.1 190.08 283.01 195 283.01Z" fill="white"/>
<path d="M237.865 249.62L238.765 243.23H243.715V302.45H236.965V284C234.865 287.6 231.775 289.4 227.695 289.4C220.615 289.4 217.075 285.02 217.075 276.26V255.38C217.075 246.68 220.615 242.33 227.695 242.33C232.615 242.33 236.005 244.76 237.865 249.62ZM229.675 283.37C231.895 283.37 233.665 282.5 234.985 280.76C236.305 278.96 236.965 276.47 236.965 273.29V258.44C236.965 255.26 236.305 252.8 234.985 251.06C233.665 249.26 231.895 248.36 229.675 248.36C225.835 248.36 223.915 250.88 223.915 255.92V275.72C223.915 280.82 225.835 283.37 229.675 283.37Z" fill="#FFC700"/>
<path d="M278.34 288.5H271.32V225.5H285.09C290.07 225.5 293.67 226.67 295.89 229.01C298.17 231.29 299.31 234.89 299.31 239.81V243.68C299.31 250.64 296.88 254.87 292.02 256.37V256.46C296.94 257.72 299.4 262.1 299.4 269.6V280.85C299.4 284.33 299.7 286.88 300.3 288.5H293.19C292.65 286.7 292.38 284.15 292.38 280.85V269.24C292.38 265.88 291.75 263.51 290.49 262.13C289.23 260.75 287.07 260.06 284.01 260.06H278.34V288.5ZM278.34 231.89V253.67H284.01C286.89 253.67 288.99 253.01 290.31 251.69C291.63 250.31 292.29 248.09 292.29 245.03V240.53C292.29 237.47 291.72 235.28 290.58 233.96C289.44 232.58 287.55 231.89 284.91 231.89H278.34Z" fill="white"/>
<path d="M323.009 242.33C324.269 242.33 325.259 242.51 325.979 242.87V249.53C325.079 249.23 324.149 249.08 323.189 249.08C317.309 249.08 314.369 253.43 314.369 262.13V288.5H307.619V243.23H313.469L313.559 250.7C315.119 245.12 318.269 242.33 323.009 242.33Z" fill="#FFC700"/>
<path d="M349.02 274.1V270.59H355.68V274.64C355.68 280.22 358.11 283.01 362.97 283.01C367.89 283.01 370.35 280.19 370.35 274.55C370.35 271.73 369.63 269.18 368.19 266.9C366.87 264.68 364.35 262.04 360.63 258.98C356.31 255.44 353.28 252.23 351.54 249.35C349.86 246.53 349.02 243.29 349.02 239.63C349.02 234.89 350.25 231.2 352.71 228.56C355.17 225.92 358.65 224.6 363.15 224.6C367.65 224.6 371.07 225.92 373.41 228.56C375.81 231.2 377.01 234.95 377.01 239.81V242.33H370.35V239.36C370.35 233.78 367.95 230.99 363.15 230.99C358.35 230.99 355.95 233.72 355.95 239.18C355.95 241.76 356.67 244.13 358.11 246.29C359.55 248.45 362.16 251.06 365.94 254.12C370.32 257.72 373.29 260.99 374.85 263.93C376.53 266.75 377.37 270.11 377.37 274.01C377.37 278.93 376.11 282.74 373.59 285.44C371.13 288.08 367.62 289.4 363.06 289.4C358.5 289.4 355.02 288.08 352.62 285.44C350.22 282.8 349.02 279.02 349.02 274.1Z" fill="white"/>
<path d="M395.293 289.4C391.153 289.4 387.913 288.26 385.573 285.98C383.293 283.64 382.153 280.43 382.153 276.35V274.82H388.723V276.53C388.723 281.15 390.793 283.46 394.933 283.46C399.073 283.46 401.143 281.27 401.143 276.89C401.143 275.57 400.723 274.34 399.883 273.2C399.403 272.48 398.833 271.85 398.173 271.31C397.513 270.71 396.853 270.23 396.193 269.87C395.593 269.51 394.633 269 393.313 268.34C391.093 267.14 389.773 266.39 389.353 266.09C388.333 265.43 387.283 264.59 386.203 263.57C383.803 261.41 382.603 258.35 382.603 254.39C382.603 250.67 383.683 247.73 385.843 245.57C388.003 243.41 391.003 242.33 394.843 242.33C398.623 242.33 401.593 243.47 403.753 245.75C405.973 247.97 407.083 251.03 407.083 254.93V255.83H400.693V254.75C400.693 250.37 398.773 248.18 394.933 248.18C393.193 248.18 391.783 248.72 390.703 249.8C389.683 250.88 389.173 252.38 389.173 254.3C389.173 255.74 389.593 257.06 390.433 258.26C391.213 259.28 392.023 260.09 392.863 260.69C393.763 261.29 395.233 262.1 397.273 263.12C400.213 264.62 402.583 266.21 404.383 267.89C406.723 269.99 407.893 272.96 407.893 276.8C407.893 280.76 406.783 283.85 404.563 286.07C402.343 288.29 399.253 289.4 395.293 289.4Z" fill="#FFC700"/>
<path d="M448.71 288.5H441.69V231.89H430.53V225.5H459.87V231.89H448.71V288.5Z" fill="white"/>
<path d="M480.405 243.23V248.99H472.215V278.33C472.215 280.13 472.545 281.42 473.205 282.2C473.865 282.98 475.005 283.37 476.625 283.37C477.885 283.37 479.145 283.13 480.405 282.65V288.5C479.145 289.1 477.465 289.4 475.365 289.4C468.705 289.4 465.375 285.95 465.375 279.05V248.99H459.795V243.23H465.645L466.365 230.18H472.215V243.23H480.405Z" fill="#FFC700"/>
<path d="M519.18 289.4C514.5 289.4 510.96 288.08 508.56 285.44C506.16 282.74 504.96 278.87 504.96 273.83V225.5H511.98V274.37C511.98 280.13 514.41 283.01 519.27 283.01C524.13 283.01 526.56 280.13 526.56 274.37V225.5H533.4V273.83C533.4 278.87 532.17 282.74 529.71 285.44C527.31 288.08 523.8 289.4 519.18 289.4Z" fill="white"/>
<path d="M560.879 273.29V243.23H567.629V288.5H561.779L561.689 282.47C559.769 287.09 556.439 289.4 551.699 289.4C544.739 289.4 541.259 285.02 541.259 276.26V243.23H548.099V275.45C548.099 280.73 549.989 283.37 553.769 283.37C555.929 283.37 557.639 282.5 558.899 280.76C560.219 278.96 560.879 276.47 560.879 273.29Z" fill="#FFC700"/>
<path d="M102.09 185.75H95.07V122.75H102.09V185.75Z" fill="white"/>
<path d="M117.377 134H110.627V124.28H117.377V134ZM117.377 185.75H110.627V140.48H117.377V185.75Z" fill="#FFC700"/>
<path d="M146.37 186.11C144.39 186.11 142.86 185.93 141.78 185.57V179.18C142.92 179.54 144.15 179.72 145.47 179.72C147.93 179.72 149.73 179.09 150.87 177.83C152.01 176.57 152.58 174.56 152.58 171.8V122.75H159.6V171.62C159.6 176.54 158.52 180.2 156.36 182.6C154.2 184.94 150.87 186.11 146.37 186.11Z" fill="white"/>
<path d="M174.611 134H167.861V124.28H174.611V134ZM166.241 200.6C164.501 200.6 163.061 200.3 161.921 199.7V193.94C163.001 194.36 164.021 194.57 164.981 194.57C166.001 194.57 166.721 194.3 167.141 193.76C167.621 193.28 167.861 192.41 167.861 191.15V140.48H174.611V191.69C174.611 197.63 171.821 200.6 166.241 200.6Z" fill="#FFC700"/>
<path d="M232.53 185.75H225.15L214.62 154.43L208.59 164.96V185.75H201.57V122.75H208.59V153.8L225.06 122.75H232.35L219.3 146.42L232.53 185.75Z" fill="white"/>
<path d="M267.018 185.75H259.638L250.458 164.06L245.058 172.07V185.75H238.308V122.75H245.058V162.53L259.188 140.48H266.478L255.138 157.49L267.018 185.75Z" fill="#FFC700"/>
<path d="M315.84 185.75H290.82V122.75H297.84V179.36H315.84V185.75Z" fill="white"/>
<path d="M328.595 185.75H321.845V122.75H328.595V185.75Z" fill="#FFC700"/>
<path d="M361.53 185.75H355.32V122.75H365.49L374.76 173.06L383.94 122.75H394.2V185.75H387.45V133.19L377.46 185.75H371.52L361.53 133.19V185.75Z" fill="white"/>
<path d="M437.431 139.58C444.211 139.58 447.601 143.81 447.601 152.27V185.75H440.851V152.72C440.851 147.98 439.051 145.61 435.451 145.61C433.411 145.61 431.761 146.51 430.501 148.31C429.241 150.05 428.611 152.51 428.611 155.69V185.75H421.771V152.72C421.771 147.98 419.971 145.61 416.371 145.61C414.331 145.61 412.681 146.51 411.421 148.31C410.161 150.05 409.531 152.51 409.531 155.69V185.75H402.781V140.48H408.631L408.721 146.42C410.581 141.86 413.821 139.58 418.441 139.58C423.301 139.58 426.421 141.8 427.801 146.24C429.721 141.8 432.931 139.58 437.431 139.58Z" fill="#FFC700"/>
<path d="M480.96 185.75H474.57V122.75H483.57L497.79 167.75V122.75H504.18V185.75H496.89L480.96 134.54V185.75Z" fill="white"/>
<path d="M528.732 139.58C535.692 139.58 539.172 143.93 539.172 152.63V185.75H532.332V153.53C532.332 148.25 530.442 145.61 526.662 145.61C524.502 145.61 522.762 146.51 521.442 148.31C520.182 150.05 519.552 152.51 519.552 155.69V185.75H512.802V140.48H518.652L518.742 146.42C520.602 141.86 523.932 139.58 528.732 139.58Z" fill="#FFC700"/>
<path d="M105.33 83H90.57V20H104.61C109.59 20 113.19 21.17 115.41 23.51C117.69 25.79 118.83 29.39 118.83 34.31V36.92C118.83 43.64 116.49 47.84 111.81 49.52V49.7C117.15 51.26 119.82 55.67 119.82 62.93V68.33C119.82 78.11 114.99 83 105.33 83ZM97.59 26.39V46.91H103.53C106.41 46.91 108.51 46.25 109.83 44.93C111.15 43.55 111.81 41.33 111.81 38.27V35.03C111.81 31.97 111.24 29.78 110.1 28.46C108.96 27.08 107.07 26.39 104.43 26.39H97.59ZM97.59 53.3V76.61H105.33C107.91 76.61 109.8 75.95 111 74.63C112.2 73.31 112.8 71.15 112.8 68.15V62.75C112.8 59.33 112.11 56.9 110.73 55.46C109.41 54.02 107.13 53.3 103.89 53.3H97.59Z" fill="white"/>
<path d="M142.801 36.83C149.881 36.83 153.421 41.18 153.421 49.88V70.76C153.421 79.52 149.881 83.9 142.801 83.9C137.881 83.9 134.491 81.47 132.631 76.61L131.731 83H126.781V20H133.531V42.23C135.631 38.63 138.721 36.83 142.801 36.83ZM146.671 70.22V50.42C146.671 45.38 144.721 42.86 140.821 42.86C138.601 42.86 136.831 43.76 135.511 45.56C134.191 47.3 133.531 49.76 133.531 52.94V67.79C133.531 70.97 134.191 73.46 135.511 75.26C136.831 77 138.601 77.87 140.821 77.87C144.721 77.87 146.671 75.32 146.671 70.22Z" fill="#FFC700"/>
<path d="M188.64 83.9C184.2 83.9 180.75 82.58 178.29 79.94C175.83 77.3 174.6 73.61 174.6 68.87V34.13C174.6 29.39 175.8 25.7 178.2 23.06C180.66 20.42 184.14 19.1 188.64 19.1C193.14 19.1 196.59 20.42 198.99 23.06C201.45 25.7 202.68 29.39 202.68 34.13V40.61H196.02V33.68C196.02 31.04 195.36 29.03 194.04 27.65C192.78 26.21 191.04 25.49 188.82 25.49C186.6 25.49 184.83 26.21 183.51 27.65C182.25 29.03 181.62 31.04 181.62 33.68V69.32C181.62 71.96 182.25 74 183.51 75.44C184.83 76.82 186.6 77.51 188.82 77.51C191.04 77.51 192.78 76.82 194.04 75.44C195.36 74 196.02 71.96 196.02 69.32V60.5H202.68V68.87C202.68 73.61 201.45 77.3 198.99 79.94C196.59 82.58 193.14 83.9 188.64 83.9Z" fill="white"/>
<path d="M222.015 83.9C217.695 83.9 214.395 82.67 212.115 80.21C209.895 77.69 208.785 74.09 208.785 69.41V51.23C208.785 46.55 209.895 42.98 212.115 40.52C214.395 38.06 217.695 36.83 222.015 36.83C226.275 36.83 229.485 38.09 231.645 40.61C233.865 43.07 234.975 46.61 234.975 51.23V53.21H228.405V50.6C228.405 45.44 226.275 42.86 222.015 42.86C217.755 42.86 215.625 45.44 215.625 50.6V70.04C215.625 75.26 217.755 77.87 222.015 77.87C226.275 77.87 228.405 75.26 228.405 70.04V66.53H234.975V69.41C234.975 74.09 233.865 77.69 231.645 80.21C229.485 82.67 226.275 83.9 222.015 83.9Z" fill="#FFC700"/>
<path d="M269.97 83H255.57V20H269.97C279.45 20 284.19 25.1 284.19 35.3V67.7C284.19 77.9 279.45 83 269.97 83ZM262.59 26.39V76.61H269.79C272.31 76.61 274.17 75.95 275.37 74.63C276.57 73.25 277.17 71.03 277.17 67.97V34.94C277.17 31.94 276.57 29.78 275.37 28.46C274.23 27.08 272.37 26.39 269.79 26.39H262.59Z" fill="white"/>
<path d="M319.482 83H313.272C312.852 81.8 312.612 79.76 312.552 76.88C310.572 81.56 307.182 83.9 302.382 83.9C295.362 83.9 291.852 79.52 291.852 70.76V49.88C291.852 41.18 295.362 36.83 302.382 36.83C306.522 36.83 309.642 38.63 311.742 42.23V20H318.492V70.67C318.492 75.95 318.822 80.06 319.482 83ZM304.452 77.87C306.672 77.87 308.442 77 309.762 75.26C311.082 73.46 311.742 70.97 311.742 67.79V52.94C311.742 49.76 311.082 47.3 309.762 45.56C308.442 43.76 306.672 42.86 304.452 42.86C300.612 42.86 298.692 45.38 298.692 50.42V70.22C298.692 75.32 300.612 77.87 304.452 77.87Z" fill="#FFC700"/>
<path d="M366.9 83H341.07V20H366.9V26.39H348.09V46.91H363.39V53.3H348.09V76.61H366.9V83Z" fill="white"/>
<path d="M385.66 36.83C389.98 36.83 393.28 38.09 395.56 40.61C397.9 43.13 399.07 46.73 399.07 51.41V61.4H379.09V69.86C379.09 75.2 381.31 77.87 385.75 77.87C390.25 77.87 392.5 75.2 392.5 69.86V68.51H399.07V69.23C399.07 73.91 397.9 77.54 395.56 80.12C393.28 82.64 389.98 83.9 385.66 83.9C381.34 83.9 378.01 82.64 375.67 80.12C373.39 77.54 372.25 73.91 372.25 69.23V51.41C372.25 46.73 373.39 43.13 375.67 40.61C377.95 38.09 381.28 36.83 385.66 36.83ZM379.09 50.78V55.82H392.41V50.78C392.41 45.5 390.16 42.86 385.66 42.86C381.28 42.86 379.09 45.5 379.09 50.78Z" fill="#FFC700"/>
<path d="M427.59 83H420.57V20H445.59V26.39H427.59V47.81H442.08V54.2H427.59V83Z" fill="white"/>
<path d="M465.462 25.13C463.902 25.13 462.762 25.52 462.042 26.3C461.382 27.02 461.052 28.31 461.052 30.17V37.73H469.242V43.49H461.052V83H454.302V43.49H448.542V37.73H454.302V29.36C454.302 22.52 457.602 19.1 464.202 19.1C466.302 19.1 467.982 19.4 469.242 20V25.85C467.982 25.37 466.722 25.13 465.462 25.13Z" fill="#FFC700"/>
<path d="M502.32 83.9C497.7 83.9 494.16 82.58 491.7 79.94C489.3 77.24 488.1 73.37 488.1 68.33V34.58C488.1 29.6 489.3 25.79 491.7 23.15C494.16 20.45 497.7 19.1 502.32 19.1C507 19.1 510.54 20.42 512.94 23.06C515.4 25.7 516.63 29.54 516.63 34.58V39.71H509.97V34.13C509.97 28.37 507.48 25.49 502.5 25.49C497.58 25.49 495.12 28.37 495.12 34.13V68.87C495.12 74.63 497.58 77.51 502.5 77.51C507.48 77.51 509.97 74.63 509.97 68.87V54.74H503.04V48.35H516.63V68.33C516.63 73.37 515.4 77.24 512.94 79.94C510.54 82.58 507 83.9 502.32 83.9Z" fill="white"/>
<path d="M544.216 43.76L544.306 37.73H550.156V84.35C550.156 88.91 549.106 92.3 547.006 94.52C544.906 96.74 541.546 97.85 536.926 97.85C528.286 97.85 523.966 93.98 523.966 86.24V85.88H530.446V86.51C530.446 90.29 532.576 92.18 536.836 92.18C541.216 92.18 543.406 89.72 543.406 84.8V76.52C541.306 80.12 538.216 81.92 534.136 81.92C527.116 81.92 523.606 77.54 523.606 68.78V49.88C523.606 41.18 527.116 36.83 534.136 36.83C538.936 36.83 542.296 39.14 544.216 43.76ZM536.206 75.89C538.366 75.89 540.106 75.02 541.426 73.28C542.746 71.48 543.406 68.99 543.406 65.81V52.94C543.406 49.76 542.746 47.3 541.426 45.56C540.106 43.76 538.366 42.86 536.206 42.86C532.306 42.86 530.356 45.38 530.356 50.42V68.24C530.356 73.34 532.306 75.89 536.206 75.89Z" fill="#FFC700"/>
</svg>
