<svg width="1439" height="452" viewBox="0 0 1439 452" fill="none" xmlns="http://www.w3.org/2000/svg">
<line x1="1344" y1="19.5" x2="1439" y2="19.5" stroke="white" stroke-width="15"/>
<path d="M1280.13 0.5L1345.53 0.5C1346.36 0.5 1347.03 1.17157 1347.03 2V38.4827C1347.03 39.3112 1346.36 39.9827 1345.53 39.9827L1280.13 39.9827C1279.3 39.9827 1278.63 39.3112 1278.63 38.4827V2C1278.63 1.17157 1279.3 0.5 1280.13 0.5Z" fill="white" stroke="black"/>
<path d="M1261 6.5L1278.63 6.5V34.4162H1261C1258.51 34.4162 1256.5 32.4015 1256.5 29.9162V11C1256.5 8.51472 1258.51 6.5 1261 6.5Z" fill="#D9D9D9" stroke="black"/>
<path d="M1257.16 10.1567C1257.16 8.49988 1258.5 7.15674 1260.16 7.15674L1263.41 7.15674C1265.07 7.15674 1266.41 8.49988 1266.41 10.1567V30.7597C1266.41 32.4165 1265.07 33.7597 1263.41 33.7597H1260.16C1258.5 33.7597 1257.16 32.4165 1257.16 30.7597V10.1567Z" fill="white"/>
<line x1="1258.31" y1="10.1265" x2="1265.25" y2="10.1265" stroke="black"/>
<line x1="1258.31" y1="12.4399" x2="1265.25" y2="12.4399" stroke="black"/>
<line x1="1258.31" y1="14.7534" x2="1265.25" y2="14.7534" stroke="black"/>
<line x1="1258.31" y1="17.0664" x2="1265.25" y2="17.0664" stroke="black"/>
<line x1="1258.31" y1="19.3799" x2="1265.25" y2="19.3799" stroke="black"/>
<line x1="1258.31" y1="21.6931" x2="1265.25" y2="21.6931" stroke="black"/>
<line x1="1258.31" y1="24.0063" x2="1265.25" y2="24.0063" stroke="black"/>
<line x1="1258.31" y1="26.3198" x2="1265.25" y2="26.3198" stroke="black"/>
<line x1="1258.31" y1="28.6331" x2="1265.25" y2="28.6331" stroke="black"/>
<line x1="1258.31" y1="30.9463" x2="1265.25" y2="30.9463" stroke="black"/>
<line x1="100" y1="433.5" x2="-6.55671e-07" y2="433.5" stroke="white" stroke-width="15"/>
<path d="M164.867 411.5H99.4682C98.6398 411.5 97.9682 412.172 97.9682 413V449.483C97.9682 450.311 98.6398 450.983 99.4682 450.983H164.867C165.696 450.983 166.367 450.311 166.367 449.483V413C166.367 412.172 165.696 411.5 164.867 411.5Z" fill="white" stroke="black"/>
<path d="M184.133 417.5H166.5V445.416H184.133C186.618 445.416 188.633 443.402 188.633 440.916V422C188.633 419.515 186.618 417.5 184.133 417.5Z" fill="#D9D9D9" stroke="black"/>
<line y1="-0.5" x2="6.9399" y2="-0.5" transform="matrix(-1 0 0 1 186.82 421.626)" stroke="black"/>
<line y1="-0.5" x2="6.9399" y2="-0.5" transform="matrix(-1 0 0 1 186.82 423.94)" stroke="black"/>
<line y1="-0.5" x2="6.9399" y2="-0.5" transform="matrix(-1 0 0 1 186.82 426.253)" stroke="black"/>
<line y1="-0.5" x2="6.9399" y2="-0.5" transform="matrix(-1 0 0 1 186.82 428.566)" stroke="black"/>
<line y1="-0.5" x2="6.9399" y2="-0.5" transform="matrix(-1 0 0 1 186.82 430.88)" stroke="black"/>
<line y1="-0.5" x2="6.9399" y2="-0.5" transform="matrix(-1 0 0 1 186.82 433.193)" stroke="black"/>
<line y1="-0.5" x2="6.9399" y2="-0.5" transform="matrix(-1 0 0 1 186.82 435.506)" stroke="black"/>
<line y1="-0.5" x2="6.9399" y2="-0.5" transform="matrix(-1 0 0 1 186.82 437.82)" stroke="black"/>
<line y1="-0.5" x2="6.9399" y2="-0.5" transform="matrix(-1 0 0 1 186.82 440.133)" stroke="black"/>
<line y1="-0.5" x2="6.9399" y2="-0.5" transform="matrix(-1 0 0 1 186.82 442.446)" stroke="black"/>
</svg>
