<svg width="392" height="596" viewBox="0 0 392 596" fill="none" xmlns="http://www.w3.org/2000/svg">
<rect x="1.5" y="1.5" width="389.003" height="592.844" rx="18.5" fill="white" stroke="black" stroke-width="3"/>
<rect x="20.3164" y="64.2205" width="349.802" height="75.4004" rx="8.5" fill="#D9D9D9" stroke="black" stroke-width="3"/>
<rect x="18.748" y="211.614" width="75.4" height="75.4" rx="8.5" stroke="black" stroke-width="3"/>
<rect x="20.3164" y="156.733" width="75.4" height="36.2" rx="3.5" fill="#FFC700" stroke="black" stroke-width="3"/>
<rect x="59.5156" y="164.573" width="28.36" height="20.52" rx="3.5" fill="#D9D9D9" stroke="black" stroke-width="3"/>
<rect x="294.719" y="156.733" width="75.4" height="36.2" rx="3.5" fill="#D9D9D9" stroke="black" stroke-width="3"/>
<rect x="263.357" y="18.7482" width="106.76" height="28.36" rx="3.5" fill="#FFC700" stroke="black" stroke-width="3"/>
<rect x="18.748" y="307.262" width="75.4" height="75.4" rx="8.5" stroke="black" stroke-width="3"/>
<rect x="20.3164" y="402.911" width="75.4" height="75.4" rx="8.5" stroke="black" stroke-width="3"/>
<rect x="20.3164" y="498.56" width="75.4" height="75.4" rx="8.5" stroke="black" stroke-width="3"/>
<rect x="111.262" y="211.614" width="75.4" height="75.4" rx="8.5" stroke="black" stroke-width="3"/>
<rect x="111.262" y="307.262" width="75.4" height="75.4" rx="8.5" stroke="black" stroke-width="3"/>
<rect x="112.828" y="402.911" width="75.4" height="75.4" rx="8.5" stroke="black" stroke-width="3"/>
<rect x="112.828" y="498.56" width="75.4" height="75.4" rx="8.5" fill="#D9D9D9" stroke="black" stroke-width="3"/>
<rect x="203.773" y="211.614" width="75.4" height="75.4" rx="8.5" stroke="black" stroke-width="3"/>
<rect x="203.773" y="307.262" width="75.4" height="75.4" rx="8.5" stroke="black" stroke-width="3"/>
<rect x="205.342" y="402.911" width="75.4" height="75.4" rx="8.5" stroke="black" stroke-width="3"/>
<rect x="205.342" y="498.56" width="75.4" height="75.4" rx="8.5" fill="#D9D9D9" stroke="black" stroke-width="3"/>
<rect x="296.285" y="211.614" width="75.4" height="75.4" rx="8.5" fill="#D9D9D9" stroke="black" stroke-width="3"/>
<rect x="296.285" y="307.262" width="75.4" height="75.4" rx="8.5" fill="#D9D9D9" stroke="black" stroke-width="3"/>
<rect x="297.855" y="402.911" width="75.4" height="75.4" rx="8.5" fill="#D9D9D9" stroke="black" stroke-width="3"/>
<rect x="297.855" y="498.56" width="75.4" height="75.4" rx="8.5" fill="#D9D9D9" stroke="black" stroke-width="3"/>
<path d="M150.425 536H146.575V532.15H150.425V536Z" fill="#FF3D00"/>
<path d="M244.365 538.625H241.635V533.83H236.945V531.1H241.635V526.375H244.365V531.1H249.055V533.83H244.365V538.625Z" fill="#FF3D00"/>
<path d="M341.705 534.03H330.295V531.3H341.705V534.03ZM341.705 539.7H330.295V536.97H341.705V539.7Z" fill="#FF3D00"/>
<path d="M339.575 443.075H331.875V439.925H339.575V443.075Z" fill="#FF3D00"/>
<path d="M338.449 347.25L336.518 349.18L333.128 345.79L329.811 349.106L327.881 347.176L331.197 343.859L327.856 340.518L329.787 338.588L333.128 341.929L336.444 338.613L338.375 340.543L335.058 343.859L338.449 347.25Z" fill="#FF3D00"/>
<path d="M185.4 88L185.8 123H180.2V116.2H171L168.15 123H162.45L177.7 88H185.4ZM180.3 93.95L173.05 111.25H180.25L180.3 93.95ZM190.58 123.05C189.913 123.05 189.28 122.967 188.68 122.8L189.28 117.95C189.68 118.017 190.08 118.05 190.48 118.05C191.98 118.05 193.13 117.683 193.93 116.95C194.73 116.183 195.33 114.967 195.73 113.3L202.28 88H220.98L213.53 123H207.68L214.08 93H206.78L201.33 114.25C200.53 117.383 199.297 119.633 197.63 121C195.997 122.367 193.647 123.05 190.58 123.05ZM237.026 123H231.226L232.076 119.05H230.926C227.859 119.05 225.459 118.333 223.726 116.9C222.026 115.467 221.176 113.467 221.176 110.9C221.176 109.933 221.292 109 221.526 108.1L222.876 101.85C223.609 98.45 224.959 95.95 226.926 94.35C228.926 92.75 231.726 91.95 235.326 91.95H237.826L238.676 88H244.476L243.626 91.95H244.776C247.842 91.95 250.226 92.6667 251.926 94.1C253.659 95.5333 254.526 97.5333 254.526 100.1C254.526 100.967 254.426 101.9 254.226 102.9L252.826 109.15C252.092 112.55 250.726 115.05 248.726 116.65C246.759 118.25 243.992 119.05 240.426 119.05H237.876L237.026 123ZM231.676 114.05H233.126L236.776 96.95H234.726C232.992 96.95 231.626 97.3667 230.626 98.2C229.659 99.0333 228.992 100.35 228.626 102.15L227.226 108.7C227.092 109.2 227.026 109.733 227.026 110.3C227.026 112.8 228.576 114.05 231.676 114.05ZM242.576 96.95L238.926 114.05H240.976C242.742 114.05 244.109 113.65 245.076 112.85C246.042 112.017 246.709 110.683 247.076 108.85L248.476 102.3C248.609 101.8 248.676 101.267 248.676 100.7C248.676 98.2 247.126 96.95 244.026 96.95H242.576ZM274.463 88L274.863 123H269.263V116.2H260.063L257.213 123H251.512L266.763 88H274.463ZM269.363 93.95L262.113 111.25H269.313L269.363 93.95ZM290.046 123H279.046L286.496 88H296.196C299.063 88 301.263 88.6 302.796 89.8C304.329 90.9667 305.096 92.6333 305.096 94.8C305.096 95.3333 305.013 96.1 304.846 97.1L304.696 97.8C304.263 99.7667 303.546 101.317 302.546 102.45C301.579 103.55 300.213 104.367 298.446 104.9V105.05C301.079 105.783 302.396 107.717 302.396 110.85C302.396 111.417 302.313 112.167 302.146 113.1L301.946 113.9C301.279 117.1 299.996 119.417 298.096 120.85C296.229 122.283 293.546 123 290.046 123ZM291.246 93L289.196 102.5H292.596C294.396 102.5 295.779 102.15 296.746 101.45C297.746 100.717 298.429 99.6 298.796 98.1L298.946 97.4C299.046 96.8333 299.096 96.3167 299.096 95.85C299.096 93.95 297.829 93 295.296 93H291.246ZM288.146 107.5L285.946 118H290.596C292.229 118 293.496 117.65 294.396 116.95C295.296 116.217 295.913 115.05 296.246 113.45L296.446 112.5C296.579 111.933 296.646 111.317 296.646 110.65C296.646 109.517 296.263 108.717 295.496 108.25C294.763 107.75 293.546 107.5 291.846 107.5H288.146ZM312.327 112.25L327.227 88H333.527L326.077 123H320.877L326.027 98.7L311.127 123H304.827L312.277 88H317.527L312.327 112.25ZM343.823 123H338.023L344.423 93H336.723L337.823 88H358.973L357.923 93H350.223L343.823 123Z" fill="#FF3D00"/>
<path d="M325.12 178H322.615V170.35H325.015C326.585 170.35 327.37 170.99 327.37 172.27V172.39C327.37 173.23 327.035 173.77 326.365 174.01V174.04C327.145 174.26 327.535 174.84 327.535 175.78V175.855C327.535 177.285 326.73 178 325.12 178ZM324.205 171.7V173.455H324.835C325.465 173.455 325.78 173.155 325.78 172.555V172.435C325.78 172.165 325.715 171.975 325.585 171.865C325.455 171.755 325.25 171.7 324.97 171.7H324.205ZM324.205 174.805V176.65H325.12C325.4 176.65 325.605 176.585 325.735 176.455C325.875 176.315 325.945 176.09 325.945 175.78V175.675C325.945 175.375 325.865 175.155 325.705 175.015C325.545 174.875 325.28 174.805 324.91 174.805H324.205ZM333.619 178H331.909L330.694 174.79L330.064 175.795V178H328.474V170.35H330.064V173.56L331.834 170.35H333.529L331.759 173.17L333.619 178ZM334.633 178.045C334.313 178.045 334.088 178.02 333.958 177.97V176.575C334.108 176.605 334.258 176.62 334.408 176.62C334.628 176.62 334.788 176.56 334.888 176.44C334.988 176.32 335.043 176.11 335.053 175.81L335.293 170.35H339.538V178H337.948V171.79H336.808L336.628 175.975C336.568 177.355 335.903 178.045 334.633 178.045Z" fill="black"/>
<path d="M19.4364 28.4642V24.4242C19.4364 23.3709 19.7031 22.5642 20.2364 22.0042C20.7697 21.4309 21.5364 21.1442 22.5364 21.1442C23.5231 21.1442 24.2697 21.4309 24.7764 22.0042C25.2964 22.5775 25.5564 23.3842 25.5564 24.4242V25.0442H23.5164V24.2242C23.5164 23.4242 23.1897 23.0242 22.5364 23.0242C21.8831 23.0242 21.5564 23.4242 21.5564 24.2242V28.6642C21.5564 29.4642 21.8831 29.8642 22.5364 29.8642C23.1897 29.8642 23.5164 29.4642 23.5164 28.6642V27.6442H25.5564V28.4642C25.5564 29.5042 25.2964 30.3109 24.7764 30.8842C24.2697 31.4575 23.5231 31.7442 22.5364 31.7442C21.5364 31.7442 20.7697 31.4642 20.2364 30.9042C19.7031 30.3309 19.4364 29.5175 19.4364 28.4642ZM32.9425 31.5442H31.0025C30.9225 31.3842 30.8692 30.9842 30.8425 30.3442C30.4425 31.2775 29.7225 31.7442 28.6825 31.7442C28.0025 31.7442 27.4625 31.5175 27.0625 31.0642C26.6625 30.5975 26.4625 29.9709 26.4625 29.1842C26.4625 28.3842 26.6492 27.7309 27.0225 27.2242C27.3958 26.7042 28.0292 26.2242 28.9225 25.7842C29.6558 25.4242 30.1158 25.1642 30.3025 25.0042C30.4892 24.8175 30.5825 24.5909 30.5825 24.3242V24.1242C30.5825 23.3509 30.2958 22.9642 29.7225 22.9642C29.0825 22.9642 28.7625 23.3575 28.7625 24.1442V24.5242H26.7625V24.2642C26.7625 23.2642 27.0158 22.4975 27.5225 21.9642C28.0425 21.4175 28.7825 21.1442 29.7425 21.1442C30.7692 21.1442 31.5158 21.4175 31.9825 21.9642C32.4625 22.4975 32.7025 23.3442 32.7025 24.5042V28.6042C32.7025 29.8975 32.7825 30.8775 32.9425 31.5442ZM29.4825 29.9242C30.2158 29.9242 30.5825 29.3575 30.5825 28.2242V26.4842C30.4892 26.6042 30.1425 26.8575 29.5425 27.2442C28.9025 27.6442 28.5825 28.1709 28.5825 28.8242C28.5825 29.5575 28.8825 29.9242 29.4825 29.9242ZM36.4439 31.5442H34.3239V17.5442H36.4439V31.5442ZM37.8934 28.4642V24.4242C37.8934 23.3709 38.1601 22.5642 38.6934 22.0042C39.2268 21.4309 39.9934 21.1442 40.9934 21.1442C41.9801 21.1442 42.7268 21.4309 43.2334 22.0042C43.7534 22.5775 44.0134 23.3842 44.0134 24.4242V25.0442H41.9734V24.2242C41.9734 23.4242 41.6468 23.0242 40.9934 23.0242C40.3401 23.0242 40.0134 23.4242 40.0134 24.2242V28.6642C40.0134 29.4642 40.3401 29.8642 40.9934 29.8642C41.6468 29.8642 41.9734 29.4642 41.9734 28.6642V27.6442H44.0134V28.4642C44.0134 29.5042 43.7534 30.3109 43.2334 30.8842C42.7268 31.4575 41.9801 31.7442 40.9934 31.7442C39.9934 31.7442 39.2268 31.4642 38.6934 30.9042C38.1601 30.3309 37.8934 29.5175 37.8934 28.4642Z" fill="#FF3D00"/>
<line x1="326.078" y1="20.3842" x2="326.078" y2="45.4722" stroke="black" stroke-width="3"/>
<line x1="304.127" y1="20.3842" x2="304.127" y2="45.4722" stroke="black" stroke-width="3"/>
<line x1="285.311" y1="20.3842" x2="285.311" y2="45.4722" stroke="black" stroke-width="3"/>
<line x1="346.463" y1="20.3842" x2="346.463" y2="45.4722" stroke="black" stroke-width="3"/>
<path d="M58.5 267H52.75L61.7 237H50.6V232H67.1V236.8L58.5 267Z" fill="black"/>
<path d="M64.7 363H59.2V356.65H48.7V351.65L58.7 328H64.7V351.65H67.3V356.65H64.7V363ZM59.2 337.75L53.7 351.65H59.2V337.75Z" fill="black"/>
<path d="M63.15 459H57.65V432.3H51.9V428.4C54.2 428.4 55.8667 428.1 56.9 427.5C57.9667 426.833 58.8167 425.667 59.45 424H63.15V459Z" fill="black"/>
<path d="M50.65 545.7V527.3C50.65 524.5 51.3667 522.333 52.8 520.8C54.2333 519.267 56.3 518.5 59 518.5C61.7 518.5 63.7667 519.267 65.2 520.8C66.6333 522.333 67.35 524.5 67.35 527.3V545.7C67.35 548.5 66.6333 550.667 65.2 552.2C63.7667 553.733 61.7 554.5 59 554.5C56.3 554.5 54.2333 553.733 52.8 552.2C51.3667 550.667 50.65 548.5 50.65 545.7ZM61.85 546.05V526.95C61.85 524.65 60.9 523.5 59 523.5C57.1 523.5 56.15 524.65 56.15 526.95V546.05C56.15 548.35 57.1 549.5 59 549.5C60.9 549.5 61.85 548.35 61.85 546.05Z" fill="black"/>
<path d="M158.1 459H142.2V455.2C142.2 452.6 142.6 450.383 143.4 448.55C144.2 446.717 145.633 444.717 147.7 442.55C149.833 440.25 151.25 438.433 151.95 437.1C152.717 435.633 153.1 434.1 153.1 432.5C153.1 431.033 152.867 430 152.4 429.4C151.933 428.8 151.217 428.5 150.25 428.5C148.35 428.5 147.4 429.65 147.4 431.95V435.7H142.2V432.3C142.2 429.467 142.9 427.3 144.3 425.8C145.7 424.267 147.733 423.5 150.4 423.5C153.067 423.5 155.1 424.267 156.5 425.8C157.9 427.3 158.6 429.467 158.6 432.3C158.6 434.467 158.083 436.533 157.05 438.5C156.017 440.533 154.267 442.85 151.8 445.45C150.2 447.15 149.1 448.55 148.5 449.65C147.933 450.75 147.65 451.95 147.65 453.25V454H158.1V459Z" fill="black"/>
<path d="M234 450.8V447.95H239.2V451.05C239.2 453.35 240.15 454.5 242.05 454.5C243.017 454.5 243.733 454.2 244.2 453.6C244.667 453 244.9 451.983 244.9 450.55V447.7C244.9 446.1 244.617 444.967 244.05 444.3C243.483 443.6 242.567 443.25 241.3 443.25H239.45V438.25H241.45C242.583 438.25 243.417 437.967 243.95 437.4C244.483 436.8 244.75 435.85 244.75 434.55V432C244.75 429.667 243.833 428.5 242 428.5C240.233 428.5 239.35 429.583 239.35 431.75V434.05H234.15V432.2C234.15 429.4 234.833 427.25 236.2 425.75C237.6 424.25 239.6 423.5 242.2 423.5C244.833 423.5 246.833 424.25 248.2 425.75C249.567 427.217 250.25 429.35 250.25 432.15V433.4C250.25 437.133 248.95 439.483 246.35 440.45V440.55C249.05 441.55 250.4 443.95 250.4 447.75V450.85C250.4 453.65 249.7 455.8 248.3 457.3C246.933 458.767 244.9 459.5 242.2 459.5C239.5 459.5 237.45 458.75 236.05 457.25C234.683 455.75 234 453.6 234 450.8Z" fill="black"/>
<path d="M142.45 354.7V351.95H147.65V355.1C147.65 357.367 148.6 358.5 150.5 358.5C152.4 358.5 153.35 357.367 153.35 355.1V347.25C153.35 344.95 152.4 343.8 150.5 343.8C148.6 343.8 147.65 344.95 147.65 347.25V347.55H142.45L143.45 328H157.95V333H148.35L147.9 341.35C148.967 339.65 150.583 338.8 152.75 338.8C156.817 338.8 158.85 341.467 158.85 346.8V354.7C158.85 357.533 158.15 359.717 156.75 361.25C155.35 362.75 153.317 363.5 150.65 363.5C147.983 363.5 145.95 362.75 144.55 361.25C143.15 359.717 142.45 357.533 142.45 354.7Z" fill="black"/>
<path d="M234.65 354.7V336.6C234.65 330.533 237.45 327.5 243.05 327.5C245.717 327.5 247.75 328.267 249.15 329.8C250.55 331.3 251.25 333.467 251.25 336.3V336.95H246.05V335.95C246.05 333.65 245.1 332.5 243.2 332.5C242.133 332.5 241.35 332.833 240.85 333.5C240.383 334.133 240.15 335.233 240.15 336.8V343.5C241.25 341.467 242.95 340.45 245.25 340.45C249.317 340.45 251.35 343.117 251.35 348.45V354.7C251.35 357.5 250.633 359.667 249.2 361.2C247.767 362.733 245.7 363.5 243 363.5C240.3 363.5 238.233 362.733 236.8 361.2C235.367 359.667 234.65 357.5 234.65 354.7ZM245.85 355.1V348.9C245.85 346.6 244.9 345.45 243 345.45C241.1 345.45 240.15 346.6 240.15 348.9V355.1C240.15 357.367 241.1 358.5 243 358.5C244.9 358.5 245.85 357.367 245.85 355.1Z" fill="black"/>
<path d="M142.3 258.85V255.75C142.3 252.25 143.5 249.867 145.9 248.6V248.5C143.633 247.233 142.5 244.933 142.5 241.6V240.05C142.5 237.283 143.217 235.167 144.65 233.7C146.117 232.233 148.2 231.5 150.9 231.5C153.6 231.5 155.667 232.233 157.1 233.7C158.567 235.167 159.3 237.283 159.3 240.05V241.6C159.3 244.933 158.167 247.233 155.9 248.5V248.6C158.3 249.867 159.5 252.25 159.5 255.75V258.85C159.5 261.65 158.75 263.8 157.25 265.3C155.783 266.767 153.667 267.5 150.9 267.5C148.133 267.5 146 266.767 144.5 265.3C143.033 263.8 142.3 261.65 142.3 258.85ZM153.8 242.75V239.9C153.8 237.633 152.833 236.5 150.9 236.5C148.967 236.5 148 237.633 148 239.9V242.75C148 245.083 148.967 246.25 150.9 246.25C152.833 246.25 153.8 245.083 153.8 242.75ZM154 258.55V255.2C154 252.567 152.967 251.25 150.9 251.25C148.833 251.25 147.8 252.567 147.8 255.2V258.55C147.8 261.183 148.833 262.5 150.9 262.5C152.967 262.5 154 261.183 154 258.55Z" fill="black"/>
<path d="M242.6 267.5C239.933 267.5 237.9 266.75 236.5 265.25C235.1 263.717 234.4 261.533 234.4 258.7V258.05H239.6V259.05C239.6 261.35 240.55 262.5 242.45 262.5C243.517 262.5 244.283 262.183 244.75 261.55C245.25 260.883 245.5 259.767 245.5 258.2V251.5C244.4 253.533 242.7 254.55 240.4 254.55C236.333 254.55 234.3 251.883 234.3 246.55V240.3C234.3 237.5 235.017 235.333 236.45 233.8C237.883 232.267 239.95 231.5 242.65 231.5C245.35 231.5 247.417 232.267 248.85 233.8C250.283 235.333 251 237.5 251 240.3V258.4C251 264.467 248.2 267.5 242.6 267.5ZM245.5 246.1V239.9C245.5 237.633 244.55 236.5 242.65 236.5C240.75 236.5 239.8 237.633 239.8 239.9V246.1C239.8 248.4 240.75 249.55 242.65 249.55C244.55 249.55 245.5 248.4 245.5 246.1Z" fill="black"/>
<path d="M332.605 264.5H329.28L338.94 236.5H342.265L332.605 264.5Z" fill="#FF3D00"/>
</svg>
