<svg width="121" height="28" viewBox="0 0 121 28" fill="none" xmlns="http://www.w3.org/2000/svg">
<path d="M1.80469 25.7492C3.52033 25.3502 5.18796 24.6856 6.84668 24.1157C13.2212 21.9253 19.6231 19.8168 26.2293 18.4297C35.3211 16.5207 44.6572 15.9938 53.7168 13.8746C61.1102 12.1452 68.3358 10.0115 75.8011 8.51847C82.0711 7.26446 88.2557 6.00287 94.6026 5.23567C97.3268 4.90637 99.9184 4.3033 102.676 4.26183C104.537 4.23384 106.549 4.20744 108.393 3.91627C111.977 3.35042 115.169 2 118.854 2" stroke="#FF3D00" stroke-width="3" stroke-linecap="round"/>
<path d="M3.78516 4.0674C9.91502 4.0674 16.0491 3.99875 22.1782 4.09882C31.7221 4.25464 41.1554 5.41557 50.6553 6.20358C57.0921 6.7375 63.1909 6.79983 69.174 9.53349C73.8693 11.6787 78.3699 13.8001 83.2791 15.4865C86.2627 16.5114 89.3502 17.48 92.2479 18.7379C94.7966 19.8443 97.1223 21.3205 99.7873 22.162C101.658 22.7529 103.564 23.4721 105.505 23.7956C106.575 23.974 107.462 24.147 108.395 24.7066" stroke="#FF3D00" stroke-width="3" stroke-linecap="round"/>
</svg>
