<svg width="190" height="41" viewBox="0 0 190 41" fill="none" xmlns="http://www.w3.org/2000/svg">
<line x1="100" y1="22.5" x2="-6.55671e-07" y2="22.5" stroke="white" stroke-width="15"/>
<path d="M166.367 2C166.367 1.17157 165.696 0.5 164.867 0.5L99.4682 0.5C98.6398 0.5 97.9682 1.17157 97.9682 2V38.4827C97.9682 39.3112 98.6398 39.9827 99.4682 39.9827L164.867 39.9827C165.696 39.9827 166.367 39.3112 166.367 38.4827V2Z" fill="white" stroke="black"/>
<path d="M188.633 11C188.633 8.51472 186.618 6.5 184.133 6.5L166.5 6.5V34.4162H184.133C186.618 34.4162 188.633 32.4015 188.633 29.9162V11Z" fill="#D9D9D9" stroke="black"/>
<line y1="-0.5" x2="6.9399" y2="-0.5" transform="matrix(-1 0 0 1 186.82 10.6265)" stroke="black"/>
<line y1="-0.5" x2="6.9399" y2="-0.5" transform="matrix(-1 0 0 1 186.82 12.9399)" stroke="black"/>
<line y1="-0.5" x2="6.9399" y2="-0.5" transform="matrix(-1 0 0 1 186.82 15.2534)" stroke="black"/>
<line y1="-0.5" x2="6.9399" y2="-0.5" transform="matrix(-1 0 0 1 186.82 17.5664)" stroke="black"/>
<line y1="-0.5" x2="6.9399" y2="-0.5" transform="matrix(-1 0 0 1 186.82 19.8799)" stroke="black"/>
<line y1="-0.5" x2="6.9399" y2="-0.5" transform="matrix(-1 0 0 1 186.82 22.1931)" stroke="black"/>
<line y1="-0.5" x2="6.9399" y2="-0.5" transform="matrix(-1 0 0 1 186.82 24.5063)" stroke="black"/>
<line y1="-0.5" x2="6.9399" y2="-0.5" transform="matrix(-1 0 0 1 186.82 26.8198)" stroke="black"/>
<line y1="-0.5" x2="6.9399" y2="-0.5" transform="matrix(-1 0 0 1 186.82 29.1331)" stroke="black"/>
<line y1="-0.5" x2="6.9399" y2="-0.5" transform="matrix(-1 0 0 1 186.82 31.4463)" stroke="black"/>
</svg>
