<svg width="184" height="41" viewBox="0 0 184 41" fill="none" xmlns="http://www.w3.org/2000/svg">
<line x1="89" y1="19.5" x2="184" y2="19.5" stroke="white" stroke-width="15"/>
<path d="M24.1328 0.5L89.5318 0.5C90.3602 0.5 91.0318 1.17157 91.0318 2V38.4827C91.0318 39.3112 90.3602 39.9827 89.5318 39.9827L24.1328 39.9827C23.3044 39.9827 22.6328 39.3112 22.6328 38.4827L22.6328 2C22.6328 1.17157 23.3044 0.5 24.1328 0.5Z" fill="white" stroke="black"/>
<path d="M0.5 11C0.5 8.51472 2.51472 6.5 5 6.5L22.633 6.5L22.633 34.4162H5C2.51472 34.4162 0.5 32.4015 0.5 29.9162L0.5 11Z" fill="#D9D9D9" stroke="black"/>
<path d="M1.15625 10.1567C1.15625 8.49988 2.4994 7.15674 4.15625 7.15674L7.40945 7.15674C9.0663 7.15674 10.4094 8.49988 10.4094 10.1567L10.4094 30.7597C10.4094 32.4165 9.0663 33.7597 7.40945 33.7597H4.15625C2.49939 33.7597 1.15625 32.4165 1.15625 30.7597L1.15625 10.1567Z" fill="white"/>
<line x1="2.3125" y1="10.1265" x2="9.2524" y2="10.1265" stroke="black"/>
<line x1="2.3125" y1="12.4399" x2="9.2524" y2="12.4399" stroke="black"/>
<line x1="2.3125" y1="14.7534" x2="9.2524" y2="14.7534" stroke="black"/>
<line x1="2.3125" y1="17.0664" x2="9.2524" y2="17.0664" stroke="black"/>
<line x1="2.3125" y1="19.3799" x2="9.2524" y2="19.3799" stroke="black"/>
<line x1="2.3125" y1="21.6931" x2="9.2524" y2="21.6931" stroke="black"/>
<line x1="2.3125" y1="24.0063" x2="9.2524" y2="24.0063" stroke="black"/>
<line x1="2.3125" y1="26.3198" x2="9.2524" y2="26.3198" stroke="black"/>
<line x1="2.3125" y1="28.6331" x2="9.2524" y2="28.6331" stroke="black"/>
<line x1="2.3125" y1="30.9463" x2="9.2524" y2="30.9463" stroke="black"/>
</svg>
