<svg width="957" height="418" viewBox="0 0 957 418" fill="none" xmlns="http://www.w3.org/2000/svg">
<rect x="1.92" y="1.92" width="953.16" height="414.16" rx="14.58" fill="#D9D9D9" stroke="black" stroke-width="3.84"/>
<rect x="11.1328" y="9.12769" width="88.0706" height="50.25" rx="10" fill="white" stroke="black" stroke-width="2"/>
<rect x="11.1328" y="78.7944" width="48.6647" height="50.25" rx="10" fill="white" stroke="black" stroke-width="2"/>
<rect x="73.0566" y="78.7944" width="48.6647" height="50.25" rx="10" fill="white" stroke="black" stroke-width="2"/>
<rect x="134.98" y="78.7944" width="48.6647" height="50.25" rx="10" fill="white" stroke="black" stroke-width="2"/>
<rect x="112.461" y="148.461" width="48.6647" height="50.25" rx="10" fill="white" stroke="black" stroke-width="2"/>
<rect x="123.721" y="218.128" width="48.6647" height="50.25" rx="10" fill="white" stroke="black" stroke-width="2"/>
<rect x="84.3145" y="287.794" width="48.6647" height="50.25" rx="10" fill="white" stroke="black" stroke-width="2"/>
<rect x="146.238" y="287.794" width="48.6647" height="50.25" rx="10" fill="white" stroke="black" stroke-width="2"/>
<rect x="208.162" y="287.794" width="48.6647" height="50.25" rx="10" fill="white" stroke="black" stroke-width="2"/>
<rect x="270.086" y="287.794" width="48.6647" height="50.25" rx="10" fill="white" stroke="black" stroke-width="2"/>
<rect x="332.01" y="287.794" width="48.6647" height="50.25" rx="10" fill="white" stroke="black" stroke-width="2"/>
<rect x="393.934" y="287.794" width="48.6647" height="50.25" rx="10" fill="white" stroke="black" stroke-width="2"/>
<rect x="455.855" y="287.794" width="48.6647" height="50.25" rx="10" fill="white" stroke="black" stroke-width="2"/>
<rect x="517.779" y="287.794" width="48.6647" height="50.25" rx="10" fill="white" stroke="black" stroke-width="2"/>
<rect x="579.703" y="287.794" width="48.6647" height="50.25" rx="10" fill="white" stroke="black" stroke-width="2"/>
<rect x="641.627" y="287.794" width="48.6647" height="50.25" rx="10" fill="white" stroke="black" stroke-width="2"/>
<rect x="703.551" y="287.794" width="48.6647" height="50.25" rx="10" fill="white" stroke="black" stroke-width="2"/>
<rect x="765.475" y="287.794" width="48.6647" height="50.25" rx="10" fill="white" stroke="black" stroke-width="2"/>
<rect x="827.396" y="287.794" width="48.6647" height="50.25" rx="10" fill="white" stroke="black" stroke-width="2"/>
<rect x="894.951" y="287.794" width="48.6647" height="50.25" rx="10" fill="white" stroke="black" stroke-width="2"/>
<rect x="185.645" y="218.128" width="48.6647" height="50.25" rx="10" fill="white" stroke="black" stroke-width="2"/>
<rect x="247.568" y="218.128" width="48.6647" height="50.25" rx="10" fill="white" stroke="black" stroke-width="2"/>
<rect x="309.492" y="218.128" width="48.6647" height="50.25" rx="10" fill="white" stroke="black" stroke-width="2"/>
<rect x="371.414" y="218.128" width="48.6647" height="50.25" rx="10" fill="white" stroke="black" stroke-width="2"/>
<rect x="433.338" y="218.128" width="48.6647" height="50.25" rx="10" fill="white" stroke="black" stroke-width="2"/>
<rect x="495.262" y="218.128" width="48.6647" height="50.25" rx="10" fill="white" stroke="black" stroke-width="2"/>
<rect x="557.186" y="218.128" width="48.6647" height="50.25" rx="10" fill="white" stroke="black" stroke-width="2"/>
<rect x="619.109" y="218.128" width="48.6647" height="50.25" rx="10" fill="white" stroke="black" stroke-width="2"/>
<rect x="681.033" y="218.128" width="48.6647" height="50.25" rx="10" fill="white" stroke="black" stroke-width="2"/>
<rect x="742.957" y="218.128" width="200.659" height="50.25" rx="10" fill="white" stroke="black" stroke-width="2"/>
<rect x="174.385" y="148.461" width="48.6647" height="50.25" rx="10" fill="white" stroke="black" stroke-width="2"/>
<rect x="236.309" y="148.461" width="48.6647" height="50.25" rx="10" fill="white" stroke="black" stroke-width="2"/>
<rect x="298.232" y="148.461" width="48.6647" height="50.25" rx="10" fill="white" stroke="black" stroke-width="2"/>
<rect x="360.156" y="148.461" width="48.6647" height="50.25" rx="10" fill="white" stroke="black" stroke-width="2"/>
<rect x="422.08" y="148.461" width="48.6647" height="50.25" rx="10" fill="white" stroke="black" stroke-width="2"/>
<rect x="484.002" y="148.461" width="48.6647" height="50.25" rx="10" fill="white" stroke="black" stroke-width="2"/>
<rect x="545.928" y="148.461" width="48.6647" height="50.25" rx="10" fill="white" stroke="black" stroke-width="2"/>
<rect x="607.852" y="148.461" width="48.6647" height="50.25" rx="10" fill="white" stroke="black" stroke-width="2"/>
<rect x="669.773" y="148.461" width="48.6647" height="50.25" rx="10" fill="white" stroke="black" stroke-width="2"/>
<rect x="731.697" y="148.461" width="48.6647" height="50.25" rx="10" fill="white" stroke="black" stroke-width="2"/>
<rect x="793.621" y="148.461" width="48.6647" height="50.25" rx="10" fill="white" stroke="black" stroke-width="2"/>
<rect x="855.543" y="148.461" width="88.0706" height="50.25" rx="10" fill="white" stroke="black" stroke-width="2"/>
<rect x="196.902" y="78.7944" width="48.6647" height="50.25" rx="10" fill="white" stroke="black" stroke-width="2"/>
<rect x="258.828" y="78.7944" width="48.6647" height="50.25" rx="10" fill="white" stroke="black" stroke-width="2"/>
<rect x="320.75" y="78.7944" width="48.6647" height="50.25" rx="10" fill="white" stroke="black" stroke-width="2"/>
<rect x="382.674" y="78.7944" width="48.6647" height="50.25" rx="10" fill="white" stroke="black" stroke-width="2"/>
<rect x="444.598" y="78.7944" width="48.6647" height="50.25" rx="10" fill="white" stroke="black" stroke-width="2"/>
<rect x="506.521" y="78.7944" width="48.6647" height="50.25" rx="10" fill="white" stroke="black" stroke-width="2"/>
<rect x="568.443" y="78.7944" width="48.6647" height="50.25" rx="10" fill="white" stroke="black" stroke-width="2"/>
<rect x="630.369" y="78.7944" width="48.6647" height="50.25" rx="10" fill="white" stroke="black" stroke-width="2"/>
<rect x="692.291" y="78.7944" width="48.6647" height="50.25" rx="10" fill="white" stroke="black" stroke-width="2"/>
<rect x="754.215" y="78.7944" width="48.6647" height="50.25" rx="10" fill="white" stroke="black" stroke-width="2"/>
<rect x="816.139" y="78.7944" width="127.476" height="50.25" rx="10" fill="white" stroke="black" stroke-width="2"/>
<rect x="697.92" y="357.461" width="99.3294" height="50.25" rx="10" fill="white" stroke="black" stroke-width="2"/>
<rect x="810.51" y="357.461" width="54.2941" height="50.25" rx="10" fill="white" stroke="black" stroke-width="2"/>
<rect x="889.32" y="357.461" width="54.2941" height="50.25" rx="10" fill="white" stroke="black" stroke-width="2"/>
<rect x="112.461" y="9.12769" width="48.6647" height="50.25" rx="10" fill="white" stroke="black" stroke-width="2"/>
<rect x="174.385" y="9.12769" width="48.6647" height="50.25" rx="10" fill="white" stroke="black" stroke-width="2"/>
<rect x="236.309" y="9.12769" width="48.6647" height="50.25" rx="10" fill="white" stroke="black" stroke-width="2"/>
<rect x="298.232" y="9.12769" width="48.6647" height="50.25" rx="10" fill="white" stroke="black" stroke-width="2"/>
<rect x="360.156" y="9.12769" width="48.6647" height="50.25" rx="10" fill="white" stroke="black" stroke-width="2"/>
<rect x="422.08" y="9.12769" width="48.6647" height="50.25" rx="10" fill="white" stroke="black" stroke-width="2"/>
<rect x="484.002" y="9.12769" width="48.6647" height="50.25" rx="10" fill="white" stroke="black" stroke-width="2"/>
<rect x="545.928" y="9.12769" width="48.6647" height="50.25" rx="10" fill="white" stroke="black" stroke-width="2"/>
<rect x="607.852" y="9.12769" width="48.6647" height="50.25" rx="10" fill="white" stroke="black" stroke-width="2"/>
<rect x="669.773" y="9.12769" width="48.6647" height="50.25" rx="10" fill="white" stroke="black" stroke-width="2"/>
<rect x="731.697" y="9.12769" width="48.6647" height="50.25" rx="10" fill="white" stroke="black" stroke-width="2"/>
<rect x="793.621" y="9.12769" width="48.6647" height="50.25" rx="10" fill="white" stroke="black" stroke-width="2"/>
<rect x="855.543" y="9.12769" width="88.0706" height="50.25" rx="10" fill="white" stroke="black" stroke-width="2"/>
<rect x="11.1328" y="148.461" width="88.0706" height="50.25" rx="10" fill="white" stroke="black" stroke-width="2"/>
<rect x="11.1328" y="218.128" width="99.3294" height="50.25" rx="10" fill="white" stroke="black" stroke-width="2"/>
<rect x="11.1328" y="287.794" width="59.9235" height="50.25" rx="10" fill="white" stroke="black" stroke-width="2"/>
<rect x="11.1328" y="357.461" width="88.0706" height="50.25" rx="10" fill="white" stroke="black" stroke-width="2"/>
<rect x="112.461" y="357.461" width="65.5529" height="50.25" rx="10" fill="white" stroke="black" stroke-width="2"/>
<rect x="191.273" y="357.461" width="88.0706" height="50.25" rx="10" fill="white" stroke="black" stroke-width="2"/>
<rect x="292.604" y="357.461" width="392.059" height="50.25" rx="10" fill="white" stroke="black" stroke-width="2"/>
<path d="M94.55 112H92.6V97.7C91.8333 98.05 90.8333 98.2333 89.6 98.25V96.8C90.6 96.7833 91.375 96.6 91.925 96.25C92.4917 95.8833 92.9167 95.2917 93.2 94.475H94.55V112ZM103.236 107.6H101.761L101.511 102.7V94.475H103.461V102.7L103.236 107.6ZM103.486 112H101.511V109.475H103.486V112Z" fill="#000AFF"/>
<path d="M20.0754 13.475C21.2754 13.475 22.1921 13.825 22.8254 14.525C23.4754 15.225 23.8004 16.225 23.8004 17.525V20.3H18.2504V22.65C18.2504 24.1334 18.8671 24.875 20.1004 24.875C21.3504 24.875 21.9754 24.1334 21.9754 22.65V22.275H23.8004V22.475C23.8004 23.775 23.4754 24.7834 22.8254 25.5C22.1921 26.2 21.2754 26.55 20.0754 26.55C18.8754 26.55 17.9504 26.2 17.3004 25.5C16.6671 24.7834 16.3504 23.775 16.3504 22.475V17.525C16.3504 16.225 16.6671 15.225 17.3004 14.525C17.9337 13.825 18.8587 13.475 20.0754 13.475ZM18.2504 17.35V18.75H21.9504V17.35C21.9504 15.8834 21.3254 15.15 20.0754 15.15C18.8587 15.15 18.2504 15.8834 18.2504 17.35ZM28.9783 26.55C27.8283 26.55 26.9283 26.2334 26.2783 25.6C25.645 24.95 25.3283 24.0584 25.3283 22.925V22.5H27.1533V22.975C27.1533 24.2584 27.7283 24.9 28.8783 24.9C30.0283 24.9 30.6033 24.2917 30.6033 23.075C30.6033 22.7084 30.4867 22.3667 30.2533 22.05C30.12 21.85 29.9617 21.675 29.7783 21.525C29.595 21.3584 29.4117 21.225 29.2283 21.125C29.0617 21.025 28.795 20.8834 28.4283 20.7C27.8117 20.3667 27.445 20.1584 27.3283 20.075C27.045 19.8917 26.7533 19.6584 26.4533 19.375C25.7867 18.775 25.4533 17.925 25.4533 16.825C25.4533 15.7917 25.7533 14.975 26.3533 14.375C26.9533 13.775 27.7867 13.475 28.8533 13.475C29.9033 13.475 30.7283 13.7917 31.3283 14.425C31.945 15.0417 32.2533 15.8917 32.2533 16.975V17.225H30.4783V16.925C30.4783 15.7084 29.945 15.1 28.8783 15.1C28.395 15.1 28.0033 15.25 27.7033 15.55C27.42 15.85 27.2783 16.2667 27.2783 16.8C27.2783 17.2 27.395 17.5667 27.6283 17.9C27.845 18.1834 28.07 18.4084 28.3033 18.575C28.5533 18.7417 28.9617 18.9667 29.5283 19.25C30.345 19.6667 31.0033 20.1084 31.5033 20.575C32.1533 21.1584 32.4783 21.9834 32.4783 23.05C32.4783 24.15 32.17 25.0084 31.5533 25.625C30.9367 26.2417 30.0783 26.55 28.9783 26.55ZM37.75 26.55C36.55 26.55 35.6333 26.2084 35 25.525C34.3833 24.825 34.075 23.825 34.075 22.525V17.475C34.075 16.175 34.3833 15.1834 35 14.5C35.6333 13.8167 36.55 13.475 37.75 13.475C38.9333 13.475 39.825 13.825 40.425 14.525C41.0417 15.2084 41.35 16.1917 41.35 17.475V18.025H39.525V17.3C39.525 15.8667 38.9333 15.15 37.75 15.15C36.5667 15.15 35.975 15.8667 35.975 17.3V22.7C35.975 24.15 36.5667 24.875 37.75 24.875C38.9333 24.875 39.525 24.15 39.525 22.7V21.725H41.35V22.525C41.35 23.825 41.0417 24.825 40.425 25.525C39.825 26.2084 38.9333 26.55 37.75 26.55Z" fill="#000AFF"/>
<path d="M902.675 250.175C903.875 250.175 904.792 250.525 905.425 251.225C906.075 251.925 906.4 252.925 906.4 254.225V257H900.85V259.35C900.85 260.833 901.467 261.575 902.7 261.575C903.95 261.575 904.575 260.833 904.575 259.35V258.975H906.4V259.175C906.4 260.475 906.075 261.483 905.425 262.2C904.792 262.9 903.875 263.25 902.675 263.25C901.475 263.25 900.55 262.9 899.9 262.2C899.267 261.483 898.95 260.475 898.95 259.175V254.225C898.95 252.925 899.267 251.925 899.9 251.225C900.533 250.525 901.458 250.175 902.675 250.175ZM900.85 254.05V255.45H904.55V254.05C904.55 252.583 903.925 251.85 902.675 251.85C901.458 251.85 900.85 252.583 900.85 254.05ZM912.878 250.175C914.811 250.175 915.778 251.383 915.778 253.8V263H913.878V254.05C913.878 252.583 913.353 251.85 912.303 251.85C911.703 251.85 911.22 252.1 910.853 252.6C910.503 253.083 910.328 253.767 910.328 254.65V263H908.453V250.425H910.078L910.103 252.075C910.62 250.808 911.545 250.175 912.878 250.175ZM922.997 250.425V252.025H920.722V260.175C920.722 260.675 920.814 261.033 920.997 261.25C921.18 261.467 921.497 261.575 921.947 261.575C922.297 261.575 922.647 261.508 922.997 261.375V263C922.647 263.167 922.18 263.25 921.597 263.25C919.747 263.25 918.822 262.292 918.822 260.375V252.025H917.272V250.425H918.897L919.097 246.8H920.722V250.425H922.997ZM928.139 250.175C929.339 250.175 930.256 250.525 930.889 251.225C931.539 251.925 931.864 252.925 931.864 254.225V257H926.314V259.35C926.314 260.833 926.931 261.575 928.164 261.575C929.414 261.575 930.039 260.833 930.039 259.35V258.975H931.864V259.175C931.864 260.475 931.539 261.483 930.889 262.2C930.256 262.9 929.339 263.25 928.139 263.25C926.939 263.25 926.014 262.9 925.364 262.2C924.731 261.483 924.414 260.475 924.414 259.175V254.225C924.414 252.925 924.731 251.925 925.364 251.225C925.997 250.525 926.922 250.175 928.139 250.175ZM926.314 254.05V255.45H930.014V254.05C930.014 252.583 929.389 251.85 928.139 251.85C926.922 251.85 926.314 252.583 926.314 254.05ZM938.192 250.175C938.542 250.175 938.817 250.225 939.017 250.325V252.175C938.767 252.092 938.508 252.05 938.242 252.05C936.608 252.05 935.792 253.258 935.792 255.675V263H933.917V250.425H935.542L935.567 252.5C936 250.95 936.875 250.175 938.192 250.175Z" fill="#000AFF"/>
<path d="M19.625 403.25C18.425 403.25 17.5083 402.908 16.875 402.225C16.2583 401.525 15.95 400.525 15.95 399.225V394.175C15.95 392.875 16.2583 391.883 16.875 391.2C17.5083 390.517 18.425 390.175 19.625 390.175C20.8083 390.175 21.7 390.525 22.3 391.225C22.9167 391.908 23.225 392.892 23.225 394.175V394.725H21.4V394C21.4 392.567 20.8083 391.85 19.625 391.85C18.4417 391.85 17.85 392.567 17.85 394V399.4C17.85 400.85 18.4417 401.575 19.625 401.575C20.8083 401.575 21.4 400.85 21.4 399.4V398.425H23.225V399.225C23.225 400.525 22.9167 401.525 22.3 402.225C21.7 402.908 20.8083 403.25 19.625 403.25ZM30.1094 390.425V392.025H27.8344V400.175C27.8344 400.675 27.926 401.033 28.1094 401.25C28.2927 401.467 28.6094 401.575 29.0594 401.575C29.4094 401.575 29.7594 401.508 30.1094 401.375V403C29.7594 403.167 29.2927 403.25 28.7094 403.25C26.8594 403.25 25.9344 402.292 25.9344 400.375V392.025H24.3844V390.425H26.0094L26.2094 386.8H27.8344V390.425H30.1094ZM36.0756 390.175C36.4256 390.175 36.7006 390.225 36.9006 390.325V392.175C36.6506 392.092 36.3923 392.05 36.1256 392.05C34.4923 392.05 33.6756 393.258 33.6756 395.675V403H31.8006V390.425H33.4256L33.4506 392.5C33.8839 390.95 34.7589 390.175 36.0756 390.175ZM40.2674 403H38.3924V385.5H40.2674V403Z" fill="#000AFF"/>
<path d="M151.425 112H143.725V110.5C143.725 109.15 143.967 107.975 144.45 106.975C144.967 105.975 145.758 104.917 146.825 103.8C147.875 102.7 148.608 101.792 149.025 101.075C149.458 100.308 149.675 99.4917 149.675 98.625C149.675 96.8917 149 96.025 147.65 96.025C146.267 96.025 145.575 96.825 145.575 98.425V100H143.725V98.55C143.725 97.1833 144.058 96.125 144.725 95.375C145.392 94.625 146.383 94.25 147.7 94.25C148.983 94.25 149.958 94.625 150.625 95.375C151.292 96.125 151.625 97.1833 151.625 98.55C151.625 99.6 151.367 100.608 150.85 101.575C150.35 102.525 149.508 103.617 148.325 104.85C147.392 105.783 146.7 106.633 146.25 107.4C145.85 108.1 145.65 108.917 145.65 109.85V110.225H151.425V112ZM167.256 99.525H169.031L168.281 106.375C168.281 106.458 168.272 106.533 168.256 106.6C168.256 106.667 168.256 106.717 168.256 106.75L168.231 106.825C168.231 107.508 168.531 107.85 169.131 107.85C169.631 107.85 170.056 107.508 170.406 106.825C171.072 105.558 171.406 103.808 171.406 101.575C171.406 99.7583 170.897 98.3417 169.881 97.325C168.864 96.3083 167.447 95.8 165.631 95.8C164.047 95.8 162.731 96.25 161.681 97.15C159.764 98.8 158.806 101.667 158.806 105.75C158.806 107.983 159.397 109.7 160.581 110.9C161.764 112.1 163.456 112.7 165.656 112.7C167.356 112.7 168.797 112.242 169.981 111.325L169.856 113.125C168.689 113.875 167.281 114.25 165.631 114.25C162.897 114.25 160.789 113.5 159.306 112C157.839 110.483 157.106 108.342 157.106 105.575C157.106 102.175 157.822 99.4333 159.256 97.35C160.706 95.2833 162.814 94.25 165.581 94.25C167.931 94.25 169.739 94.8917 171.006 96.175C172.289 97.4417 172.931 99.2583 172.931 101.625C172.931 102.942 172.806 104.167 172.556 105.3C172.306 106.433 171.847 107.408 171.181 108.225C170.531 109.058 169.722 109.475 168.756 109.475C167.539 109.475 166.839 108.908 166.656 107.775C166.056 108.908 165.189 109.475 164.056 109.475C162.356 109.475 161.506 108.55 161.506 106.7C161.506 106.35 161.514 106.125 161.531 106.025L161.881 102.45C162.097 100.333 163.039 99.275 164.706 99.275C165.856 99.275 166.664 99.7583 167.131 100.725L167.256 99.525ZM164.656 107.925C165.172 107.925 165.606 107.717 165.956 107.3C166.322 106.867 166.547 106.275 166.631 105.525L166.881 103.125V102.975C166.881 102.325 166.731 101.808 166.431 101.425C166.131 101.025 165.714 100.825 165.181 100.825C164.281 100.825 163.764 101.442 163.631 102.675L163.281 105.95C163.264 106.017 163.256 106.158 163.256 106.375C163.256 107.408 163.722 107.925 164.656 107.925Z" fill="#000AFF"/>
<path d="M197.275 182H194.65L192.5 164.5H194.4L196.15 179.3L197.95 164.5H200.15L201.975 179.3L203.725 164.5H205.45L203.3 182H200.8L199.05 168.35L197.275 182Z" fill="#FF3D00"/>
<path d="M151.575 251H149.6L148.95 247.275H144.9L144.25 251H142.425L145.675 233.5H148.3L151.575 251ZM146.9 235.725L145.2 245.575H148.65L146.9 235.725Z" fill="#FF3D00"/>
<path d="M205.7 247V246.025H207.55V247.15C207.55 248.7 208.225 249.475 209.575 249.475C210.942 249.475 211.625 248.692 211.625 247.125C211.625 246.342 211.425 245.633 211.025 245C210.658 244.383 209.958 243.65 208.925 242.8C207.725 241.817 206.883 240.925 206.4 240.125C205.933 239.342 205.7 238.442 205.7 237.425C205.7 236.108 206.042 235.083 206.725 234.35C207.408 233.617 208.375 233.25 209.625 233.25C210.875 233.25 211.825 233.617 212.475 234.35C213.142 235.083 213.475 236.125 213.475 237.475V238.175H211.625V237.35C211.625 235.8 210.958 235.025 209.625 235.025C208.292 235.025 207.625 235.783 207.625 237.3C207.625 238.017 207.825 238.675 208.225 239.275C208.625 239.875 209.35 240.6 210.4 241.45C211.617 242.45 212.442 243.358 212.875 244.175C213.342 244.958 213.575 245.892 213.575 246.975C213.575 248.342 213.225 249.4 212.525 250.15C211.842 250.883 210.867 251.25 209.6 251.25C208.333 251.25 207.367 250.883 206.7 250.15C206.033 249.417 205.7 248.367 205.7 247Z" fill="#FF3D00"/>
<path d="M271.2 251H267.2V233.5H271.2C273.833 233.5 275.15 234.917 275.15 237.75V246.75C275.15 249.583 273.833 251 271.2 251ZM269.15 235.275V249.225H271.15C271.85 249.225 272.367 249.042 272.7 248.675C273.033 248.292 273.2 247.675 273.2 246.825V237.65C273.2 236.817 273.033 236.217 272.7 235.85C272.383 235.467 271.867 235.275 271.15 235.275H269.15Z" fill="#FF3D00"/>
<path d="M357.175 321H354.575L351.45 303.5H353.425L355.95 318.35L358.475 303.5H360.275L357.175 321Z" fill="#FFC700"/>
<path d="M417.3 321H413.2V303.5H417.1C418.483 303.5 419.483 303.825 420.1 304.475C420.733 305.108 421.05 306.108 421.05 307.475V308.2C421.05 310.067 420.4 311.233 419.1 311.7V311.75C420.583 312.183 421.325 313.408 421.325 315.425V316.925C421.325 319.642 419.983 321 417.3 321ZM415.15 305.275V310.975H416.8C417.6 310.975 418.183 310.792 418.55 310.425C418.917 310.042 419.1 309.425 419.1 308.575V307.675C419.1 306.825 418.942 306.217 418.625 305.85C418.308 305.467 417.783 305.275 417.05 305.275H415.15ZM415.15 312.75V319.225H417.3C418.017 319.225 418.542 319.042 418.875 318.675C419.208 318.308 419.375 317.708 419.375 316.875V315.375C419.375 314.425 419.183 313.75 418.8 313.35C418.433 312.95 417.8 312.75 416.9 312.75H415.15Z" fill="#FFC700"/>
<path d="M476.975 321H475.2V303.5H477.7L481.65 316V303.5H483.425V321H481.4L476.975 306.775V321Z" fill="#FFC700"/>
<path d="M537.925 321H536.2V303.5H539.025L541.6 317.475L544.15 303.5H547V321H545.125V306.4L542.35 321H540.7L537.925 306.4V321Z" fill="#FFC700"/>
<path d="M585.8 251H583.75L580.825 242.3L579.15 245.225V251H577.2V233.5H579.15V242.125L583.725 233.5H585.75L582.125 240.075L585.8 251Z" fill="#FFC700"/>
<path d="M646.15 251H639.2V233.5H641.15V249.225H646.15V251Z" fill="#FFC700"/>
<path d="M213.625 112.25C212.308 112.25 211.317 111.883 210.65 111.15C209.983 110.4 209.65 109.342 209.65 107.975V106.65H211.5V108.05C211.5 109.667 212.192 110.475 213.575 110.475C214.942 110.475 215.625 109.608 215.625 107.875V106.35C215.625 104.617 214.892 103.75 213.425 103.75H212.375V101.975H213.475C214.875 101.975 215.575 101.183 215.575 99.6V98.45C215.575 96.8333 214.908 96.025 213.575 96.025C212.258 96.025 211.6 96.8083 211.6 98.375V99.4H209.75V98.525C209.75 97.1417 210.075 96.0833 210.725 95.35C211.392 94.6167 212.367 94.25 213.65 94.25C214.9 94.25 215.858 94.6167 216.525 95.35C217.192 96.0833 217.525 97.1333 217.525 98.5V99.2C217.525 101.117 216.842 102.3 215.475 102.75V102.8C216.875 103.25 217.575 104.433 217.575 106.35V107.975C217.575 109.358 217.242 110.417 216.575 111.15C215.908 111.883 214.925 112.25 213.625 112.25ZM231.452 112H223.502V110.325C224.252 109.842 224.843 109.233 225.277 108.5C225.71 107.75 225.927 106.983 225.927 106.2C225.927 105.9 225.902 105.617 225.852 105.35H223.577V103.8H225.527L224.927 102.55C224.76 102.217 224.552 101.775 224.302 101.225C223.952 100.325 223.777 99.3417 223.777 98.275C223.777 97.0583 224.11 96.0833 224.777 95.35C225.443 94.6167 226.402 94.25 227.652 94.25C228.935 94.25 229.91 94.625 230.577 95.375C231.243 96.125 231.577 97.1833 231.577 98.55V99.375H229.727V98.425C229.727 96.825 229.052 96.025 227.702 96.025C226.385 96.025 225.727 96.825 225.727 98.425C225.727 99.1417 225.818 99.825 226.002 100.475C226.202 101.092 226.452 101.742 226.752 102.425C227.085 103.092 227.285 103.55 227.352 103.8H230.727V105.35H227.702C227.735 105.75 227.752 105.983 227.752 106.05C227.752 107.433 227.077 108.825 225.727 110.225H231.452V112Z" fill="#000AFF"/>
<path d="M278.1 112H276.15V108.475H270.475V106.675L275.925 94.5H278.1V106.7H279.5V108.475H278.1V112ZM276.15 97.95L272.3 106.7H276.15V97.95ZM292.988 107.65C292.988 108.767 292.721 109.675 292.188 110.375C291.655 111.075 290.888 111.5 289.888 111.65V113.375H288.263V111.675C287.23 111.542 286.446 111.133 285.913 110.45C285.38 109.75 285.113 108.825 285.113 107.675V106.6H286.963V107.8C286.963 108.483 287.138 109.008 287.488 109.375C287.855 109.742 288.363 109.925 289.013 109.925C289.663 109.925 290.163 109.742 290.513 109.375C290.863 109.008 291.038 108.475 291.038 107.775C291.038 107.058 290.846 106.417 290.463 105.85C290.096 105.3 289.396 104.617 288.363 103.8C287.163 102.883 286.33 102.05 285.863 101.3C285.396 100.567 285.163 99.7167 285.163 98.75C285.163 97.6667 285.43 96.7833 285.963 96.1C286.496 95.4167 287.263 94.9917 288.263 94.825V93.375H289.888V94.825C290.871 94.975 291.621 95.4 292.138 96.1C292.671 96.7833 292.938 97.6833 292.938 98.8V99.35H291.088V98.675C291.088 97.2583 290.43 96.55 289.113 96.55C288.48 96.55 287.988 96.7333 287.638 97.1C287.288 97.45 287.113 97.9583 287.113 98.625C287.113 99.325 287.296 99.9417 287.663 100.475C288.03 101.008 288.746 101.683 289.813 102.5C290.996 103.417 291.821 104.258 292.288 105.025C292.755 105.742 292.988 106.617 292.988 107.65Z" fill="#000AFF"/>
<path d="M335.8 112.25C334.483 112.25 333.492 111.875 332.825 111.125C332.158 110.375 331.825 109.308 331.825 107.925V106.75H333.675V108.075C333.675 109.675 334.367 110.475 335.75 110.475C337.117 110.475 337.8 109.675 337.8 108.075V104.3C337.8 102.733 337.158 101.95 335.875 101.95C334.708 101.95 334 102.592 333.75 103.875V104.025H331.9L332.4 94.5H339.35V96.275H334.125L333.85 101.6C334.417 100.65 335.333 100.175 336.6 100.175C338.7 100.175 339.75 101.5 339.75 104.15V107.925C339.75 109.308 339.417 110.375 338.75 111.125C338.083 111.875 337.1 112.25 335.8 112.25ZM345.299 101.5V97C345.299 96.1167 345.515 95.4333 345.949 94.95C346.399 94.4667 347.04 94.225 347.874 94.225C348.69 94.225 349.324 94.4667 349.774 94.95C350.224 95.4333 350.449 96.1167 350.449 97V101.5C350.449 102.383 350.224 103.067 349.774 103.55C349.34 104.017 348.707 104.25 347.874 104.25C347.04 104.25 346.399 104.017 345.949 103.55C345.515 103.067 345.299 102.383 345.299 101.5ZM348.974 112H347.624L354.449 94.5H355.774L348.974 112ZM349.099 101.6V96.9C349.099 95.9333 348.69 95.45 347.874 95.45C347.057 95.45 346.649 95.9333 346.649 96.9V101.6C346.649 102.567 347.057 103.05 347.874 103.05C348.69 103.05 349.099 102.567 349.099 101.6ZM355.574 112.25C354.74 112.25 354.099 112.008 353.649 111.525C353.215 111.042 352.999 110.358 352.999 109.475V104.975C352.999 104.092 353.215 103.417 353.649 102.95C354.099 102.467 354.74 102.225 355.574 102.225C356.407 102.225 357.04 102.467 357.474 102.95C357.924 103.417 358.149 104.092 358.149 104.975V109.475C358.149 110.358 357.924 111.042 357.474 111.525C357.024 112.008 356.39 112.25 355.574 112.25ZM356.799 109.575V104.875C356.799 103.908 356.39 103.425 355.574 103.425C354.757 103.425 354.349 103.908 354.349 104.875V109.575C354.349 110.542 354.757 111.025 355.574 111.025C356.39 111.025 356.799 110.542 356.799 109.575Z" fill="#000AFF"/>
<path d="M400 112.25C398.7 112.25 397.7 111.875 397 111.125C396.317 110.375 395.975 109.308 395.975 107.925V98.65C395.975 95.7167 397.317 94.25 400 94.25C401.283 94.25 402.258 94.625 402.925 95.375C403.608 96.1083 403.95 97.1667 403.95 98.55V98.875H402.1V98.425C402.1 96.825 401.417 96.025 400.05 96.025C398.633 96.025 397.925 96.925 397.925 98.725V102.675C398.508 101.525 399.467 100.95 400.8 100.95C402.933 100.95 404 102.292 404 104.975V107.925C404 109.308 403.65 110.375 402.95 111.125C402.267 111.875 401.283 112.25 400 112.25ZM400 110.475C401.367 110.475 402.05 109.675 402.05 108.075V105.125C402.05 103.525 401.392 102.725 400.075 102.725C399.408 102.725 398.883 102.958 398.5 103.425C398.117 103.892 397.925 104.517 397.925 105.3V108.075C397.925 109.675 398.617 110.475 400 110.475ZM411.317 101.225H409.592L413.167 94.5H414.592L418.142 101.225H416.442L413.867 96.4L411.317 101.225Z" fill="#000AFF"/>
<path d="M460.625 112H458.6L463.5 96.275H457.425V94.5H465.425V96.225L460.625 112ZM479.663 102.175V103.9H478.863V108.575C478.863 110.058 478.963 111.2 479.163 112H477.413C477.347 111.833 477.272 111.275 477.188 110.325C476.605 111.608 475.58 112.25 474.113 112.25C472.03 112.25 470.988 111.033 470.988 108.6V106.525C470.988 104.608 471.68 103.425 473.063 102.975V102.925C471.713 102.442 471.038 101.267 471.038 99.4V98.475C471.038 97.1083 471.363 96.0667 472.013 95.35C472.68 94.6167 473.655 94.25 474.938 94.25C477.555 94.25 478.863 95.6667 478.863 98.5V99.05H477.038V98.325C477.038 96.775 476.363 96 475.013 96C473.63 96 472.938 96.8083 472.938 98.425V99.8C472.938 101.383 473.68 102.175 475.163 102.175H479.663ZM476.988 107.775V103.9H475.138C473.638 103.9 472.888 104.775 472.888 106.525V108.45C472.888 109.85 473.497 110.55 474.713 110.55C475.397 110.55 475.947 110.308 476.363 109.825C476.78 109.325 476.988 108.642 476.988 107.775Z" fill="#000AFF"/>
<path d="M518.825 107.975V106.35C518.825 104.5 519.483 103.317 520.8 102.8V102.775C519.55 102.192 518.925 101.033 518.925 99.3V98.45C518.925 97.0833 519.267 96.0417 519.95 95.325C520.633 94.6083 521.633 94.25 522.95 94.25C524.267 94.25 525.267 94.6083 525.95 95.325C526.65 96.0417 527 97.0833 527 98.45V99.3C527 101.05 526.367 102.208 525.1 102.775V102.8C526.433 103.333 527.1 104.517 527.1 106.35V107.975C527.1 109.342 526.742 110.4 526.025 111.15C525.308 111.883 524.283 112.25 522.95 112.25C521.617 112.25 520.592 111.883 519.875 111.15C519.175 110.4 518.825 109.342 518.825 107.975ZM522.95 101.975C524.35 101.975 525.05 101.208 525.05 99.675V98.4C525.05 96.8167 524.35 96.025 522.95 96.025C521.567 96.025 520.875 96.8167 520.875 98.4V99.675C520.875 101.208 521.567 101.975 522.95 101.975ZM522.95 110.475C524.417 110.475 525.15 109.608 525.15 107.875V106.175C525.15 104.558 524.417 103.75 522.95 103.75C521.5 103.75 520.775 104.558 520.775 106.175V107.875C520.775 109.608 521.5 110.475 522.95 110.475ZM537.064 99.8L535.114 103.075L533.814 102.125L536.289 99.25L532.564 98.4L533.064 96.875L536.614 98.35L536.264 94.5H537.889L537.539 98.35L541.089 96.9L541.589 98.425L537.864 99.25L540.339 102.125L539.039 103.075L537.064 99.8Z" fill="#000AFF"/>
<path d="M586.825 112.25C585.525 112.25 584.542 111.883 583.875 111.15C583.208 110.4 582.875 109.325 582.875 107.925V107.625H584.725V108.05C584.725 109.667 585.408 110.475 586.775 110.475C587.492 110.475 588.017 110.258 588.35 109.825C588.7 109.392 588.875 108.7 588.875 107.75V103.8C588.308 104.967 587.358 105.55 586.025 105.55C583.875 105.55 582.8 104.2 582.8 101.5V98.55C582.8 97.1667 583.142 96.1083 583.825 95.375C584.525 94.625 585.525 94.25 586.825 94.25C588.108 94.25 589.092 94.625 589.775 95.375C590.475 96.1083 590.825 97.1667 590.825 98.55V107.825C590.825 110.775 589.492 112.25 586.825 112.25ZM586.725 103.775C587.408 103.775 587.933 103.55 588.3 103.1C588.683 102.633 588.875 102 588.875 101.2V98.425C588.875 96.825 588.192 96.025 586.825 96.025C585.442 96.025 584.75 96.825 584.75 98.425V101.35C584.75 102.967 585.408 103.775 586.725 103.775ZM601.617 114.5H600.892C599.692 114.5 598.8 114.225 598.217 113.675C597.65 113.142 597.367 112.225 597.367 110.925V98.05C597.367 96.8333 597.633 95.9417 598.167 95.375C598.7 94.7917 599.608 94.5 600.892 94.5H601.617V96H601.017C600.383 96 599.917 96.15 599.617 96.45C599.333 96.75 599.192 97.2833 599.192 98.05V110.925C599.192 111.642 599.333 112.167 599.617 112.5C599.9 112.833 600.367 113 601.017 113H601.617V114.5Z" fill="#000AFF"/>
<path d="M649 112.25C647.717 112.25 646.725 111.875 646.025 111.125C645.342 110.375 645 109.308 645 107.925V98.55C645 97.1667 645.342 96.1083 646.025 95.375C646.725 94.625 647.717 94.25 649 94.25C650.3 94.25 651.292 94.625 651.975 95.375C652.675 96.1083 653.025 97.1667 653.025 98.55V107.925C653.025 109.308 652.675 110.375 651.975 111.125C651.292 111.875 650.3 112.25 649 112.25ZM649 110.475C650.383 110.475 651.075 109.667 651.075 108.05V98.425C651.075 96.825 650.383 96.025 649 96.025C647.633 96.025 646.95 96.825 646.95 98.425V108.05C646.95 109.667 647.633 110.475 649 110.475ZM659.687 114.5H658.962V113H659.562C660.195 113 660.662 112.842 660.962 112.525C661.262 112.225 661.412 111.692 661.412 110.925V98.05C661.412 97.3333 661.27 96.8167 660.987 96.5C660.704 96.1667 660.229 96 659.562 96H658.962V94.5H659.687C660.904 94.5 661.795 94.775 662.362 95.325C662.929 95.8583 663.212 96.7667 663.212 98.05V110.925C663.212 112.158 662.945 113.058 662.412 113.625C661.879 114.208 660.97 114.5 659.687 114.5Z" fill="#000AFF"/>
</svg>
