<svg width="811" height="172" viewBox="0 0 811 172" fill="none" xmlns="http://www.w3.org/2000/svg">
<path d="M5.04 37H1.92V9H8.04C12.2533 9 14.36 11.2667 14.36 15.8V18.2C14.36 22.7067 12.2533 24.96 8.04 24.96H5.04V37ZM5.04 11.84V22.12H8.04C9.16 22.12 9.97333 21.84 10.48 21.28C10.9867 20.6933 11.24 19.72 11.24 18.36V15.6C11.24 14.24 10.9867 13.28 10.48 12.72C9.97333 12.1333 9.16 11.84 8.04 11.84H5.04ZM18.8725 43.6C17.9658 43.6 17.2858 43.4667 16.8325 43.2V40.6C17.3125 40.8133 17.8458 40.92 18.4325 40.92C19.1525 40.92 19.6725 40.7733 19.9925 40.48C20.3392 40.1867 20.6058 39.64 20.7925 38.84L21.1925 37.4L15.9925 16.88H19.0725L22.6725 32.2L25.9525 16.88H28.7925L23.7125 39.28C23.3658 40.8267 22.8192 41.9333 22.0725 42.6C21.3258 43.2667 20.2592 43.6 18.8725 43.6ZM36.775 37.4C34.855 37.4 33.3883 36.8533 32.375 35.76C31.3883 34.64 30.895 33.04 30.895 30.96V22.88C30.895 20.8 31.3883 19.2133 32.375 18.12C33.3883 17.0267 34.855 16.48 36.775 16.48C38.6683 16.48 40.095 17.04 41.055 18.16C42.0417 19.2533 42.535 20.8267 42.535 22.88V23.76H39.615V22.6C39.615 20.3067 38.6683 19.16 36.775 19.16C34.8817 19.16 33.935 20.3067 33.935 22.6V31.24C33.935 33.56 34.8817 34.72 36.775 34.72C38.6683 34.72 39.615 33.56 39.615 31.24V29.68H42.535V30.96C42.535 33.04 42.0417 34.64 41.055 35.76C40.095 36.8533 38.6683 37.4 36.775 37.4ZM51.15 37.4C49.23 37.4 47.7633 36.8533 46.75 35.76C45.7633 34.64 45.27 33.04 45.27 30.96V22.88C45.27 20.8 45.7633 19.2133 46.75 18.12C47.7633 17.0267 49.23 16.48 51.15 16.48C53.0433 16.48 54.47 17.04 55.43 18.16C56.4167 19.2533 56.91 20.8267 56.91 22.88V23.76H53.99V22.6C53.99 20.3067 53.0433 19.16 51.15 19.16C49.2567 19.16 48.31 20.3067 48.31 22.6V31.24C48.31 33.56 49.2567 34.72 51.15 34.72C53.0433 34.72 53.99 33.56 53.99 31.24V29.68H56.91V30.96C56.91 33.04 56.4167 34.64 55.43 35.76C54.47 36.8533 53.0433 37.4 51.15 37.4ZM72.805 37H69.525L65.405 27.36L63.045 30.88V37H60.005V16.88H63.045V26.68L69.285 16.88H72.565L67.485 24.44L72.805 37ZM78.0784 31.52L84.1584 16.88H87.2784V37H84.5184V22.36L78.4384 37H75.3184V16.88H78.0784V31.52ZM92.8997 9.72H94.8597C95.0197 11.1333 95.7664 11.84 97.0997 11.84C98.4864 11.84 99.2597 11.1333 99.4197 9.72H101.34C101.286 11.0533 100.886 12.0933 100.14 12.84C99.4197 13.5867 98.4064 13.96 97.0997 13.96C95.793 13.96 94.7797 13.6 94.0597 12.88C93.3397 12.1333 92.953 11.08 92.8997 9.72ZM93.8597 31.52L99.9397 16.88H103.06V37H100.3V22.36L94.2197 37H91.0997V16.88H93.8597V31.52Z" fill="white"/>
<path d="M147.4 37H135.92V9H147.4V11.84H139.04V20.96H145.84V23.8H139.04V34.16H147.4V37ZM157.258 16.48C160.351 16.48 161.898 18.4133 161.898 22.28V37H158.858V22.68C158.858 20.3333 158.018 19.16 156.338 19.16C155.378 19.16 154.604 19.56 154.018 20.36C153.458 21.1333 153.178 22.2267 153.178 23.64V37H150.178V16.88H152.778L152.818 19.52C153.644 17.4933 155.124 16.48 157.258 16.48ZM174.368 19.56L174.408 16.88H177.008V37.6C177.008 39.6267 176.542 41.1333 175.608 42.12C174.675 43.1067 173.182 43.6 171.128 43.6C167.288 43.6 165.368 41.88 165.368 38.44V38.28H168.248V38.56C168.248 40.24 169.195 41.08 171.088 41.08C173.035 41.08 174.008 39.9867 174.008 37.8V34.12C173.075 35.72 171.702 36.52 169.888 36.52C166.768 36.52 165.208 34.5733 165.208 30.68V22.28C165.208 18.4133 166.768 16.48 169.888 16.48C172.022 16.48 173.515 17.5067 174.368 19.56ZM170.808 33.84C171.768 33.84 172.542 33.4533 173.128 32.68C173.715 31.88 174.008 30.7733 174.008 29.36V23.64C174.008 22.2267 173.715 21.1333 173.128 20.36C172.542 19.56 171.768 19.16 170.808 19.16C169.075 19.16 168.208 20.28 168.208 22.52V30.44C168.208 32.7067 169.075 33.84 170.808 33.84ZM183.842 37H180.842V9H183.842V37ZM190.678 14H187.678V9.68H190.678V14ZM190.678 37H187.678V16.88H190.678V37ZM199.514 37.4C197.674 37.4 196.234 36.8933 195.194 35.88C194.18 34.84 193.674 33.4133 193.674 31.6V30.92H196.594V31.68C196.594 33.7333 197.514 34.76 199.354 34.76C201.194 34.76 202.114 33.7867 202.114 31.84C202.114 31.2533 201.927 30.7067 201.554 30.2C201.34 29.88 201.087 29.6 200.794 29.36C200.5 29.0933 200.207 28.88 199.914 28.72C199.647 28.56 199.22 28.3333 198.634 28.04C197.647 27.5067 197.06 27.1733 196.874 27.04C196.42 26.7467 195.954 26.3733 195.474 25.92C194.407 24.96 193.874 23.6 193.874 21.84C193.874 20.1867 194.354 18.88 195.314 17.92C196.274 16.96 197.607 16.48 199.314 16.48C200.994 16.48 202.314 16.9867 203.274 18C204.26 18.9867 204.754 20.3467 204.754 22.08V22.48H201.914V22C201.914 20.0533 201.06 19.08 199.354 19.08C198.58 19.08 197.954 19.32 197.474 19.8C197.02 20.28 196.794 20.9467 196.794 21.8C196.794 22.44 196.98 23.0267 197.354 23.56C197.7 24.0133 198.06 24.3733 198.434 24.64C198.834 24.9067 199.487 25.2667 200.394 25.72C201.7 26.3867 202.754 27.0933 203.554 27.84C204.594 28.7733 205.114 30.0933 205.114 31.8C205.114 33.56 204.62 34.9333 203.634 35.92C202.647 36.9067 201.274 37.4 199.514 37.4ZM215.148 16.48C218.242 16.48 219.788 18.4133 219.788 22.28V37H216.748V22.68C216.748 20.3333 215.908 19.16 214.228 19.16C213.268 19.16 212.495 19.56 211.908 20.36C211.348 21.1333 211.068 22.2267 211.068 23.64V37H208.068V9H211.068V18.8C211.975 17.2533 213.335 16.48 215.148 16.48Z" fill="white"/>
<path d="M113.32 100H106.92V72H113.32C117.533 72 119.64 74.2667 119.64 78.8V93.2C119.64 97.7333 117.533 100 113.32 100ZM110.04 74.84V97.16H113.24C114.36 97.16 115.187 96.8667 115.72 96.28C116.253 95.6667 116.52 94.68 116.52 93.32V78.64C116.52 77.3067 116.253 76.3467 115.72 75.76C115.213 75.1467 114.387 74.84 113.24 74.84H110.04ZM128.925 79.48C130.845 79.48 132.312 80.04 133.325 81.16C134.365 82.28 134.885 83.88 134.885 85.96V90.4H126.005V94.16C126.005 96.5333 126.992 97.72 128.965 97.72C130.965 97.72 131.965 96.5333 131.965 94.16V93.56H134.885V93.88C134.885 95.96 134.365 97.5733 133.325 98.72C132.312 99.84 130.845 100.4 128.925 100.4C127.005 100.4 125.525 99.84 124.485 98.72C123.472 97.5733 122.965 95.96 122.965 93.88V85.96C122.965 83.88 123.472 82.28 124.485 81.16C125.499 80.04 126.979 79.48 128.925 79.48ZM126.005 85.68V87.92H131.925V85.68C131.925 83.3333 130.925 82.16 128.925 82.16C126.979 82.16 126.005 83.3333 126.005 85.68ZM146.73 93.24V79.88H149.73V100H147.13L147.09 97.32C146.237 99.3733 144.757 100.4 142.65 100.4C139.557 100.4 138.01 98.4533 138.01 94.56V79.88H141.05V94.2C141.05 96.5467 141.89 97.72 143.57 97.72C144.53 97.72 145.29 97.3333 145.85 96.56C146.437 95.76 146.73 94.6533 146.73 93.24ZM161.441 79.88V82.44H157.801V95.48C157.801 96.28 157.947 96.8533 158.241 97.2C158.534 97.5467 159.041 97.72 159.761 97.72C160.321 97.72 160.881 97.6133 161.441 97.4V100C160.881 100.267 160.134 100.4 159.201 100.4C156.241 100.4 154.761 98.8667 154.761 95.8V82.44H152.281V79.88H154.881L155.201 74.08H157.801V79.88H161.441ZM169.147 100.4C167.307 100.4 165.867 99.8933 164.827 98.88C163.813 97.84 163.307 96.4133 163.307 94.6V93.92H166.227V94.68C166.227 96.7333 167.147 97.76 168.987 97.76C170.827 97.76 171.747 96.7867 171.747 94.84C171.747 94.2533 171.56 93.7067 171.187 93.2C170.973 92.88 170.72 92.6 170.427 92.36C170.133 92.0933 169.84 91.88 169.547 91.72C169.28 91.56 168.853 91.3333 168.267 91.04C167.28 90.5067 166.693 90.1733 166.507 90.04C166.053 89.7467 165.587 89.3733 165.107 88.92C164.04 87.96 163.507 86.6 163.507 84.84C163.507 83.1867 163.987 81.88 164.947 80.92C165.907 79.96 167.24 79.48 168.947 79.48C170.627 79.48 171.947 79.9867 172.907 81C173.893 81.9867 174.387 83.3467 174.387 85.08V85.48H171.547V85C171.547 83.0533 170.693 82.08 168.987 82.08C168.213 82.08 167.587 82.32 167.107 82.8C166.653 83.28 166.427 83.9467 166.427 84.8C166.427 85.44 166.613 86.0267 166.987 86.56C167.333 87.0133 167.693 87.3733 168.067 87.64C168.467 87.9067 169.12 88.2667 170.027 88.72C171.333 89.3867 172.387 90.0933 173.187 90.84C174.227 91.7733 174.747 93.0933 174.747 94.8C174.747 96.56 174.253 97.9333 173.267 98.92C172.28 99.9067 170.907 100.4 169.147 100.4ZM183.181 100.4C181.261 100.4 179.795 99.8533 178.781 98.76C177.795 97.64 177.301 96.04 177.301 93.96V85.88C177.301 83.8 177.795 82.2133 178.781 81.12C179.795 80.0267 181.261 79.48 183.181 79.48C185.075 79.48 186.501 80.04 187.461 81.16C188.448 82.2533 188.941 83.8267 188.941 85.88V86.76H186.021V85.6C186.021 83.3067 185.075 82.16 183.181 82.16C181.288 82.16 180.341 83.3067 180.341 85.6V94.24C180.341 96.56 181.288 97.72 183.181 97.72C185.075 97.72 186.021 96.56 186.021 94.24V92.68H188.941V93.96C188.941 96.04 188.448 97.64 187.461 98.76C186.501 99.8533 185.075 100.4 183.181 100.4ZM199.156 79.48C202.25 79.48 203.796 81.4133 203.796 85.28V100H200.756V85.68C200.756 83.3333 199.916 82.16 198.236 82.16C197.276 82.16 196.503 82.56 195.916 83.36C195.356 84.1333 195.076 85.2267 195.076 86.64V100H192.076V72H195.076V81.8C195.983 80.2533 197.343 79.48 199.156 79.48Z" fill="white"/>
<path d="M243.04 100H239.92V72H246.04C250.253 72 252.36 74.2667 252.36 78.8V81.2C252.36 85.7067 250.253 87.96 246.04 87.96H243.04V100ZM243.04 74.84V85.12H246.04C247.16 85.12 247.973 84.84 248.48 84.28C248.987 83.6933 249.24 82.72 249.24 81.36V78.6C249.24 77.24 248.987 76.28 248.48 75.72C247.973 75.1333 247.16 74.84 246.04 74.84H243.04ZM260.753 100.4C258.833 100.4 257.366 99.84 256.353 98.72C255.339 97.5733 254.833 95.96 254.833 93.88V85.96C254.833 83.88 255.339 82.28 256.353 81.16C257.366 80.04 258.833 79.48 260.753 79.48C262.646 79.48 264.099 80.04 265.113 81.16C266.153 82.28 266.673 83.88 266.673 85.96V93.88C266.673 95.96 266.153 97.5733 265.113 98.72C264.099 99.84 262.646 100.4 260.753 100.4ZM260.753 97.72C262.673 97.72 263.633 96.5333 263.633 94.16V85.68C263.633 83.3333 262.673 82.16 260.753 82.16C258.806 82.16 257.833 83.3333 257.833 85.68V94.16C257.833 96.5333 258.806 97.72 260.753 97.72ZM276.916 79.48C277.476 79.48 277.916 79.56 278.236 79.72V82.68C277.836 82.5467 277.423 82.48 276.996 82.48C274.383 82.48 273.076 84.4133 273.076 88.28V100H270.076V79.88H272.676L272.716 83.2C273.41 80.72 274.81 79.48 276.916 79.48ZM288.738 79.88V82.44H285.098V95.48C285.098 96.28 285.244 96.8533 285.538 97.2C285.831 97.5467 286.338 97.72 287.058 97.72C287.618 97.72 288.178 97.6133 288.738 97.4V100C288.178 100.267 287.431 100.4 286.498 100.4C283.538 100.4 282.058 98.8667 282.058 95.8V82.44H279.578V79.88H282.178L282.498 74.08H285.098V79.88H288.738ZM300.003 93.24V79.88H303.003V100H300.403L300.363 97.32C299.51 99.3733 298.03 100.4 295.923 100.4C292.83 100.4 291.283 98.4533 291.283 94.56V79.88H294.323V94.2C294.323 96.5467 295.163 97.72 296.843 97.72C297.803 97.72 298.563 97.3333 299.123 96.56C299.71 95.76 300.003 94.6533 300.003 93.24ZM315.634 82.56L315.674 79.88H318.274V100.6C318.274 102.627 317.807 104.133 316.874 105.12C315.941 106.107 314.447 106.6 312.394 106.6C308.554 106.6 306.634 104.88 306.634 101.44V101.28H309.514V101.56C309.514 103.24 310.461 104.08 312.354 104.08C314.301 104.08 315.274 102.987 315.274 100.8V97.12C314.341 98.72 312.967 99.52 311.154 99.52C308.034 99.52 306.474 97.5733 306.474 93.68V85.28C306.474 81.4133 308.034 79.48 311.154 79.48C313.287 79.48 314.781 80.5067 315.634 82.56ZM312.074 96.84C313.034 96.84 313.807 96.4533 314.394 95.68C314.981 94.88 315.274 93.7733 315.274 92.36V86.64C315.274 85.2267 314.981 84.1333 314.394 83.36C313.807 82.56 313.034 82.16 312.074 82.16C310.341 82.16 309.474 83.28 309.474 85.52V93.44C309.474 95.7067 310.341 96.84 312.074 96.84ZM330.668 93.24V79.88H333.668V100H331.068L331.028 97.32C330.174 99.3733 328.694 100.4 326.588 100.4C323.494 100.4 321.948 98.4533 321.948 94.56V79.88H324.988V94.2C324.988 96.5467 325.828 97.72 327.508 97.72C328.468 97.72 329.228 97.3333 329.788 96.56C330.374 95.76 330.668 94.6533 330.668 93.24ZM345.258 77.4L343.018 74.04L340.818 77.4H338.338L341.458 72.28H344.618L347.698 77.4H345.258ZM343.058 79.48C344.978 79.48 346.445 80.04 347.458 81.16C348.498 82.28 349.018 83.88 349.018 85.96V90.4H340.138V94.16C340.138 96.5333 341.125 97.72 343.098 97.72C345.098 97.72 346.098 96.5333 346.098 94.16V93.56H349.018V93.88C349.018 95.96 348.498 97.5733 347.458 98.72C346.445 99.84 344.978 100.4 343.058 100.4C341.138 100.4 339.658 99.84 338.618 98.72C337.605 97.5733 337.098 95.96 337.098 93.88V85.96C337.098 83.88 337.605 82.28 338.618 81.16C339.631 80.04 341.111 79.48 343.058 79.48ZM340.138 85.68V87.92H346.058V85.68C346.058 83.3333 345.058 82.16 343.058 82.16C341.111 82.16 340.138 83.3333 340.138 85.68ZM357.303 100.4C355.463 100.4 354.023 99.8933 352.983 98.88C351.969 97.84 351.463 96.4133 351.463 94.6V93.92H354.383V94.68C354.383 96.7333 355.303 97.76 357.143 97.76C358.983 97.76 359.903 96.7867 359.903 94.84C359.903 94.2533 359.716 93.7067 359.343 93.2C359.129 92.88 358.876 92.6 358.583 92.36C358.289 92.0933 357.996 91.88 357.703 91.72C357.436 91.56 357.009 91.3333 356.423 91.04C355.436 90.5067 354.849 90.1733 354.663 90.04C354.209 89.7467 353.743 89.3733 353.263 88.92C352.196 87.96 351.663 86.6 351.663 84.84C351.663 83.1867 352.143 81.88 353.103 80.92C354.063 79.96 355.396 79.48 357.103 79.48C358.783 79.48 360.103 79.9867 361.063 81C362.049 81.9867 362.543 83.3467 362.543 85.08V85.48H359.703V85C359.703 83.0533 358.849 82.08 357.143 82.08C356.369 82.08 355.743 82.32 355.263 82.8C354.809 83.28 354.583 83.9467 354.583 84.8C354.583 85.44 354.769 86.0267 355.143 86.56C355.489 87.0133 355.849 87.3733 356.223 87.64C356.623 87.9067 357.276 88.2667 358.183 88.72C359.489 89.3867 360.543 90.0933 361.343 90.84C362.383 91.7733 362.903 93.0933 362.903 94.8C362.903 96.56 362.409 97.9333 361.423 98.92C360.436 99.9067 359.063 100.4 357.303 100.4Z" fill="white"/>
<path d="M405.4 69.92H402.24L399.12 64.8H401.6L403.8 68.16L406.04 64.8H408.48L405.4 69.92ZM403.84 100.4C401.867 100.4 400.333 99.8133 399.24 98.64C398.147 97.4667 397.6 95.8267 397.6 93.72V78.28C397.6 76.1733 398.133 74.5333 399.2 73.36C400.293 72.1867 401.84 71.6 403.84 71.6C405.84 71.6 407.373 72.1867 408.44 73.36C409.533 74.5333 410.08 76.1733 410.08 78.28V81.16H407.12V78.08C407.12 76.9067 406.827 76.0133 406.24 75.4C405.68 74.76 404.907 74.44 403.92 74.44C402.933 74.44 402.147 74.76 401.56 75.4C401 76.0133 400.72 76.9067 400.72 78.08V93.92C400.72 95.0933 401 96 401.56 96.64C402.147 97.2533 402.933 97.56 403.92 97.56C404.907 97.56 405.68 97.2533 406.24 96.64C406.827 96 407.12 95.0933 407.12 93.92V90H410.08V93.72C410.08 95.8267 409.533 97.4667 408.44 98.64C407.373 99.8133 405.84 100.4 403.84 100.4ZM418.753 79.48C420.673 79.48 422.14 80.04 423.153 81.16C424.193 82.28 424.713 83.88 424.713 85.96V90.4H415.833V94.16C415.833 96.5333 416.82 97.72 418.793 97.72C420.793 97.72 421.793 96.5333 421.793 94.16V93.56H424.713V93.88C424.713 95.96 424.193 97.5733 423.153 98.72C422.14 99.84 420.673 100.4 418.753 100.4C416.833 100.4 415.353 99.84 414.313 98.72C413.3 97.5733 412.793 95.96 412.793 93.88V85.96C412.793 83.88 413.3 82.28 414.313 81.16C415.327 80.04 416.807 79.48 418.753 79.48ZM415.833 85.68V87.92H421.753V85.68C421.753 83.3333 420.753 82.16 418.753 82.16C416.807 82.16 415.833 83.3333 415.833 85.68ZM434.358 77.4H431.198L428.078 72.28H430.558L432.758 75.64L434.998 72.28H437.438L434.358 77.4ZM432.998 100.4C431.158 100.4 429.718 99.8933 428.678 98.88C427.665 97.84 427.158 96.4133 427.158 94.6V93.92H430.078V94.68C430.078 96.7333 430.998 97.76 432.838 97.76C434.678 97.76 435.598 96.7867 435.598 94.84C435.598 94.2533 435.411 93.7067 435.038 93.2C434.825 92.88 434.571 92.6 434.278 92.36C433.985 92.0933 433.691 91.88 433.398 91.72C433.131 91.56 432.705 91.3333 432.118 91.04C431.131 90.5067 430.545 90.1733 430.358 90.04C429.905 89.7467 429.438 89.3733 428.958 88.92C427.891 87.96 427.358 86.6 427.358 84.84C427.358 83.1867 427.838 81.88 428.798 80.92C429.758 79.96 431.091 79.48 432.798 79.48C434.478 79.48 435.798 79.9867 436.758 81C437.745 81.9867 438.238 83.3467 438.238 85.08V85.48H435.398V85C435.398 83.0533 434.545 82.08 432.838 82.08C432.065 82.08 431.438 82.32 430.958 82.8C430.505 83.28 430.278 83.9467 430.278 84.8C430.278 85.44 430.465 86.0267 430.838 86.56C431.185 87.0133 431.545 87.3733 431.918 87.64C432.318 87.9067 432.971 88.2667 433.878 88.72C435.185 89.3867 436.238 90.0933 437.038 90.84C438.078 91.7733 438.598 93.0933 438.598 94.8C438.598 96.56 438.105 97.9333 437.118 98.92C436.131 99.9067 434.758 100.4 432.998 100.4ZM449.238 79.88V82.44H445.598V95.48C445.598 96.28 445.744 96.8533 446.038 97.2C446.331 97.5467 446.838 97.72 447.558 97.72C448.118 97.72 448.678 97.6133 449.238 97.4V100C448.678 100.267 447.931 100.4 446.998 100.4C444.038 100.4 442.558 98.8667 442.558 95.8V82.44H440.078V79.88H442.678L442.998 74.08H445.598V79.88H449.238ZM454.943 77H451.943V72.68H454.943V77ZM454.943 100H451.943V79.88H454.943V100ZM465.859 79.48C468.953 79.48 470.499 81.4133 470.499 85.28V100H467.459V85.68C467.459 83.3333 466.619 82.16 464.939 82.16C463.979 82.16 463.206 82.56 462.619 83.36C462.059 84.1333 461.779 85.2267 461.779 86.64V100H458.779V79.88H461.379L461.419 82.52C462.246 80.4933 463.726 79.48 465.859 79.48ZM485.53 100H482.77C482.637 99.4933 482.53 98.5867 482.45 97.28C481.623 99.36 480.063 100.4 477.77 100.4C476.383 100.4 475.29 99.96 474.49 99.08C473.69 98.1733 473.29 96.96 473.29 95.44C473.29 93.8933 473.663 92.6267 474.41 91.64C475.183 90.6267 476.477 89.6933 478.29 88.84C479.943 88.0933 480.997 87.5333 481.45 87.16C481.877 86.8133 482.09 86.28 482.09 85.56V85.08C482.09 83.08 481.223 82.08 479.49 82.08C478.61 82.08 477.917 82.3467 477.41 82.88C476.93 83.4133 476.69 84.1733 476.69 85.16V85.76H473.85V85.32C473.85 83.4533 474.343 82.0133 475.33 81C476.317 79.9867 477.717 79.48 479.53 79.48C483.237 79.48 485.09 81.5067 485.09 85.56V94.52C485.09 96.8667 485.237 98.6933 485.53 100ZM478.81 97.76C479.823 97.76 480.623 97.36 481.21 96.56C481.797 95.76 482.09 94.64 482.09 93.2V89.16C481.797 89.56 480.823 90.1867 479.17 91.04C477.277 92 476.33 93.32 476.33 95C476.33 96.84 477.157 97.76 478.81 97.76Z" fill="white"/>
<path d="M724.68 37H721.92V9H726.44L730.56 31.36L734.64 9H739.2V37H736.2V13.64L731.76 37H729.12L724.68 13.64V37ZM754.374 37H751.614C751.48 36.4933 751.374 35.5867 751.294 34.28C750.467 36.36 748.907 37.4 746.614 37.4C745.227 37.4 744.134 36.96 743.334 36.08C742.534 35.1733 742.134 33.96 742.134 32.44C742.134 30.8933 742.507 29.6267 743.254 28.64C744.027 27.6267 745.32 26.6933 747.134 25.84C748.787 25.0933 749.84 24.5333 750.294 24.16C750.72 23.8133 750.934 23.28 750.934 22.56V22.08C750.934 20.08 750.067 19.08 748.334 19.08C747.454 19.08 746.76 19.3467 746.254 19.88C745.774 20.4133 745.534 21.1733 745.534 22.16V22.76H742.694V22.32C742.694 20.4533 743.187 19.0133 744.174 18C745.16 16.9867 746.56 16.48 748.374 16.48C752.08 16.48 753.934 18.5067 753.934 22.56V31.52C753.934 33.8667 754.08 35.6933 754.374 37ZM747.654 34.76C748.667 34.76 749.467 34.36 750.054 33.56C750.64 32.76 750.934 31.64 750.934 30.2V26.16C750.64 26.56 749.667 27.1867 748.014 28.04C746.12 29 745.174 30.32 745.174 32C745.174 33.84 746 34.76 747.654 34.76ZM766.501 19.56L766.541 16.88H769.141V37.6C769.141 39.6267 768.675 41.1333 767.741 42.12C766.808 43.1067 765.315 43.6 763.261 43.6C759.421 43.6 757.501 41.88 757.501 38.44V38.28H760.381V38.56C760.381 40.24 761.328 41.08 763.221 41.08C765.168 41.08 766.141 39.9867 766.141 37.8V34.12C765.208 35.72 763.835 36.52 762.021 36.52C758.901 36.52 757.341 34.5733 757.341 30.68V22.28C757.341 18.4133 758.901 16.48 762.021 16.48C764.155 16.48 765.648 17.5067 766.501 19.56ZM762.941 33.84C763.901 33.84 764.675 33.4533 765.261 32.68C765.848 31.88 766.141 30.7733 766.141 29.36V23.64C766.141 22.2267 765.848 21.1333 765.261 20.36C764.675 19.56 763.901 19.16 762.941 19.16C761.208 19.16 760.341 20.28 760.341 22.52V30.44C760.341 32.7067 761.208 33.84 762.941 33.84ZM774.615 43.6C773.708 43.6 773.028 43.4667 772.575 43.2V40.6C773.055 40.8133 773.588 40.92 774.175 40.92C774.895 40.92 775.415 40.7733 775.735 40.48C776.081 40.1867 776.348 39.64 776.535 38.84L776.935 37.4L771.735 16.88H774.815L778.415 32.2L781.695 16.88H784.535L779.455 39.28C779.108 40.8267 778.561 41.9333 777.815 42.6C777.068 43.2667 776.001 43.6 774.615 43.6ZM798.085 37H795.325C795.191 36.4933 795.085 35.5867 795.005 34.28C794.178 36.36 792.618 37.4 790.325 37.4C788.938 37.4 787.845 36.96 787.045 36.08C786.245 35.1733 785.845 33.96 785.845 32.44C785.845 30.8933 786.218 29.6267 786.965 28.64C787.738 27.6267 789.031 26.6933 790.845 25.84C792.498 25.0933 793.551 24.5333 794.005 24.16C794.431 23.8133 794.645 23.28 794.645 22.56V22.08C794.645 20.08 793.778 19.08 792.045 19.08C791.165 19.08 790.471 19.3467 789.965 19.88C789.485 20.4133 789.245 21.1733 789.245 22.16V22.76H786.405V22.32C786.405 20.4533 786.898 19.0133 787.885 18C788.871 16.9867 790.271 16.48 792.085 16.48C795.791 16.48 797.645 18.5067 797.645 22.56V31.52C797.645 33.8667 797.791 35.6933 798.085 37ZM791.365 34.76C792.378 34.76 793.178 34.36 793.765 33.56C794.351 32.76 794.645 31.64 794.645 30.2V26.16C794.351 26.56 793.378 27.1867 791.725 28.04C789.831 29 788.885 30.32 788.885 32C788.885 33.84 789.711 34.76 791.365 34.76ZM808.252 16.48C808.812 16.48 809.252 16.56 809.572 16.72V19.68C809.172 19.5467 808.759 19.48 808.332 19.48C805.719 19.48 804.412 21.4133 804.412 25.28V37H801.412V16.88H804.012L804.052 20.2C804.746 17.72 806.146 16.48 808.252 16.48Z" fill="white"/>
<path d="M589.12 30.6V29.04H592.08V30.84C592.08 33.32 593.16 34.56 595.32 34.56C597.507 34.56 598.6 33.3067 598.6 30.8C598.6 29.5467 598.28 28.4133 597.64 27.4C597.053 26.4133 595.933 25.24 594.28 23.88C592.36 22.3067 591.013 20.88 590.24 19.6C589.493 18.3467 589.12 16.9067 589.12 15.28C589.12 13.1733 589.667 11.5333 590.76 10.36C591.853 9.18667 593.4 8.6 595.4 8.6C597.4 8.6 598.92 9.18667 599.96 10.36C601.027 11.5333 601.56 13.2 601.56 15.36V16.48H598.6V15.16C598.6 12.68 597.533 11.44 595.4 11.44C593.267 11.44 592.2 12.6533 592.2 15.08C592.2 16.2267 592.52 17.28 593.16 18.24C593.8 19.2 594.96 20.36 596.64 21.72C598.587 23.32 599.907 24.7733 600.6 26.08C601.347 27.3333 601.72 28.8267 601.72 30.56C601.72 32.7467 601.16 34.44 600.04 35.64C598.947 36.8133 597.387 37.4 595.36 37.4C593.333 37.4 591.787 36.8133 590.72 35.64C589.653 34.4667 589.12 32.7867 589.12 30.6ZM611.688 37H607.928L603.368 16.88H606.448L609.928 32.96L613.408 16.88H616.248L611.688 37ZM624.269 16.48C626.189 16.48 627.656 17.04 628.669 18.16C629.709 19.28 630.229 20.88 630.229 22.96V27.4H621.349V31.16C621.349 33.5333 622.336 34.72 624.309 34.72C626.309 34.72 627.309 33.5333 627.309 31.16V30.56H630.229V30.88C630.229 32.96 629.709 34.5733 628.669 35.72C627.656 36.84 626.189 37.4 624.269 37.4C622.349 37.4 620.869 36.84 619.829 35.72C618.816 34.5733 618.309 32.96 618.309 30.88V22.96C618.309 20.88 618.816 19.28 619.829 18.16C620.842 17.04 622.322 16.48 624.269 16.48ZM621.349 22.68V24.92H627.269V22.68C627.269 20.3333 626.269 19.16 624.269 19.16C622.322 19.16 621.349 20.3333 621.349 22.68ZM640.594 16.48C643.687 16.48 645.234 18.4133 645.234 22.28V37H642.194V22.68C642.194 20.3333 641.354 19.16 639.674 19.16C638.714 19.16 637.94 19.56 637.354 20.36C636.794 21.1333 636.514 22.2267 636.514 23.64V37H633.514V16.88H636.114L636.154 19.52C636.98 17.4933 638.46 16.48 640.594 16.48ZM653.904 37.4C652.064 37.4 650.624 36.8933 649.584 35.88C648.571 34.84 648.064 33.4133 648.064 31.6V30.92H650.984V31.68C650.984 33.7333 651.904 34.76 653.744 34.76C655.584 34.76 656.504 33.7867 656.504 31.84C656.504 31.2533 656.318 30.7067 655.944 30.2C655.731 29.88 655.478 29.6 655.184 29.36C654.891 29.0933 654.598 28.88 654.304 28.72C654.038 28.56 653.611 28.3333 653.024 28.04C652.038 27.5067 651.451 27.1733 651.264 27.04C650.811 26.7467 650.344 26.3733 649.864 25.92C648.798 24.96 648.264 23.6 648.264 21.84C648.264 20.1867 648.744 18.88 649.704 17.92C650.664 16.96 651.998 16.48 653.704 16.48C655.384 16.48 656.704 16.9867 657.664 18C658.651 18.9867 659.144 20.3467 659.144 22.08V22.48H656.304V22C656.304 20.0533 655.451 19.08 653.744 19.08C652.971 19.08 652.344 19.32 651.864 19.8C651.411 20.28 651.184 20.9467 651.184 21.8C651.184 22.44 651.371 23.0267 651.744 23.56C652.091 24.0133 652.451 24.3733 652.824 24.64C653.224 24.9067 653.878 25.2667 654.784 25.72C656.091 26.3867 657.144 27.0933 657.944 27.84C658.984 28.7733 659.504 30.0933 659.504 31.8C659.504 33.56 659.011 34.9333 658.024 35.92C657.038 36.9067 655.664 37.4 653.904 37.4ZM675.219 37H671.939L667.859 27.36L665.459 30.92V37H662.459V9H665.459V26.68L671.739 16.88H674.979L669.939 24.44L675.219 37ZM689.093 37H686.333C686.199 36.4933 686.093 35.5867 686.013 34.28C685.186 36.36 683.626 37.4 681.333 37.4C679.946 37.4 678.853 36.96 678.053 36.08C677.253 35.1733 676.853 33.96 676.853 32.44C676.853 30.8933 677.226 29.6267 677.973 28.64C678.746 27.6267 680.039 26.6933 681.853 25.84C683.506 25.0933 684.559 24.5333 685.013 24.16C685.439 23.8133 685.653 23.28 685.653 22.56V22.08C685.653 20.08 684.786 19.08 683.053 19.08C682.173 19.08 681.479 19.3467 680.973 19.88C680.493 20.4133 680.253 21.1733 680.253 22.16V22.76H677.413V22.32C677.413 20.4533 677.906 19.0133 678.893 18C679.879 16.9867 681.279 16.48 683.093 16.48C686.799 16.48 688.653 18.5067 688.653 22.56V31.52C688.653 33.8667 688.799 35.6933 689.093 37ZM682.373 34.76C683.386 34.76 684.186 34.36 684.773 33.56C685.359 32.76 685.653 31.64 685.653 30.2V26.16C685.359 26.56 684.386 27.1867 682.733 28.04C680.839 29 679.893 30.32 679.893 32C679.893 33.84 680.719 34.76 682.373 34.76Z" fill="white"/>
<path d="M461 6.92H458.52L461.36 1.8H464.84L461 6.92ZM462.04 37H458.92V9H462.04V37ZM470.834 37.4C468.994 37.4 467.554 36.8933 466.514 35.88C465.501 34.84 464.994 33.4133 464.994 31.6V30.92H467.914V31.68C467.914 33.7333 468.834 34.76 470.674 34.76C472.514 34.76 473.434 33.7867 473.434 31.84C473.434 31.2533 473.247 30.7067 472.874 30.2C472.661 29.88 472.407 29.6 472.114 29.36C471.821 29.0933 471.527 28.88 471.234 28.72C470.967 28.56 470.541 28.3333 469.954 28.04C468.967 27.5067 468.381 27.1733 468.194 27.04C467.741 26.7467 467.274 26.3733 466.794 25.92C465.727 24.96 465.194 23.6 465.194 21.84C465.194 20.1867 465.674 18.88 466.634 17.92C467.594 16.96 468.927 16.48 470.634 16.48C472.314 16.48 473.634 16.9867 474.594 18C475.581 18.9867 476.074 20.3467 476.074 22.08V22.48H473.234V22C473.234 20.0533 472.381 19.08 470.674 19.08C469.901 19.08 469.274 19.32 468.794 19.8C468.341 20.28 468.114 20.9467 468.114 21.8C468.114 22.44 468.301 23.0267 468.674 23.56C469.021 24.0133 469.381 24.3733 469.754 24.64C470.154 24.9067 470.807 25.2667 471.714 25.72C473.021 26.3867 474.074 27.0933 474.874 27.84C475.914 28.7733 476.434 30.0933 476.434 31.8C476.434 33.56 475.941 34.9333 474.954 35.92C473.967 36.9067 472.594 37.4 470.834 37.4ZM482.389 37H479.389V9H482.389V37ZM491.785 16.48C493.705 16.48 495.171 17.04 496.185 18.16C497.225 19.28 497.745 20.88 497.745 22.96V27.4H488.865V31.16C488.865 33.5333 489.851 34.72 491.825 34.72C493.825 34.72 494.825 33.5333 494.825 31.16V30.56H497.745V30.88C497.745 32.96 497.225 34.5733 496.185 35.72C495.171 36.84 493.705 37.4 491.785 37.4C489.865 37.4 488.385 36.84 487.345 35.72C486.331 34.5733 485.825 32.96 485.825 30.88V22.96C485.825 20.88 486.331 19.28 487.345 18.16C488.358 17.04 489.838 16.48 491.785 16.48ZM488.865 22.68V24.92H494.785V22.68C494.785 20.3333 493.785 19.16 491.785 19.16C489.838 19.16 488.865 20.3333 488.865 22.68ZM508.109 16.48C511.203 16.48 512.749 18.4133 512.749 22.28V37H509.709V22.68C509.709 20.3333 508.869 19.16 507.189 19.16C506.229 19.16 505.456 19.56 504.869 20.36C504.309 21.1333 504.029 22.2267 504.029 23.64V37H501.029V16.88H503.629L503.669 19.52C504.496 17.4933 505.976 16.48 508.109 16.48ZM521.42 37.4C519.58 37.4 518.14 36.8933 517.1 35.88C516.087 34.84 515.58 33.4133 515.58 31.6V30.92H518.5V31.68C518.5 33.7333 519.42 34.76 521.26 34.76C523.1 34.76 524.02 33.7867 524.02 31.84C524.02 31.2533 523.833 30.7067 523.46 30.2C523.247 29.88 522.993 29.6 522.7 29.36C522.407 29.0933 522.113 28.88 521.82 28.72C521.553 28.56 521.127 28.3333 520.54 28.04C519.553 27.5067 518.967 27.1733 518.78 27.04C518.327 26.7467 517.86 26.3733 517.38 25.92C516.313 24.96 515.78 23.6 515.78 21.84C515.78 20.1867 516.26 18.88 517.22 17.92C518.18 16.96 519.513 16.48 521.22 16.48C522.9 16.48 524.22 16.9867 525.18 18C526.167 18.9867 526.66 20.3467 526.66 22.08V22.48H523.82V22C523.82 20.0533 522.967 19.08 521.26 19.08C520.487 19.08 519.86 19.32 519.38 19.8C518.927 20.28 518.7 20.9467 518.7 21.8C518.7 22.44 518.887 23.0267 519.26 23.56C519.607 24.0133 519.967 24.3733 520.34 24.64C520.74 24.9067 521.393 25.2667 522.3 25.72C523.607 26.3867 524.66 27.0933 525.46 27.84C526.5 28.7733 527.02 30.0933 527.02 31.8C527.02 33.56 526.527 34.9333 525.54 35.92C524.553 36.9067 523.18 37.4 521.42 37.4ZM542.735 37H539.455L535.375 27.36L532.975 30.92V37H529.975V9H532.975V26.68L539.255 16.88H542.495L537.455 24.44L542.735 37ZM556.608 37H553.848C553.715 36.4933 553.608 35.5867 553.528 34.28C552.701 36.36 551.141 37.4 548.848 37.4C547.461 37.4 546.368 36.96 545.568 36.08C544.768 35.1733 544.368 33.96 544.368 32.44C544.368 30.8933 544.741 29.6267 545.488 28.64C546.261 27.6267 547.555 26.6933 549.368 25.84C551.021 25.0933 552.075 24.5333 552.528 24.16C552.955 23.8133 553.168 23.28 553.168 22.56V22.08C553.168 20.08 552.301 19.08 550.568 19.08C549.688 19.08 548.995 19.3467 548.488 19.88C548.008 20.4133 547.768 21.1733 547.768 22.16V22.76H544.928V22.32C544.928 20.4533 545.421 19.0133 546.408 18C547.395 16.9867 548.795 16.48 550.608 16.48C554.315 16.48 556.168 18.5067 556.168 22.56V31.52C556.168 33.8667 556.315 35.6933 556.608 37ZM549.888 34.76C550.901 34.76 551.701 34.36 552.288 33.56C552.875 32.76 553.168 31.64 553.168 30.2V26.16C552.875 26.56 551.901 27.1867 550.248 28.04C548.355 29 547.408 30.32 547.408 32C547.408 33.84 548.235 34.76 549.888 34.76Z" fill="white"/>
<path d="M400.12 156.6V155.04H403.08V156.84C403.08 159.32 404.16 160.56 406.32 160.56C408.507 160.56 409.6 159.307 409.6 156.8C409.6 155.547 409.28 154.413 408.64 153.4C408.053 152.413 406.933 151.24 405.28 149.88C403.36 148.307 402.013 146.88 401.24 145.6C400.493 144.347 400.12 142.907 400.12 141.28C400.12 139.173 400.667 137.533 401.76 136.36C402.853 135.187 404.4 134.6 406.4 134.6C408.4 134.6 409.92 135.187 410.96 136.36C412.027 137.533 412.56 139.2 412.56 141.36V142.48H409.6V141.16C409.6 138.68 408.533 137.44 406.4 137.44C404.267 137.44 403.2 138.653 403.2 141.08C403.2 142.227 403.52 143.28 404.16 144.24C404.8 145.2 405.96 146.36 407.64 147.72C409.587 149.32 410.907 150.773 411.6 152.08C412.347 153.333 412.72 154.827 412.72 156.56C412.72 158.747 412.16 160.44 411.04 161.64C409.947 162.813 408.387 163.4 406.36 163.4C404.333 163.4 402.787 162.813 401.72 161.64C400.653 160.467 400.12 158.787 400.12 156.6ZM424.246 156.24V142.88H427.246V163H424.646L424.606 160.32C423.752 162.373 422.272 163.4 420.166 163.4C417.072 163.4 415.526 161.453 415.526 157.56V142.88H418.566V157.2C418.566 159.547 419.406 160.72 421.086 160.72C422.046 160.72 422.806 160.333 423.366 159.56C423.952 158.76 424.246 157.653 424.246 156.24ZM436.596 163.4C434.676 163.4 433.21 162.84 432.196 161.72C431.183 160.573 430.676 158.96 430.676 156.88V148.96C430.676 146.88 431.183 145.28 432.196 144.16C433.21 143.04 434.676 142.48 436.596 142.48C438.49 142.48 439.943 143.04 440.956 144.16C441.996 145.28 442.516 146.88 442.516 148.96V156.88C442.516 158.96 441.996 160.573 440.956 161.72C439.943 162.84 438.49 163.4 436.596 163.4ZM436.596 160.72C438.516 160.72 439.476 159.533 439.476 157.16V148.68C439.476 146.333 438.516 145.16 436.596 145.16C434.65 145.16 433.676 146.333 433.676 148.68V157.16C433.676 159.533 434.65 160.72 436.596 160.72ZM461.32 142.48C464.333 142.48 465.84 144.36 465.84 148.12V163H462.84V148.32C462.84 146.213 462.04 145.16 460.44 145.16C459.533 145.16 458.8 145.56 458.24 146.36C457.68 147.133 457.4 148.227 457.4 149.64V163H454.36V148.32C454.36 146.213 453.56 145.16 451.96 145.16C451.053 145.16 450.32 145.56 449.76 146.36C449.2 147.133 448.92 148.227 448.92 149.64V163H445.92V142.88H448.52L448.56 145.52C449.387 143.493 450.827 142.48 452.88 142.48C455.04 142.48 456.427 143.467 457.04 145.44C457.893 143.467 459.32 142.48 461.32 142.48ZM472.514 140H469.514V135.68H472.514V140ZM472.514 163H469.514V142.88H472.514V163Z" fill="white"/>
<path d="M608.68 157.52L614.76 142.88H617.88V163H615.12V148.36L609.04 163H605.92V142.88H608.68V157.52ZM634.825 163H631.785V145.44H627.025V142.88H639.625V145.44H634.825V163ZM653.413 163H650.653C650.519 162.493 650.413 161.587 650.333 160.28C649.506 162.36 647.946 163.4 645.653 163.4C644.266 163.4 643.173 162.96 642.373 162.08C641.573 161.173 641.173 159.96 641.173 158.44C641.173 156.893 641.546 155.627 642.293 154.64C643.066 153.627 644.359 152.693 646.173 151.84C647.826 151.093 648.879 150.533 649.333 150.16C649.759 149.813 649.973 149.28 649.973 148.56V148.08C649.973 146.08 649.106 145.08 647.373 145.08C646.493 145.08 645.799 145.347 645.293 145.88C644.813 146.413 644.573 147.173 644.573 148.16V148.76H641.733V148.32C641.733 146.453 642.226 145.013 643.213 144C644.199 142.987 645.599 142.48 647.413 142.48C651.119 142.48 652.973 144.507 652.973 148.56V157.52C652.973 159.867 653.119 161.693 653.413 163ZM646.693 160.76C647.706 160.76 648.506 160.36 649.093 159.56C649.679 158.76 649.973 157.64 649.973 156.2V152.16C649.679 152.56 648.706 153.187 647.053 154.04C645.159 155 644.213 156.32 644.213 158C644.213 159.84 645.039 160.76 646.693 160.76ZM669.5 163H666.22L662.1 153.36L659.74 156.88V163H656.7V142.88H659.74V152.68L665.98 142.88H669.26L664.18 150.44L669.5 163ZM691.537 142.88V160.4H693.417V166.76H690.417V163H680.337V166.76H677.337V160.4H679.497C680.057 159.893 680.377 158.92 680.457 157.48L681.217 142.88H691.537ZM682.377 160.4H688.537V145.44H684.057L683.497 157.28C683.417 158.72 683.044 159.76 682.377 160.4ZM707.436 163H704.676C704.543 162.493 704.436 161.587 704.356 160.28C703.53 162.36 701.97 163.4 699.676 163.4C698.29 163.4 697.196 162.96 696.396 162.08C695.596 161.173 695.196 159.96 695.196 158.44C695.196 156.893 695.57 155.627 696.316 154.64C697.09 153.627 698.383 152.693 700.196 151.84C701.85 151.093 702.903 150.533 703.356 150.16C703.783 149.813 703.996 149.28 703.996 148.56V148.08C703.996 146.08 703.13 145.08 701.396 145.08C700.516 145.08 699.823 145.347 699.316 145.88C698.836 146.413 698.596 147.173 698.596 148.16V148.76H695.756V148.32C695.756 146.453 696.25 145.013 697.236 144C698.223 142.987 699.623 142.48 701.436 142.48C705.143 142.48 706.996 144.507 706.996 148.56V157.52C706.996 159.867 707.143 161.693 707.436 163ZM700.716 160.76C701.73 160.76 702.53 160.36 703.116 159.56C703.703 158.76 703.996 157.64 703.996 156.2V152.16C703.703 152.56 702.73 153.187 701.076 154.04C699.183 155 698.236 156.32 698.236 158C698.236 159.84 699.063 160.76 700.716 160.76ZM711.044 163.12C710.404 163.12 709.91 163.053 709.564 162.92V160.28C709.884 160.36 710.257 160.4 710.684 160.4C711.404 160.4 711.924 160.2 712.244 159.8C712.59 159.373 712.79 158.64 712.844 157.6L713.524 142.88H723.924V163H720.884V145.6H716.404L715.804 157.96C715.724 159.72 715.297 161.027 714.524 161.88C713.777 162.707 712.617 163.12 711.044 163.12ZM733.277 142.48C735.197 142.48 736.664 143.04 737.677 144.16C738.717 145.28 739.237 146.88 739.237 148.96V153.4H730.357V157.16C730.357 159.533 731.344 160.72 733.317 160.72C735.317 160.72 736.317 159.533 736.317 157.16V156.56H739.237V156.88C739.237 158.96 738.717 160.573 737.677 161.72C736.664 162.84 735.197 163.4 733.277 163.4C731.357 163.4 729.877 162.84 728.837 161.72C727.824 160.573 727.317 158.96 727.317 156.88V148.96C727.317 146.88 727.824 145.28 728.837 144.16C729.85 143.04 731.33 142.48 733.277 142.48ZM730.357 148.68V150.92H736.277V148.68C736.277 146.333 735.277 145.16 733.277 145.16C731.33 145.16 730.357 146.333 730.357 148.68ZM748.082 142.48C750.002 142.48 751.468 143.04 752.482 144.16C753.522 145.28 754.042 146.88 754.042 148.96V153.4H745.162V157.16C745.162 159.533 746.148 160.72 748.122 160.72C750.122 160.72 751.122 159.533 751.122 157.16V156.56H754.042V156.88C754.042 158.96 753.522 160.573 752.482 161.72C751.468 162.84 750.002 163.4 748.082 163.4C746.162 163.4 744.682 162.84 743.642 161.72C742.628 160.573 742.122 158.96 742.122 156.88V148.96C742.122 146.88 742.628 145.28 743.642 144.16C744.655 143.04 746.135 142.48 748.082 142.48ZM745.162 148.68V150.92H751.082V148.68C751.082 146.333 750.082 145.16 748.082 145.16C746.135 145.16 745.162 146.333 745.162 148.68ZM760.646 163H757.486V158.96H760.646V163ZM767.951 163H764.791V158.96H767.951V163ZM775.256 163H772.096V158.96H775.256V163Z" fill="#FFC700"/>
<path d="M285.76 163H282.64V137.84H277.68V135H290.72V137.84H285.76V163ZM293.259 135.68H296.059V140H293.259V135.68ZM298.299 135.68H301.099V140H298.299V135.68ZM300.019 156.24V142.88H303.019V163H300.419L300.379 160.32C299.526 162.373 298.046 163.4 295.939 163.4C292.846 163.4 291.299 161.453 291.299 157.56V142.88H294.339V157.2C294.339 159.547 295.179 160.72 296.859 160.72C297.819 160.72 298.579 160.333 299.139 159.56C299.726 158.76 300.019 157.653 300.019 156.24ZM313.69 142.48C314.25 142.48 314.69 142.56 315.01 142.72V145.68C314.61 145.547 314.196 145.48 313.77 145.48C311.156 145.48 309.85 147.413 309.85 151.28V163H306.85V142.88H309.45L309.49 146.2C310.183 143.72 311.583 142.48 313.69 142.48ZM330.157 163H326.877L322.797 153.36L320.397 156.92V163H317.397V135H320.397V152.68L326.677 142.88H329.917L324.877 150.44L330.157 163ZM343.519 148.88V149.76H340.599V148.6C340.599 146.307 339.653 145.16 337.759 145.16C335.866 145.16 334.919 146.307 334.919 148.6V157.24C334.919 159.56 335.866 160.72 337.759 160.72C339.653 160.72 340.599 159.56 340.599 157.24V155.68H343.519V156.96C343.519 158.88 343.093 160.387 342.239 161.48C341.413 162.573 340.186 163.2 338.559 163.36V164.76C340.346 164.76 341.239 165.427 341.239 166.76C341.239 167.693 340.946 168.333 340.359 168.68C339.773 169.027 338.839 169.2 337.559 169.2C335.186 169.2 333.999 168.413 333.999 166.84V166.52H336.239V166.84C336.239 167.48 336.666 167.8 337.519 167.8C338.479 167.8 338.959 167.44 338.959 166.72C338.959 166 338.439 165.64 337.399 165.64H336.999V163.36C335.319 163.227 334.039 162.613 333.159 161.52C332.306 160.4 331.879 158.88 331.879 156.96V148.88C331.879 146.8 332.373 145.213 333.359 144.12C334.373 143.027 335.839 142.48 337.759 142.48C339.653 142.48 341.079 143.04 342.039 144.16C343.026 145.253 343.519 146.827 343.519 148.88ZM352.293 142.48C354.213 142.48 355.679 143.04 356.693 144.16C357.733 145.28 358.253 146.88 358.253 148.96V153.4H349.373V157.16C349.373 159.533 350.359 160.72 352.333 160.72C354.333 160.72 355.333 159.533 355.333 157.16V156.56H358.253V156.88C358.253 158.96 357.733 160.573 356.693 161.72C355.679 162.84 354.213 163.4 352.293 163.4C350.373 163.4 348.893 162.84 347.853 161.72C346.839 160.573 346.333 158.96 346.333 156.88V148.96C346.333 146.88 346.839 145.28 347.853 144.16C348.866 143.04 350.346 142.48 352.293 142.48ZM349.373 148.68V150.92H355.293V148.68C355.293 146.333 354.293 145.16 352.293 145.16C350.346 145.16 349.373 146.333 349.373 148.68Z" fill="white"/>
<path d="M650.76 100H647.64V74.84H642.68V72H655.72V74.84H650.76V100ZM661.295 77H658.295V72.68H661.295V77ZM661.295 100H658.295V79.88H661.295V100ZM672.891 77.4L670.651 74.04L668.451 77.4H665.971L669.091 72.28H672.251L675.331 77.4H672.891ZM670.691 79.48C672.611 79.48 674.078 80.04 675.091 81.16C676.131 82.28 676.651 83.88 676.651 85.96V90.4H667.771V94.16C667.771 96.5333 668.758 97.72 670.731 97.72C672.731 97.72 673.731 96.5333 673.731 94.16V93.56H676.651V93.88C676.651 95.96 676.131 97.5733 675.091 98.72C674.078 99.84 672.611 100.4 670.691 100.4C668.771 100.4 667.291 99.84 666.251 98.72C665.238 97.5733 664.731 95.96 664.731 93.88V85.96C664.731 83.88 665.238 82.28 666.251 81.16C667.264 80.04 668.744 79.48 670.691 79.48ZM667.771 85.68V87.92H673.691V85.68C673.691 83.3333 672.691 82.16 670.691 82.16C668.744 82.16 667.771 83.3333 667.771 85.68ZM671.153 69.4H668.673L671.513 64.28H674.993L671.153 69.4ZM687.016 79.48C690.109 79.48 691.656 81.4133 691.656 85.28V100H688.616V85.68C688.616 83.3333 687.776 82.16 686.096 82.16C685.136 82.16 684.362 82.56 683.776 83.36C683.216 84.1333 682.936 85.2267 682.936 86.64V100H679.936V79.88H682.536L682.576 82.52C683.402 80.4933 684.882 79.48 687.016 79.48ZM704.126 82.56L704.166 79.88H706.766V100.6C706.766 102.627 706.3 104.133 705.366 105.12C704.433 106.107 702.94 106.6 700.886 106.6C697.046 106.6 695.126 104.88 695.126 101.44V101.28H698.006V101.56C698.006 103.24 698.953 104.08 700.846 104.08C702.793 104.08 703.766 102.987 703.766 100.8V97.12C702.833 98.72 701.46 99.52 699.646 99.52C696.526 99.52 694.966 97.5733 694.966 93.68V85.28C694.966 81.4133 696.526 79.48 699.646 79.48C701.78 79.48 703.273 80.5067 704.126 82.56ZM700.566 96.84C701.526 96.84 702.3 96.4533 702.886 95.68C703.473 94.88 703.766 93.7733 703.766 92.36V86.64C703.766 85.2267 703.473 84.1333 702.886 83.36C702.3 82.56 701.526 82.16 700.566 82.16C698.833 82.16 697.966 83.28 697.966 85.52V93.44C697.966 95.7067 698.833 96.84 700.566 96.84ZM725.083 100H720.923L715.923 72H719.083L723.123 95.76L727.163 72H730.043L725.083 100ZM735.631 77H732.631V72.68H735.631V77ZM735.631 100H732.631V79.88H735.631V100ZM749.227 78.16C751.067 78.16 752.64 78.56 753.947 79.36C755.28 80.16 756.294 81.2933 756.987 82.76C757.707 84.2 758.067 85.8933 758.067 87.84V89.96H743.387C743.44 92.3867 744.054 94.24 745.227 95.52C746.427 96.7733 748.094 97.4 750.227 97.4C751.587 97.4 752.787 97.28 753.827 97.04C754.894 96.7733 755.987 96.4 757.107 95.92V99C756.014 99.48 754.934 99.8267 753.867 100.04C752.8 100.28 751.534 100.4 750.067 100.4C748.04 100.4 746.24 99.9867 744.667 99.16C743.12 98.3333 741.907 97.1067 741.027 95.48C740.174 93.8267 739.747 91.8133 739.747 89.44C739.747 87.0933 740.134 85.08 740.907 83.4C741.707 81.72 742.814 80.4267 744.227 79.52C745.667 78.6133 747.334 78.16 749.227 78.16ZM749.187 81.04C747.507 81.04 746.174 81.5867 745.187 82.68C744.227 83.7467 743.654 85.24 743.467 87.16H754.387C754.387 85.9333 754.2 84.8667 753.827 83.96C753.454 83.0533 752.88 82.3467 752.107 81.84C751.36 81.3067 750.387 81.04 749.187 81.04ZM750.787 69.36C751.107 69.9467 751.56 70.6133 752.147 71.36C752.76 72.08 753.387 72.8 754.027 73.52C754.694 74.2133 755.28 74.8133 755.787 75.32V75.76H753.307C752.614 75.3333 751.894 74.8133 751.147 74.2C750.4 73.56 749.667 72.88 748.947 72.16C748.227 72.88 747.507 73.5467 746.787 74.16C746.067 74.7733 745.36 75.3067 744.667 75.76H742.267V75.32C742.774 74.7867 743.334 74.1733 743.947 73.48C744.587 72.7867 745.2 72.08 745.787 71.36C746.374 70.6133 746.84 69.9467 747.187 69.36H750.787ZM749.547 107.04C748.987 107.04 748.494 106.853 748.067 106.48C747.667 106.107 747.467 105.547 747.467 104.8C747.467 104.027 747.667 103.453 748.067 103.08C748.494 102.733 748.987 102.56 749.547 102.56C750.107 102.56 750.587 102.733 750.987 103.08C751.414 103.453 751.627 104.027 751.627 104.8C751.627 105.547 751.414 106.107 750.987 106.48C750.587 106.853 750.107 107.04 749.547 107.04ZM769.925 79.88V82.44H766.285V95.48C766.285 96.28 766.432 96.8533 766.725 97.2C767.018 97.5467 767.525 97.72 768.245 97.72C768.805 97.72 769.365 97.6133 769.925 97.4V100C769.365 100.267 768.618 100.4 767.685 100.4C764.725 100.4 763.245 98.8667 763.245 95.8V82.44H760.765V79.88H763.365L763.685 74.08H766.285V79.88H769.925Z" fill="white"/>
<path d="M360.76 37H357.92V9H361.92L368.24 29V9H371.08V37H367.84L360.76 14.24V37ZM380.432 37.4C378.512 37.4 377.046 36.84 376.032 35.72C375.019 34.5733 374.512 32.96 374.512 30.88V22.96C374.512 20.88 375.019 19.28 376.032 18.16C377.046 17.04 378.512 16.48 380.432 16.48C382.326 16.48 383.779 17.04 384.792 18.16C385.832 19.28 386.352 20.88 386.352 22.96V30.88C386.352 32.96 385.832 34.5733 384.792 35.72C383.779 36.84 382.326 37.4 380.432 37.4ZM380.432 34.72C382.352 34.72 383.312 33.5333 383.312 31.16V22.68C383.312 20.3333 382.352 19.16 380.432 19.16C378.486 19.16 377.512 20.3333 377.512 22.68V31.16C377.512 33.5333 378.486 34.72 380.432 34.72ZM396.596 16.48C397.156 16.48 397.596 16.56 397.916 16.72V19.68C397.516 19.5467 397.103 19.48 396.676 19.48C394.063 19.48 392.756 21.4133 392.756 25.28V37H389.756V16.88H392.356L392.396 20.2C393.089 17.72 394.489 16.48 396.596 16.48ZM405.186 37.4C403.346 37.4 401.906 36.8933 400.866 35.88C399.852 34.84 399.346 33.4133 399.346 31.6V30.92H402.266V31.68C402.266 33.7333 403.186 34.76 405.026 34.76C406.866 34.76 407.786 33.7867 407.786 31.84C407.786 31.2533 407.599 30.7067 407.226 30.2C407.012 29.88 406.759 29.6 406.466 29.36C406.172 29.0933 405.879 28.88 405.586 28.72C405.319 28.56 404.892 28.3333 404.306 28.04C403.319 27.5067 402.732 27.1733 402.546 27.04C402.092 26.7467 401.626 26.3733 401.146 25.92C400.079 24.96 399.546 23.6 399.546 21.84C399.546 20.1867 400.026 18.88 400.986 17.92C401.946 16.96 403.279 16.48 404.986 16.48C406.666 16.48 407.986 16.9867 408.946 18C409.932 18.9867 410.426 20.3467 410.426 22.08V22.48H407.586V22C407.586 20.0533 406.732 19.08 405.026 19.08C404.252 19.08 403.626 19.32 403.146 19.8C402.692 20.28 402.466 20.9467 402.466 21.8C402.466 22.44 402.652 23.0267 403.026 23.56C403.372 24.0133 403.732 24.3733 404.106 24.64C404.506 24.9067 405.159 25.2667 406.066 25.72C407.372 26.3867 408.426 27.0933 409.226 27.84C410.266 28.7733 410.786 30.0933 410.786 31.8C410.786 33.56 410.292 34.9333 409.306 35.92C408.319 36.9067 406.946 37.4 405.186 37.4ZM426.5 37H423.22L419.14 27.36L416.74 30.92V37H413.74V9H416.74V26.68L423.02 16.88H426.26L421.22 24.44L426.5 37Z" fill="white"/>
<path d="M259.32 37H252.92V9H259.32C263.533 9 265.64 11.2667 265.64 15.8V30.2C265.64 34.7333 263.533 37 259.32 37ZM256.04 11.84V34.16H259.24C260.36 34.16 261.187 33.8667 261.72 33.28C262.253 32.6667 262.52 31.68 262.52 30.32V15.64C262.52 14.3067 262.253 13.3467 261.72 12.76C261.213 12.1467 260.387 11.84 259.24 11.84H256.04ZM280.725 37H277.965C277.832 36.4933 277.725 35.5867 277.645 34.28C276.819 36.36 275.259 37.4 272.965 37.4C271.579 37.4 270.485 36.96 269.685 36.08C268.885 35.1733 268.485 33.96 268.485 32.44C268.485 30.8933 268.859 29.6267 269.605 28.64C270.379 27.6267 271.672 26.6933 273.485 25.84C275.139 25.0933 276.192 24.5333 276.645 24.16C277.072 23.8133 277.285 23.28 277.285 22.56V22.08C277.285 20.08 276.419 19.08 274.685 19.08C273.805 19.08 273.112 19.3467 272.605 19.88C272.125 20.4133 271.885 21.1733 271.885 22.16V22.76H269.045V22.32C269.045 20.4533 269.539 19.0133 270.525 18C271.512 16.9867 272.912 16.48 274.725 16.48C278.432 16.48 280.285 18.5067 280.285 22.56V31.52C280.285 33.8667 280.432 35.6933 280.725 37ZM274.005 34.76C275.019 34.76 275.819 34.36 276.405 33.56C276.992 32.76 277.285 31.64 277.285 30.2V26.16C276.992 26.56 276.019 27.1867 274.365 28.04C272.472 29 271.525 30.32 271.525 32C271.525 33.84 272.352 34.76 274.005 34.76ZM291.133 16.48C294.226 16.48 295.773 18.4133 295.773 22.28V37H292.733V22.68C292.733 20.3333 291.893 19.16 290.213 19.16C289.253 19.16 288.479 19.56 287.893 20.36C287.333 21.1333 287.053 22.2267 287.053 23.64V37H284.053V16.88H286.653L286.693 19.52C287.519 17.4933 288.999 16.48 291.133 16.48ZM304.443 37.4C302.603 37.4 301.163 36.8933 300.123 35.88C299.11 34.84 298.603 33.4133 298.603 31.6V30.92H301.523V31.68C301.523 33.7333 302.443 34.76 304.283 34.76C306.123 34.76 307.043 33.7867 307.043 31.84C307.043 31.2533 306.857 30.7067 306.483 30.2C306.27 29.88 306.017 29.6 305.723 29.36C305.43 29.0933 305.137 28.88 304.843 28.72C304.577 28.56 304.15 28.3333 303.563 28.04C302.577 27.5067 301.99 27.1733 301.803 27.04C301.35 26.7467 300.883 26.3733 300.403 25.92C299.337 24.96 298.803 23.6 298.803 21.84C298.803 20.1867 299.283 18.88 300.243 17.92C301.203 16.96 302.537 16.48 304.243 16.48C305.923 16.48 307.243 16.9867 308.203 18C309.19 18.9867 309.683 20.3467 309.683 22.08V22.48H306.843V22C306.843 20.0533 305.99 19.08 304.283 19.08C303.51 19.08 302.883 19.32 302.403 19.8C301.95 20.28 301.723 20.9467 301.723 21.8C301.723 22.44 301.91 23.0267 302.283 23.56C302.63 24.0133 302.99 24.3733 303.363 24.64C303.763 24.9067 304.417 25.2667 305.323 25.72C306.63 26.3867 307.683 27.0933 308.483 27.84C309.523 28.7733 310.043 30.0933 310.043 31.8C310.043 33.56 309.55 34.9333 308.563 35.92C307.577 36.9067 306.203 37.4 304.443 37.4ZM325.758 37H322.478L318.398 27.36L315.998 30.92V37H312.998V9H315.998V26.68L322.278 16.88H325.518L320.478 24.44L325.758 37Z" fill="white"/>
<path d="M5.04 100H1.92V72H8.04C12.2533 72 14.36 74.2667 14.36 78.8V81.2C14.36 85.7067 12.2533 87.96 8.04 87.96H5.04V100ZM5.04 74.84V85.12H8.04C9.16 85.12 9.97333 84.84 10.48 84.28C10.9867 83.6933 11.24 82.72 11.24 81.36V78.6C11.24 77.24 10.9867 76.28 10.48 75.72C9.97333 75.1333 9.16 74.84 8.04 74.84H5.04ZM22.7525 100.4C20.8325 100.4 19.3658 99.84 18.3525 98.72C17.3392 97.5733 16.8325 95.96 16.8325 93.88V85.96C16.8325 83.88 17.3392 82.28 18.3525 81.16C19.3658 80.04 20.8325 79.48 22.7525 79.48C24.6458 79.48 26.0992 80.04 27.1125 81.16C28.1525 82.28 28.6725 83.88 28.6725 85.96V93.88C28.6725 95.96 28.1525 97.5733 27.1125 98.72C26.0992 99.84 24.6458 100.4 22.7525 100.4ZM22.7525 97.72C24.6725 97.72 25.6325 96.5333 25.6325 94.16V85.68C25.6325 83.3333 24.6725 82.16 22.7525 82.16C20.8058 82.16 19.8325 83.3333 19.8325 85.68V94.16C19.8325 96.5333 20.8058 97.72 22.7525 97.72ZM35.0763 100H32.0763V72H35.0763V100ZM43.9122 100.4C42.0722 100.4 40.6322 99.8933 39.5922 98.88C38.5789 97.84 38.0722 96.4133 38.0722 94.6V93.92H40.9922V94.68C40.9922 96.7333 41.9122 97.76 43.7522 97.76C45.5922 97.76 46.5122 96.7867 46.5122 94.84C46.5122 94.2533 46.3255 93.7067 45.9522 93.2C45.7389 92.88 45.4855 92.6 45.1922 92.36C44.8989 92.0933 44.6055 91.88 44.3122 91.72C44.0455 91.56 43.6189 91.3333 43.0322 91.04C42.0455 90.5067 41.4589 90.1733 41.2722 90.04C40.8189 89.7467 40.3522 89.3733 39.8722 88.92C38.8055 87.96 38.2722 86.6 38.2722 84.84C38.2722 83.1867 38.7522 81.88 39.7122 80.92C40.6722 79.96 42.0055 79.48 43.7122 79.48C45.3922 79.48 46.7122 79.9867 47.6722 81C48.6589 81.9867 49.1522 83.3467 49.1522 85.08V85.48H46.3122V85C46.3122 83.0533 45.4589 82.08 43.7522 82.08C42.9789 82.08 42.3522 82.32 41.8722 82.8C41.4189 83.28 41.1922 83.9467 41.1922 84.8C41.1922 85.44 41.3789 86.0267 41.7522 86.56C42.0989 87.0133 42.4589 87.3733 42.8322 87.64C43.2322 87.9067 43.8855 88.2667 44.7922 88.72C46.0989 89.3867 47.1522 90.0933 47.9522 90.84C48.9922 91.7733 49.5122 93.0933 49.5122 94.8C49.5122 96.56 49.0189 97.9333 48.0322 98.92C47.0455 99.9067 45.6722 100.4 43.9122 100.4ZM65.2269 100H61.9469L57.8669 90.36L55.4669 93.92V100H52.4669V72H55.4669V89.68L61.7469 79.88H64.9869L59.9469 87.44L65.2269 100ZM70.7794 77H67.7794V72.68H70.7794V77ZM70.7794 100H67.7794V79.88H70.7794V100Z" fill="white"/>
<path d="M524.04 100H520.92V72H524.04V100ZM535.714 79.88V82.44H532.074V95.48C532.074 96.28 532.221 96.8533 532.514 97.2C532.807 97.5467 533.314 97.72 534.034 97.72C534.594 97.72 535.154 97.6133 535.714 97.4V100C535.154 100.267 534.407 100.4 533.474 100.4C530.514 100.4 529.034 98.8667 529.034 95.8V82.44H526.554V79.88H529.154L529.474 74.08H532.074V79.88H535.714ZM549.78 100H547.02C546.887 99.4933 546.78 98.5867 546.7 97.28C545.873 99.36 544.313 100.4 542.02 100.4C540.633 100.4 539.54 99.96 538.74 99.08C537.94 98.1733 537.54 96.96 537.54 95.44C537.54 93.8933 537.913 92.6267 538.66 91.64C539.433 90.6267 540.727 89.6933 542.54 88.84C544.193 88.0933 545.247 87.5333 545.7 87.16C546.127 86.8133 546.34 86.28 546.34 85.56V85.08C546.34 83.08 545.473 82.08 543.74 82.08C542.86 82.08 542.167 82.3467 541.66 82.88C541.18 83.4133 540.94 84.1733 540.94 85.16V85.76H538.1V85.32C538.1 83.4533 538.593 82.0133 539.58 81C540.567 79.9867 541.967 79.48 543.78 79.48C547.487 79.48 549.34 81.5067 549.34 85.56V94.52C549.34 96.8667 549.487 98.6933 549.78 100ZM543.06 97.76C544.073 97.76 544.873 97.36 545.46 96.56C546.047 95.76 546.34 94.64 546.34 93.2V89.16C546.047 89.56 545.073 90.1867 543.42 91.04C541.527 92 540.58 93.32 540.58 95C540.58 96.84 541.407 97.76 543.06 97.76ZM556.108 100H553.108V72H556.108V100ZM562.943 77H559.943V72.68H562.943V77ZM562.943 100H559.943V79.88H562.943V100ZM578.139 100H575.379C575.246 99.4933 575.139 98.5867 575.059 97.28C574.233 99.36 572.673 100.4 570.379 100.4C568.993 100.4 567.899 99.96 567.099 99.08C566.299 98.1733 565.899 96.96 565.899 95.44C565.899 93.8933 566.273 92.6267 567.019 91.64C567.793 90.6267 569.086 89.6933 570.899 88.84C572.553 88.0933 573.606 87.5333 574.059 87.16C574.486 86.8133 574.699 86.28 574.699 85.56V85.08C574.699 83.08 573.833 82.08 572.099 82.08C571.219 82.08 570.526 82.3467 570.019 82.88C569.539 83.4133 569.299 84.1733 569.299 85.16V85.76H566.459V85.32C566.459 83.4533 566.953 82.0133 567.939 81C568.926 79.9867 570.326 79.48 572.139 79.48C575.846 79.48 577.699 81.5067 577.699 85.56V94.52C577.699 96.8667 577.846 98.6933 578.139 100ZM571.419 97.76C572.433 97.76 573.233 97.36 573.819 96.56C574.406 95.76 574.699 94.64 574.699 93.2V89.16C574.406 89.56 573.433 90.1867 571.779 91.04C569.886 92 568.939 93.32 568.939 95C568.939 96.84 569.766 97.76 571.419 97.76ZM588.547 79.48C591.64 79.48 593.187 81.4133 593.187 85.28V100H590.147V85.68C590.147 83.3333 589.307 82.16 587.627 82.16C586.667 82.16 585.894 82.56 585.307 83.36C584.747 84.1333 584.467 85.2267 584.467 86.64V100H581.467V79.88H584.067L584.107 82.52C584.934 80.4933 586.414 79.48 588.547 79.48ZM602.378 100.4C600.458 100.4 598.991 99.84 597.978 98.72C596.964 97.5733 596.458 95.96 596.458 93.88V85.96C596.458 83.88 596.964 82.28 597.978 81.16C598.991 80.04 600.458 79.48 602.378 79.48C604.271 79.48 605.724 80.04 606.738 81.16C607.778 82.28 608.298 83.88 608.298 85.96V93.88C608.298 95.96 607.778 97.5733 606.738 98.72C605.724 99.84 604.271 100.4 602.378 100.4ZM602.378 97.72C604.298 97.72 605.258 96.5333 605.258 94.16V85.68C605.258 83.3333 604.298 82.16 602.378 82.16C600.431 82.16 599.458 83.3333 599.458 85.68V94.16C599.458 96.5333 600.431 97.72 602.378 97.72Z" fill="white"/>
<path d="M5.04 163H1.92V135H13.04V137.84H5.04V147.36H11.48V150.2H5.04V163ZM22.3928 142.48C22.9528 142.48 23.3928 142.56 23.7128 142.72V145.68C23.3128 145.547 22.8995 145.48 22.4728 145.48C19.8595 145.48 18.5528 147.413 18.5528 151.28V163H15.5528V142.88H18.1528L18.1928 146.2C18.8861 143.72 20.2861 142.48 22.3928 142.48ZM37.1863 163H34.4263C34.2929 162.493 34.1863 161.587 34.1063 160.28C33.2796 162.36 31.7196 163.4 29.4263 163.4C28.0396 163.4 26.9463 162.96 26.1463 162.08C25.3463 161.173 24.9463 159.96 24.9463 158.44C24.9463 156.893 25.3196 155.627 26.0663 154.64C26.8396 153.627 28.1329 152.693 29.9463 151.84C31.5996 151.093 32.6529 150.533 33.1063 150.16C33.5329 149.813 33.7463 149.28 33.7463 148.56V148.08C33.7463 146.08 32.8796 145.08 31.1463 145.08C30.2663 145.08 29.5729 145.347 29.0663 145.88C28.5863 146.413 28.3463 147.173 28.3463 148.16V148.76H25.5063V148.32C25.5063 146.453 25.9996 145.013 26.9863 144C27.9729 142.987 29.3729 142.48 31.1863 142.48C34.8929 142.48 36.7463 144.507 36.7463 148.56V157.52C36.7463 159.867 36.8929 161.693 37.1863 163ZM30.4663 160.76C31.4796 160.76 32.2796 160.36 32.8663 159.56C33.4529 158.76 33.7463 157.64 33.7463 156.2V152.16C33.4529 152.56 32.4796 153.187 30.8263 154.04C28.9329 155 27.9863 156.32 27.9863 158C27.9863 159.84 28.8129 160.76 30.4663 160.76ZM47.5938 142.48C50.6871 142.48 52.2338 144.413 52.2338 148.28V163H49.1938V148.68C49.1938 146.333 48.3538 145.16 46.6738 145.16C45.7138 145.16 44.9404 145.56 44.3538 146.36C43.7938 147.133 43.5138 148.227 43.5138 149.64V163H40.5138V142.88H43.1138L43.1538 145.52C43.9804 143.493 45.4604 142.48 47.5938 142.48ZM67.1444 148.88V149.76H64.2244V148.6C64.2244 146.307 63.2777 145.16 61.3844 145.16C59.491 145.16 58.5444 146.307 58.5444 148.6V157.24C58.5444 159.56 59.491 160.72 61.3844 160.72C63.2777 160.72 64.2244 159.56 64.2244 157.24V155.68H67.1444V156.96C67.1444 158.88 66.7177 160.387 65.8644 161.48C65.0377 162.573 63.811 163.2 62.1844 163.36V164.76C63.971 164.76 64.8644 165.427 64.8644 166.76C64.8644 167.693 64.571 168.333 63.9844 168.68C63.3977 169.027 62.4644 169.2 61.1844 169.2C58.811 169.2 57.6244 168.413 57.6244 166.84V166.52H59.8644V166.84C59.8644 167.48 60.291 167.8 61.1444 167.8C62.1044 167.8 62.5844 167.44 62.5844 166.72C62.5844 166 62.0644 165.64 61.0244 165.64H60.6244V163.36C58.9444 163.227 57.6644 162.613 56.7844 161.52C55.931 160.4 55.5044 158.88 55.5044 156.96V148.88C55.5044 146.8 55.9977 145.213 56.9844 144.12C57.9977 143.027 59.4644 142.48 61.3844 142.48C63.2777 142.48 64.7044 143.04 65.6644 144.16C66.651 145.253 67.1444 146.827 67.1444 148.88ZM81.6394 163H78.8794C78.746 162.493 78.6394 161.587 78.5594 160.28C77.7327 162.36 76.1727 163.4 73.8794 163.4C72.4927 163.4 71.3994 162.96 70.5994 162.08C69.7994 161.173 69.3994 159.96 69.3994 158.44C69.3994 156.893 69.7727 155.627 70.5194 154.64C71.2927 153.627 72.586 152.693 74.3994 151.84C76.0527 151.093 77.106 150.533 77.5594 150.16C77.986 149.813 78.1994 149.28 78.1994 148.56V148.08C78.1994 146.08 77.3327 145.08 75.5994 145.08C74.7194 145.08 74.026 145.347 73.5194 145.88C73.0394 146.413 72.7994 147.173 72.7994 148.16V148.76H69.9594V148.32C69.9594 146.453 70.4527 145.013 71.4394 144C72.426 142.987 73.826 142.48 75.6394 142.48C79.346 142.48 81.1994 144.507 81.1994 148.56V157.52C81.1994 159.867 81.346 161.693 81.6394 163ZM74.9194 160.76C75.9327 160.76 76.7327 160.36 77.3194 159.56C77.906 158.76 78.1994 157.64 78.1994 156.2V152.16C77.906 152.56 76.9327 153.187 75.2794 154.04C73.386 155 72.4394 156.32 72.4394 158C72.4394 159.84 73.266 160.76 74.9194 160.76ZM87.9669 140H84.9669V135.68H87.9669V140ZM87.9669 163H84.9669V142.88H87.9669V163ZM96.8028 163.4C94.9628 163.4 93.5228 162.893 92.4828 161.88C91.4695 160.84 90.9628 159.413 90.9628 157.6V156.92H93.8828V157.68C93.8828 159.733 94.8028 160.76 96.6428 160.76C98.4828 160.76 99.4028 159.787 99.4028 157.84C99.4028 157.253 99.2161 156.707 98.8428 156.2C98.6295 155.88 98.3761 155.6 98.0828 155.36C97.7895 155.093 97.4961 154.88 97.2028 154.72C96.9361 154.56 96.5095 154.333 95.9228 154.04C94.9361 153.507 94.3495 153.173 94.1628 153.04C93.7095 152.747 93.2428 152.373 92.7628 151.92C91.6961 150.96 91.1628 149.6 91.1628 147.84C91.1628 146.187 91.6428 144.88 92.6028 143.92C93.5628 142.96 94.8961 142.48 96.6028 142.48C98.2828 142.48 99.6028 142.987 100.563 144C101.549 144.987 102.043 146.347 102.043 148.08V148.48H99.2028V148C99.2028 146.053 98.3495 145.08 96.6428 145.08C95.8695 145.08 95.2428 145.32 94.7628 145.8C94.3095 146.28 94.0828 146.947 94.0828 147.8C94.0828 148.44 94.2695 149.027 94.6428 149.56C94.9895 150.013 95.3495 150.373 95.7228 150.64C96.1228 150.907 96.7761 151.267 97.6828 151.72C98.9895 152.387 100.043 153.093 100.843 153.84C101.883 154.773 102.403 156.093 102.403 157.8C102.403 159.56 101.909 160.933 100.923 161.92C99.9361 162.907 98.5628 163.4 96.8028 163.4Z" fill="white"/>
<path d="M156.4 163H144.92V135H156.4V137.84H148.04V146.96H154.84V149.8H148.04V160.16H156.4V163ZM164.178 163.4C162.338 163.4 160.898 162.893 159.858 161.88C158.844 160.84 158.338 159.413 158.338 157.6V156.92H161.258V157.68C161.258 159.733 162.178 160.76 164.018 160.76C165.858 160.76 166.778 159.787 166.778 157.84C166.778 157.253 166.591 156.707 166.218 156.2C166.004 155.88 165.751 155.6 165.458 155.36C165.164 155.093 164.871 154.88 164.578 154.72C164.311 154.56 163.884 154.333 163.298 154.04C162.311 153.507 161.724 153.173 161.538 153.04C161.084 152.747 160.618 152.373 160.138 151.92C159.071 150.96 158.538 149.6 158.538 147.84C158.538 146.187 159.018 144.88 159.978 143.92C160.938 142.96 162.271 142.48 163.978 142.48C165.658 142.48 166.978 142.987 167.938 144C168.924 144.987 169.418 146.347 169.418 148.08V148.48H166.578V148C166.578 146.053 165.724 145.08 164.018 145.08C163.244 145.08 162.618 145.32 162.138 145.8C161.684 146.28 161.458 146.947 161.458 147.8C161.458 148.44 161.644 149.027 162.018 149.56C162.364 150.013 162.724 150.373 163.098 150.64C163.498 150.907 164.151 151.267 165.058 151.72C166.364 152.387 167.418 153.093 168.218 153.84C169.258 154.773 169.778 156.093 169.778 157.8C169.778 159.56 169.284 160.933 168.298 161.92C167.311 162.907 165.938 163.4 164.178 163.4ZM179.853 142.48C182.999 142.48 184.573 144.413 184.573 148.28V157.56C184.573 161.453 182.999 163.4 179.853 163.4C178.039 163.4 176.666 162.6 175.733 161V169.2H172.733V142.88H175.333L175.373 145.6C176.226 143.52 177.719 142.48 179.853 142.48ZM181.533 157.32V148.52C181.533 146.28 180.679 145.16 178.973 145.16C177.986 145.16 177.199 145.56 176.613 146.36C176.026 147.133 175.733 148.227 175.733 149.64V156.24C175.733 157.653 176.026 158.76 176.613 159.56C177.199 160.333 177.986 160.72 178.973 160.72C180.679 160.72 181.533 159.587 181.533 157.32ZM199.444 163H196.684C196.551 162.493 196.444 161.587 196.364 160.28C195.537 162.36 193.977 163.4 191.684 163.4C190.297 163.4 189.204 162.96 188.404 162.08C187.604 161.173 187.204 159.96 187.204 158.44C187.204 156.893 187.577 155.627 188.324 154.64C189.097 153.627 190.391 152.693 192.204 151.84C193.857 151.093 194.911 150.533 195.364 150.16C195.791 149.813 196.004 149.28 196.004 148.56V148.08C196.004 146.08 195.137 145.08 193.404 145.08C192.524 145.08 191.831 145.347 191.324 145.88C190.844 146.413 190.604 147.173 190.604 148.16V148.76H187.764V148.32C187.764 146.453 188.257 145.013 189.244 144C190.231 142.987 191.631 142.48 193.444 142.48C197.151 142.48 199.004 144.507 199.004 148.56V157.52C199.004 159.867 199.151 161.693 199.444 163ZM192.724 160.76C193.737 160.76 194.537 160.36 195.124 159.56C195.711 158.76 196.004 157.64 196.004 156.2V152.16C195.711 152.56 194.737 153.187 193.084 154.04C191.191 155 190.244 156.32 190.244 158C190.244 159.84 191.071 160.76 192.724 160.76ZM206.932 138.24C206.318 138.24 205.798 138.773 205.372 139.84L203.732 138.92C204.585 136.947 205.652 135.96 206.932 135.96C207.572 135.96 208.278 136.24 209.052 136.8C209.612 137.2 210.038 137.4 210.332 137.4C210.945 137.4 211.465 136.867 211.892 135.8L213.532 136.72C212.678 138.693 211.612 139.68 210.332 139.68C209.638 139.68 208.932 139.4 208.212 138.84C207.652 138.44 207.225 138.24 206.932 138.24ZM209.852 142.48C212.945 142.48 214.492 144.413 214.492 148.28V163H211.452V148.68C211.452 146.333 210.612 145.16 208.932 145.16C207.972 145.16 207.198 145.56 206.612 146.36C206.052 147.133 205.772 148.227 205.772 149.64V163H202.772V142.88H205.372L205.412 145.52C206.238 143.493 207.718 142.48 209.852 142.48ZM223.682 163.4C221.762 163.4 220.296 162.84 219.282 161.72C218.269 160.573 217.762 158.96 217.762 156.88V148.96C217.762 146.88 218.269 145.28 219.282 144.16C220.296 143.04 221.762 142.48 223.682 142.48C225.576 142.48 227.029 143.04 228.042 144.16C229.082 145.28 229.602 146.88 229.602 148.96V156.88C229.602 158.96 229.082 160.573 228.042 161.72C227.029 162.84 225.576 163.4 223.682 163.4ZM223.682 160.72C225.602 160.72 226.562 159.533 226.562 157.16V148.68C226.562 146.333 225.602 145.16 223.682 145.16C221.736 145.16 220.762 146.333 220.762 148.68V157.16C220.762 159.533 221.736 160.72 223.682 160.72ZM236.006 163H233.006V135H236.006V163Z" fill="white"/>
<path d="M569.414 150.414C570.195 149.633 570.195 148.367 569.414 147.586L556.686 134.858C555.905 134.077 554.639 134.077 553.858 134.858C553.077 135.639 553.077 136.905 553.858 137.686L565.172 149L553.858 160.314C553.077 161.095 553.077 162.361 553.858 163.142C554.639 163.923 555.905 163.923 556.686 163.142L569.414 150.414ZM508 151H568V147H508V151Z" fill="#FFC700"/>
</svg>
