<svg width="275" height="667" viewBox="0 0 275 667" fill="none" xmlns="http://www.w3.org/2000/svg">
<path d="M189.5 15C189.5 7.54416 195.544 1.5 203 1.5C210.456 1.5 216.5 7.54416 216.5 15V68.5H189.5V15Z" fill="white" stroke="black" stroke-width="3"/>
<path d="M1.5 127C1.5 94.6914 27.6913 68.5 60 68.5H215C247.309 68.5 273.5 94.6913 273.5 127V647C273.5 657.217 265.217 665.5 255 665.5H20C9.78273 665.5 1.5 657.217 1.5 647V127Z" fill="white" stroke="black" stroke-width="3"/>
<path d="M23 147C23 130.431 36.4315 117 53 117H223C239.569 117 253 130.431 253 147V351.417C253 360.579 246.774 368.57 237.89 370.81L186.904 383.668C154.804 391.763 121.196 391.763 89.0962 383.668L38.1096 370.81C29.2256 368.57 23 360.579 23 351.417V147Z" fill="#FFC700"/>
<rect x="38" y="162" width="200" height="190" rx="10" fill="white"/>
<rect x="23" y="596" width="70" height="40" rx="10" fill="#FFC700"/>
<rect x="103" y="596" width="70" height="40" rx="10" fill="#FFC700"/>
<rect x="183" y="596" width="70" height="40" rx="10" fill="#FFC700"/>
<rect x="183" y="546" width="70" height="40" rx="10" fill="#FFC700"/>
<rect x="183" y="496" width="70" height="40" rx="10" fill="#FFC700"/>
<rect x="103" y="87" width="70" height="10" rx="5" fill="#FF3D00"/>
<rect x="183" y="446" width="70" height="40" rx="10" fill="#FFC700"/>
<path d="M183 403.862C183 399.248 186.157 395.233 190.64 394.145L240.64 382.002C246.935 380.473 253 385.241 253 391.719V426C253 431.523 248.523 436 243 436H193C187.477 436 183 431.523 183 426V403.862Z" fill="#FFC700"/>
<path d="M93 403.862C93 399.248 89.8434 395.233 85.36 394.145L35.36 382.002C29.065 380.473 23 385.241 23 391.719V426C23 431.523 27.4771 436 33 436H83C88.5228 436 93 431.523 93 426V403.862Z" fill="#FFC700"/>
<rect x="103" y="446" width="70" height="40" rx="10" fill="#FFC700"/>
<rect x="103" y="401" width="70" height="35" rx="10" fill="#FFC700"/>
<rect x="109.5" y="407.5" width="57" height="22" rx="3.5" stroke="#FF3D00" stroke-width="3"/>
<rect x="23" y="446" width="70" height="40" rx="10" fill="#FFC700"/>
<rect x="103" y="546" width="70" height="40" rx="10" fill="#FFC700"/>
<rect x="103" y="496" width="70" height="40" rx="10" fill="#FFC700"/>
<rect x="23" y="546" width="70" height="40" rx="10" fill="#FFC700"/>
<rect x="23" y="496" width="70" height="40" rx="10" fill="#FFC700"/>
<path d="M49.29 477H45.99V460.98H42.54V458.64C43.92 458.64 44.92 458.46 45.54 458.1C46.18 457.7 46.69 457 47.07 456H49.29V477Z" fill="black"/>
<path d="M59.2102 473.175H55.9102V471.825H59.2102V473.175ZM62.9705 478.5H62.4755V477.27H62.8655C63.1655 477.27 63.3805 477.195 63.5105 477.045C63.6505 476.905 63.7205 476.64 63.7205 476.25V468.75C63.7205 468.38 63.6555 468.12 63.5255 467.97C63.4055 467.81 63.1855 467.73 62.8655 467.73H62.4755V466.5H62.9705C63.7605 466.5 64.3305 466.67 64.6805 467.01C65.0405 467.34 65.2205 467.92 65.2205 468.75V476.25C65.2205 477.04 65.0505 477.61 64.7105 477.96C64.3705 478.32 63.7905 478.5 62.9705 478.5ZM72.0397 478.5H71.5597C70.7697 478.5 70.1947 478.33 69.8347 477.99C69.4747 477.66 69.2947 477.08 69.2947 476.25V468.75C69.2947 467.96 69.4647 467.39 69.8047 467.04C70.1447 466.68 70.7297 466.5 71.5597 466.5H72.0397V467.73H71.6497C71.3497 467.73 71.1297 467.805 70.9897 467.955C70.8597 468.095 70.7947 468.36 70.7947 468.75V476.25C70.7947 476.62 70.8547 476.88 70.9747 477.03C71.1047 477.19 71.3297 477.27 71.6497 477.27H72.0397V478.5Z" fill="#FF3D00"/>
<path d="M38.53 421H35.23V412.06L31.24 400H34.75L37.03 407.83L39.31 400H42.52L38.53 412.06V421ZM52.978 421H43.978V400H52.978V403H47.278V408.55H51.808V411.55H47.278V418H52.978V421ZM59.1079 421.3C57.5079 421.3 56.2979 420.85 55.4779 419.95C54.6579 419.03 54.2479 417.72 54.2479 416.02V414.82H57.3679V416.26C57.3679 417.62 57.9379 418.3 59.0779 418.3C60.2379 418.3 60.8179 417.6 60.8179 416.2C60.8179 415.34 60.6079 414.58 60.1879 413.92C59.7879 413.26 59.0379 412.45 57.9379 411.49C56.5779 410.27 55.6179 409.18 55.0579 408.22C54.5179 407.22 54.2479 406.12 54.2479 404.92C54.2479 403.24 54.6679 401.95 55.5079 401.05C56.3479 400.15 57.5679 399.7 59.1679 399.7C60.7279 399.7 61.9179 400.16 62.7379 401.08C63.5579 401.98 63.9679 403.28 63.9679 404.98V405.85H60.8479V404.77C60.8479 403.39 60.2979 402.7 59.1979 402.7C58.0779 402.7 57.5179 403.37 57.5179 404.71C57.5179 405.49 57.7279 406.19 58.1479 406.81C58.5879 407.49 59.3479 408.29 60.4279 409.21C61.8079 410.41 62.7579 411.51 63.2779 412.51C63.8179 413.49 64.0879 414.64 64.0879 415.96C64.0879 417.68 63.6579 419 62.7979 419.92C61.9579 420.84 60.7279 421.3 59.1079 421.3Z" fill="black"/>
<path d="M220.17 421H217.23V400H221.31L224.64 412.57V400H227.58V421H224.25L220.17 405.67V421ZM229.793 416.02V404.98C229.793 403.3 230.223 402 231.083 401.08C231.943 400.16 233.183 399.7 234.803 399.7C236.423 399.7 237.663 400.16 238.523 401.08C239.383 402 239.813 403.3 239.813 404.98V416.02C239.813 417.7 239.383 419 238.523 419.92C237.663 420.84 236.423 421.3 234.803 421.3C233.183 421.3 231.943 420.84 231.083 419.92C230.223 419 229.793 417.7 229.793 416.02ZM236.513 416.23V404.77C236.513 403.39 235.943 402.7 234.803 402.7C233.663 402.7 233.093 403.39 233.093 404.77V416.23C233.093 417.61 233.663 418.3 234.803 418.3C235.943 418.3 236.513 417.61 236.513 416.23Z" fill="black"/>
<path d="M131.26 477H121.72V474.72C121.72 473.16 121.96 471.83 122.44 470.73C122.92 469.63 123.78 468.43 125.02 467.13C126.3 465.75 127.15 464.66 127.57 463.86C128.03 462.98 128.26 462.06 128.26 461.1C128.26 460.22 128.12 459.6 127.84 459.24C127.56 458.88 127.13 458.7 126.55 458.7C125.41 458.7 124.84 459.39 124.84 460.77V463.02H121.72V460.98C121.72 459.28 122.14 457.98 122.98 457.08C123.82 456.16 125.04 455.7 126.64 455.7C128.24 455.7 129.46 456.16 130.3 457.08C131.14 457.98 131.56 459.28 131.56 460.98C131.56 462.28 131.25 463.52 130.63 464.7C130.01 465.92 128.96 467.31 127.48 468.87C126.52 469.89 125.86 470.73 125.5 471.39C125.16 472.05 124.99 472.77 124.99 473.55V474H131.26V477Z" fill="black"/>
<path d="M142.758 477H141.108L140.823 474.945H138.917L138.633 477H137.103L138.812 466.5H141.048L142.758 477ZM139.863 468.225L139.128 473.52H140.613L139.863 468.225ZM146.139 477H143.544V466.5H146.034C146.874 466.5 147.489 466.7 147.879 467.1C148.279 467.49 148.479 468.095 148.479 468.915V469.335C148.479 470.415 148.124 471.1 147.414 471.39V471.42C148.234 471.7 148.644 472.43 148.644 473.61V474.51C148.644 475.32 148.429 475.94 147.999 476.37C147.579 476.79 146.959 477 146.139 477ZM145.194 468V470.775H145.839C146.179 470.775 146.429 470.69 146.589 470.52C146.749 470.34 146.829 470.055 146.829 469.665V469.08C146.829 468.36 146.549 468 145.989 468H145.194ZM145.194 472.275V475.5H146.139C146.439 475.5 146.654 475.425 146.784 475.275C146.924 475.115 146.994 474.845 146.994 474.465V473.55C146.994 473.08 146.914 472.75 146.754 472.56C146.594 472.37 146.319 472.275 145.929 472.275H145.194ZM149.488 474.57V468.93C149.488 468.11 149.698 467.475 150.118 467.025C150.538 466.575 151.138 466.35 151.918 466.35C152.698 466.35 153.298 466.575 153.718 467.025C154.138 467.475 154.348 468.11 154.348 468.93V470.04H152.788V468.825C152.788 468.175 152.513 467.85 151.963 467.85C151.413 467.85 151.138 468.175 151.138 468.825V474.69C151.138 475.33 151.413 475.65 151.963 475.65C152.513 475.65 152.788 475.33 152.788 474.69V473.16H154.348V474.57C154.348 475.39 154.138 476.025 153.718 476.475C153.298 476.925 152.698 477.15 151.918 477.15C151.138 477.15 150.538 476.925 150.118 476.475C149.698 476.025 149.488 475.39 149.488 474.57Z" fill="#FF3D00"/>
<path d="M201.6 472.08V470.37H204.72V472.23C204.72 473.61 205.29 474.3 206.43 474.3C207.01 474.3 207.44 474.12 207.72 473.76C208 473.4 208.14 472.79 208.14 471.93V470.22C208.14 469.26 207.97 468.58 207.63 468.18C207.29 467.76 206.74 467.55 205.98 467.55H204.87V464.55H206.07C206.75 464.55 207.25 464.38 207.57 464.04C207.89 463.68 208.05 463.11 208.05 462.33V460.8C208.05 459.4 207.5 458.7 206.4 458.7C205.34 458.7 204.81 459.35 204.81 460.65V462.03H201.69V460.92C201.69 459.24 202.1 457.95 202.92 457.05C203.76 456.15 204.96 455.7 206.52 455.7C208.1 455.7 209.3 456.15 210.12 457.05C210.94 457.93 211.35 459.21 211.35 460.89V461.64C211.35 463.88 210.57 465.29 209.01 465.87V465.93C210.63 466.53 211.44 467.97 211.44 470.25V472.11C211.44 473.79 211.02 475.08 210.18 475.98C209.36 476.86 208.14 477.3 206.52 477.3C204.9 477.3 203.67 476.85 202.83 475.95C202.01 475.05 201.6 473.76 201.6 472.08Z" fill="black"/>
<path d="M220.16 477H217.64V466.5H220.16C221.8 466.5 222.62 467.365 222.62 469.095V474.405C222.62 476.135 221.8 477 220.16 477ZM219.29 468V475.5H220.13C220.69 475.5 220.97 475.16 220.97 474.48V469.02C220.97 468.34 220.69 468 220.13 468H219.29ZM228.234 477H223.734V466.5H228.234V468H225.384V470.775H227.649V472.275H225.384V475.5H228.234V477ZM230.775 477H229.125V466.5H233.49V468H230.775V470.925H232.905V472.425H230.775V477Z" fill="#FF3D00"/>
<path d="M201.99 522.02V511.16C201.99 507.52 203.67 505.7 207.03 505.7C208.63 505.7 209.85 506.16 210.69 507.08C211.53 507.98 211.95 509.28 211.95 510.98V511.37H208.83V510.77C208.83 509.39 208.26 508.7 207.12 508.7C206.48 508.7 206.01 508.9 205.71 509.3C205.43 509.68 205.29 510.34 205.29 511.28V515.3C205.95 514.08 206.97 513.47 208.35 513.47C210.79 513.47 212.01 515.07 212.01 518.27V522.02C212.01 523.7 211.58 525 210.72 525.92C209.86 526.84 208.62 527.3 207 527.3C205.38 527.3 204.14 526.84 203.28 525.92C202.42 525 201.99 523.7 201.99 522.02ZM208.71 522.26V518.54C208.71 517.16 208.14 516.47 207 516.47C205.86 516.47 205.29 517.16 205.29 518.54V522.26C205.29 523.62 205.86 524.3 207 524.3C208.14 524.3 208.71 523.62 208.71 522.26Z" fill="black"/>
<path d="M219.637 527H218.197V516.5H220.522L221.617 524.12L222.712 516.5H225.037V527H223.477V519.05L222.247 527H220.867L219.637 519.05V527ZM227.738 527H226.268V516.5H228.308L229.973 522.785V516.5H231.443V527H229.778L227.738 519.335V527ZM232.55 524.51V518.99C232.55 518.15 232.765 517.5 233.195 517.04C233.625 516.58 234.245 516.35 235.055 516.35C235.865 516.35 236.485 516.58 236.915 517.04C237.345 517.5 237.56 518.15 237.56 518.99V524.51C237.56 525.35 237.345 526 236.915 526.46C236.485 526.92 235.865 527.15 235.055 527.15C234.245 527.15 233.625 526.92 233.195 526.46C232.765 526 232.55 525.35 232.55 524.51ZM235.91 524.615V518.885C235.91 518.195 235.625 517.85 235.055 517.85C234.485 517.85 234.2 518.195 234.2 518.885V524.615C234.2 525.305 234.485 525.65 235.055 525.65C235.625 525.65 235.91 525.305 235.91 524.615Z" fill="#FF3D00"/>
<path d="M122.87 522.02V520.37H125.99V522.26C125.99 523.62 126.56 524.3 127.7 524.3C128.84 524.3 129.41 523.62 129.41 522.26V517.55C129.41 516.17 128.84 515.48 127.7 515.48C126.56 515.48 125.99 516.17 125.99 517.55V517.73H122.87L123.47 506H132.17V509H126.41L126.14 514.01C126.78 512.99 127.75 512.48 129.05 512.48C131.49 512.48 132.71 514.08 132.71 517.28V522.02C132.71 523.72 132.29 525.03 131.45 525.95C130.61 526.85 129.39 527.3 127.79 527.3C126.19 527.3 124.97 526.85 124.13 525.95C123.29 525.03 122.87 523.72 122.87 522.02Z" fill="black"/>
<path d="M139.219 527.06C138.899 527.06 138.644 527.04 138.454 527V525.5C138.604 525.54 138.784 525.56 138.994 525.56C139.644 525.56 139.969 525.225 139.969 524.555V516.5H141.619V524.51C141.619 526.21 140.819 527.06 139.219 527.06ZM148.216 527H146.491L145.111 522.38L144.436 523.7V527H142.786V516.5H144.436V521.015L146.506 516.5H148.186L146.221 520.355L148.216 527ZM153.362 527H148.997V516.5H150.647V525.5H153.362V527Z" fill="#FF3D00"/>
<path d="M52.02 527H48.72V523.19H42.42V520.19L48.42 506H52.02V520.19H53.58V523.19H52.02V527ZM48.72 511.85L45.42 520.19H48.72V511.85Z" fill="black"/>
<path d="M59.2821 524.51V518.99C59.2821 518.14 59.4921 517.49 59.9121 517.04C60.3321 516.58 60.9421 516.35 61.7421 516.35C62.5421 516.35 63.1521 516.58 63.5721 517.04C63.9921 517.49 64.2021 518.14 64.2021 518.99V519.89H62.6421V518.885C62.6421 518.195 62.3571 517.85 61.7871 517.85C61.2171 517.85 60.9321 518.195 60.9321 518.885V524.63C60.9321 525.31 61.2171 525.65 61.7871 525.65C62.3571 525.65 62.6421 525.31 62.6421 524.63V522.575H61.8171V521.075H64.2021V524.51C64.2021 525.36 63.9921 526.015 63.5721 526.475C63.1521 526.925 62.5421 527.15 61.7421 527.15C60.9421 527.15 60.3321 526.925 59.9121 526.475C59.4921 526.015 59.2821 525.36 59.2821 524.51ZM66.9261 527H65.2761V516.5H66.9261V520.775H68.6961V516.5H70.3461V527H68.6961V522.275H66.9261V527ZM73.225 527H71.575V516.5H73.225V527Z" fill="#FF3D00"/>
<path d="M46.1 577H42.65L48.02 559H41.36V556H51.26V558.88L46.1 577Z" fill="black"/>
<path d="M58.763 577H57.113V566.5H59.558C60.398 566.5 61.013 566.7 61.403 567.1C61.803 567.49 62.003 568.095 62.003 568.915V569.56C62.003 570.66 61.643 571.35 60.923 571.63V571.66C61.653 571.88 62.018 572.62 62.018 573.88V575.725C62.018 576.295 62.078 576.72 62.198 577H60.518C60.418 576.71 60.368 576.28 60.368 575.71V573.79C60.368 573.31 60.288 572.975 60.128 572.785C59.978 572.595 59.713 572.5 59.333 572.5H58.763V577ZM58.763 568V571H59.363C59.703 571 59.953 570.915 60.113 570.745C60.273 570.565 60.353 570.28 60.353 569.89V569.08C60.353 568.36 60.073 568 59.513 568H58.763ZM64.8129 577H63.1629V566.5H65.5929C67.2329 566.5 68.0529 567.365 68.0529 569.095V570.13C68.0529 571.86 67.2329 572.725 65.5929 572.725H64.8129V577ZM64.8129 568V571.225H65.5929C65.8729 571.225 66.0779 571.15 66.2079 571C66.3379 570.84 66.4029 570.585 66.4029 570.235V568.99C66.4029 568.64 66.3379 568.39 66.2079 568.24C66.0779 568.08 65.8729 568 65.5929 568H64.8129ZM71.1379 577.15C70.3379 577.15 69.7329 576.925 69.3229 576.475C68.9129 576.015 68.7079 575.36 68.7079 574.51V573.91H70.2679V574.63C70.2679 575.31 70.5529 575.65 71.1229 575.65C71.7029 575.65 71.9929 575.3 71.9929 574.6C71.9929 574.17 71.8879 573.79 71.6779 573.46C71.4779 573.13 71.1029 572.725 70.5529 572.245C69.8729 571.635 69.3929 571.09 69.1129 570.61C68.8429 570.11 68.7079 569.56 68.7079 568.96C68.7079 568.12 68.9179 567.475 69.3379 567.025C69.7579 566.575 70.3679 566.35 71.1679 566.35C71.9479 566.35 72.5429 566.58 72.9529 567.04C73.3629 567.49 73.5679 568.14 73.5679 568.99V569.425H72.0079V568.885C72.0079 568.195 71.7329 567.85 71.1829 567.85C70.6229 567.85 70.3429 568.185 70.3429 568.855C70.3429 569.245 70.4479 569.595 70.6579 569.905C70.8779 570.245 71.2579 570.645 71.7979 571.105C72.4879 571.705 72.9629 572.255 73.2229 572.755C73.4929 573.245 73.6279 573.82 73.6279 574.48C73.6279 575.34 73.4129 576 72.9829 576.46C72.5629 576.92 71.9479 577.15 71.1379 577.15Z" fill="#FF3D00"/>
<path d="M57.36 616.14L55.05 620.19L52.89 618.6L56.07 615.24L51.48 614.25L52.32 611.7L56.61 613.74L56.01 609H58.71L58.11 613.74L62.4 611.7L63.24 614.25L58.65 615.24L61.83 618.6L59.67 620.19L57.36 616.14Z" fill="black"/>
<path d="M121.78 572.11V570.25C121.78 568.15 122.5 566.72 123.94 565.96V565.9C122.58 565.14 121.9 563.76 121.9 561.76V560.83C121.9 559.17 122.33 557.9 123.19 557.02C124.07 556.14 125.32 555.7 126.94 555.7C128.56 555.7 129.8 556.14 130.66 557.02C131.54 557.9 131.98 559.17 131.98 560.83V561.76C131.98 563.76 131.3 565.14 129.94 565.9V565.96C131.38 566.72 132.1 568.15 132.1 570.25V572.11C132.1 573.79 131.65 575.08 130.75 575.98C129.87 576.86 128.6 577.3 126.94 577.3C125.28 577.3 124 576.86 123.1 575.98C122.22 575.08 121.78 573.79 121.78 572.11ZM128.68 562.45V560.74C128.68 559.38 128.1 558.7 126.94 558.7C125.78 558.7 125.2 559.38 125.2 560.74V562.45C125.2 563.85 125.78 564.55 126.94 564.55C128.1 564.55 128.68 563.85 128.68 562.45ZM128.8 571.93V569.92C128.8 568.34 128.18 567.55 126.94 567.55C125.7 567.55 125.08 568.34 125.08 569.92V571.93C125.08 573.51 125.7 574.3 126.94 574.3C128.18 574.3 128.8 573.51 128.8 571.93Z" fill="black"/>
<path d="M141.254 577H139.604V568H137.879V566.5H142.979V568H141.254V577ZM143.718 574.51V566.5H145.368V574.63C145.368 575.31 145.648 575.65 146.208 575.65C146.768 575.65 147.048 575.31 147.048 574.63V566.5H148.638V574.51C148.638 575.36 148.428 576.015 148.008 576.475C147.588 576.925 146.978 577.15 146.178 577.15C145.378 577.15 144.768 576.925 144.348 576.475C143.928 576.015 143.718 575.36 143.718 574.51ZM153.158 577H150.968L149.378 566.5H151.043L152.138 574.75L153.233 566.5H154.748L153.158 577Z" fill="#FF3D00"/>
<path d="M126.99 622.02V610.98C126.99 609.3 127.42 608 128.28 607.08C129.14 606.16 130.38 605.7 132 605.7C133.62 605.7 134.86 606.16 135.72 607.08C136.58 608 137.01 609.3 137.01 610.98V622.02C137.01 623.7 136.58 625 135.72 625.92C134.86 626.84 133.62 627.3 132 627.3C130.38 627.3 129.14 626.84 128.28 625.92C127.42 625 126.99 623.7 126.99 622.02ZM133.71 622.23V610.77C133.71 609.39 133.14 608.7 132 608.7C130.86 608.7 130.29 609.39 130.29 610.77V622.23C130.29 623.61 130.86 624.3 132 624.3C133.14 624.3 133.71 623.61 133.71 622.23Z" fill="black"/>
<path d="M146.401 625.125H145.231V623.07H143.221V621.9H145.231V619.875H146.401V621.9H148.411V623.07H146.401V625.125Z" fill="white"/>
<path d="M214.75 627H212.35L213.01 620.88H211.51L211.72 618.75H213.22L213.79 613.05H212.26L212.47 610.92H214L214.51 606H216.88L216.4 610.92H218.62L219.1 606H221.47L220.99 610.92H222.52L222.28 613.05H220.78L220.21 618.75H221.74L221.5 620.88H220L219.37 627H217L217.6 620.88H215.38L214.75 627ZM216.16 613.05L215.59 618.75H217.84L218.38 613.05H216.16Z" fill="black"/>
<path d="M206.76 577.3C205.16 577.3 203.94 576.85 203.1 575.95C202.26 575.03 201.84 573.72 201.84 572.02V571.63H204.96V572.23C204.96 573.61 205.53 574.3 206.67 574.3C207.31 574.3 207.77 574.11 208.05 573.73C208.35 573.33 208.5 572.66 208.5 571.72V567.7C207.84 568.92 206.82 569.53 205.44 569.53C203 569.53 201.78 567.93 201.78 564.73V560.98C201.78 559.3 202.21 558 203.07 557.08C203.93 556.16 205.17 555.7 206.79 555.7C208.41 555.7 209.65 556.16 210.51 557.08C211.37 558 211.8 559.3 211.8 560.98V571.84C211.8 575.48 210.12 577.3 206.76 577.3ZM208.5 564.46V560.74C208.5 559.38 207.93 558.7 206.79 558.7C205.65 558.7 205.08 559.38 205.08 560.74V564.46C205.08 565.84 205.65 566.53 206.79 566.53C207.93 566.53 208.5 565.84 208.5 564.46Z" fill="black"/>
<path d="M219.292 577H217.732L219.637 571.63L217.822 566.5H219.562L220.687 569.935L221.842 566.5H223.402L221.587 571.63L223.492 577H221.752L220.537 573.295L219.292 577ZM227.411 577H225.761V572.53L223.766 566.5H225.521L226.661 570.415L227.801 566.5H229.406L227.411 572.53V577ZM234.606 577H229.776V575.53L232.836 568H229.926V566.5H234.606V567.97L231.546 575.5H234.606V577Z" fill="#FF3D00"/>
<path d="M59.42 251H54.23V230H59.21C60.89 230 62.12 230.4 62.9 231.2C63.7 231.98 64.1 233.19 64.1 234.83V235.67C64.1 237.83 63.39 239.2 61.97 239.78V239.84C63.61 240.4 64.43 241.86 64.43 244.22V246.02C64.43 247.64 64 248.88 63.14 249.74C62.3 250.58 61.06 251 59.42 251ZM57.53 233V238.55H58.82C59.5 238.55 60 238.38 60.32 238.04C60.64 237.68 60.8 237.11 60.8 236.33V235.16C60.8 233.72 60.24 233 59.12 233H57.53ZM57.53 241.55V248H59.42C60.02 248 60.45 247.85 60.71 247.55C60.99 247.23 61.13 246.69 61.13 245.93V244.1C61.13 243.16 60.97 242.5 60.65 242.12C60.33 241.74 59.78 241.55 59 241.55H57.53ZM66.1189 246.02V234.98C66.1189 233.3 66.5489 232 67.4089 231.08C68.2689 230.16 69.5089 229.7 71.1289 229.7C72.7489 229.7 73.9889 230.16 74.8489 231.08C75.7089 232 76.1389 233.3 76.1389 234.98V246.02C76.1389 247.7 75.7089 249 74.8489 249.92C73.9889 250.84 72.7489 251.3 71.1289 251.3C69.5089 251.3 68.2689 250.84 67.4089 249.92C66.5489 249 66.1189 247.7 66.1189 246.02ZM72.8389 246.23V234.77C72.8389 233.39 72.2689 232.7 71.1289 232.7C69.9889 232.7 69.4189 233.39 69.4189 234.77V246.23C69.4189 247.61 69.9889 248.3 71.1289 248.3C72.2689 248.3 72.8389 247.61 72.8389 246.23ZM82.6606 251.3C81.0606 251.3 79.8506 250.85 79.0306 249.95C78.2106 249.03 77.8006 247.72 77.8006 246.02V244.82H80.9206V246.26C80.9206 247.62 81.4906 248.3 82.6306 248.3C83.7906 248.3 84.3706 247.6 84.3706 246.2C84.3706 245.34 84.1606 244.58 83.7406 243.92C83.3406 243.26 82.5906 242.45 81.4906 241.49C80.1306 240.27 79.1706 239.18 78.6106 238.22C78.0706 237.22 77.8006 236.12 77.8006 234.92C77.8006 233.24 78.2206 231.95 79.0606 231.05C79.9006 230.15 81.1206 229.7 82.7206 229.7C84.2806 229.7 85.4706 230.16 86.2906 231.08C87.1106 231.98 87.5206 233.28 87.5206 234.98V235.85H84.4006V234.77C84.4006 233.39 83.8506 232.7 82.7506 232.7C81.6306 232.7 81.0706 233.37 81.0706 234.71C81.0706 235.49 81.2806 236.19 81.7006 236.81C82.1406 237.49 82.9006 238.29 83.9806 239.21C85.3606 240.41 86.3106 241.51 86.8306 242.51C87.3706 243.49 87.6406 244.64 87.6406 245.96C87.6406 247.68 87.2106 249 86.3506 249.92C85.5106 250.84 84.2806 251.3 82.6606 251.3ZM93.7641 251.3C92.1641 251.3 90.9541 250.85 90.1341 249.95C89.3141 249.03 88.9041 247.72 88.9041 246.02V244.82H92.0241V246.26C92.0241 247.62 92.5941 248.3 93.7341 248.3C94.8941 248.3 95.4741 247.6 95.4741 246.2C95.4741 245.34 95.2641 244.58 94.8441 243.92C94.4441 243.26 93.6941 242.45 92.5941 241.49C91.2341 240.27 90.2741 239.18 89.7141 238.22C89.1741 237.22 88.9041 236.12 88.9041 234.92C88.9041 233.24 89.3241 231.95 90.1641 231.05C91.0041 230.15 92.2241 229.7 93.8241 229.7C95.3841 229.7 96.5741 230.16 97.3941 231.08C98.2141 231.98 98.6241 233.28 98.6241 234.98V235.85H95.5041V234.77C95.5041 233.39 94.9541 232.7 93.8541 232.7C92.7341 232.7 92.1741 233.37 92.1741 234.71C92.1741 235.49 92.3841 236.19 92.8041 236.81C93.2441 237.49 94.0041 238.29 95.0841 239.21C96.4641 240.41 97.4141 241.51 97.9341 242.51C98.4741 243.49 98.7441 244.64 98.7441 245.96C98.7441 247.68 98.3141 249 97.4541 249.92C96.6141 250.84 95.3841 251.3 93.7641 251.3ZM104.027 239.57H100.727V236.27H104.027V239.57ZM104.027 251H100.727V247.7H104.027V251ZM59.42 285H54.23V264H59.21C60.89 264 62.12 264.4 62.9 265.2C63.7 265.98 64.1 267.19 64.1 268.83V269.67C64.1 271.83 63.39 273.2 61.97 273.78V273.84C63.61 274.4 64.43 275.86 64.43 278.22V280.02C64.43 281.64 64 282.88 63.14 283.74C62.3 284.58 61.06 285 59.42 285ZM57.53 267V272.55H58.82C59.5 272.55 60 272.38 60.32 272.04C60.64 271.68 60.8 271.11 60.8 270.33V269.16C60.8 267.72 60.24 267 59.12 267H57.53ZM57.53 275.55V282H59.42C60.02 282 60.45 281.85 60.71 281.55C60.99 281.23 61.13 280.69 61.13 279.93V278.1C61.13 277.16 60.97 276.5 60.65 276.12C60.33 275.74 59.78 275.55 59 275.55H57.53ZM75.3589 285H66.3589V264H75.3589V267H69.6589V272.55H74.1889V275.55H69.6589V282H75.3589V285ZM82.3302 285H77.1402V264H82.1202C83.8002 264 85.0302 264.4 85.8102 265.2C86.6102 265.98 87.0102 267.19 87.0102 268.83V269.67C87.0102 271.83 86.3002 273.2 84.8802 273.78V273.84C86.5202 274.4 87.3402 275.86 87.3402 278.22V280.02C87.3402 281.64 86.9102 282.88 86.0502 283.74C85.2102 284.58 83.9702 285 82.3302 285ZM80.4402 267V272.55H81.7302C82.4102 272.55 82.9102 272.38 83.2302 272.04C83.5502 271.68 83.7102 271.11 83.7102 270.33V269.16C83.7102 267.72 83.1502 267 82.0302 267H80.4402ZM80.4402 275.55V282H82.3302C82.9302 282 83.3602 281.85 83.6202 281.55C83.9002 281.23 84.0402 280.69 84.0402 279.93V278.1C84.0402 277.16 83.8802 276.5 83.5602 276.12C83.2402 275.74 82.6902 275.55 81.9102 275.55H80.4402ZM99.6498 285H96.3498L95.7798 280.89H91.9698L91.3998 285H88.3398L91.7598 264H96.2298L99.6498 285ZM93.8598 267.45L92.3898 278.04H95.3598L93.8598 267.45ZM105.424 285.3C103.824 285.3 102.614 284.85 101.794 283.95C100.974 283.03 100.564 281.72 100.564 280.02V278.82H103.684V280.26C103.684 281.62 104.254 282.3 105.394 282.3C106.554 282.3 107.134 281.6 107.134 280.2C107.134 279.34 106.924 278.58 106.504 277.92C106.104 277.26 105.354 276.45 104.254 275.49C102.894 274.27 101.934 273.18 101.374 272.22C100.834 271.22 100.564 270.12 100.564 268.92C100.564 267.24 100.984 265.95 101.824 265.05C102.664 264.15 103.884 263.7 105.484 263.7C107.044 263.7 108.234 264.16 109.054 265.08C109.874 265.98 110.284 267.28 110.284 268.98V269.85H107.164V268.77C107.164 267.39 106.614 266.7 105.514 266.7C104.394 266.7 103.834 267.37 103.834 268.71C103.834 269.49 104.044 270.19 104.464 270.81C104.904 271.49 105.664 272.29 106.744 273.21C108.124 274.41 109.074 275.51 109.594 276.51C110.134 277.49 110.404 278.64 110.404 279.96C110.404 281.68 109.974 283 109.114 283.92C108.274 284.84 107.044 285.3 105.424 285.3ZM120.012 285H117.072V264H121.152L124.482 276.57V264H127.422V285H124.092L120.012 269.67V285ZM138.875 285H129.875V264H138.875V267H133.175V272.55H137.705V275.55H133.175V282H138.875V285ZM140.536 280.02V264H143.836V280.26C143.836 281.62 144.396 282.3 145.516 282.3C146.636 282.3 147.196 281.62 147.196 280.26V264H150.376V280.02C150.376 281.72 149.956 283.03 149.116 283.95C148.276 284.85 147.056 285.3 145.456 285.3C143.856 285.3 142.636 284.85 141.796 283.95C140.956 283.03 140.536 281.72 140.536 280.02ZM161.726 285H152.726V264H161.726V267H156.026V272.55H160.556V275.55H156.026V282H161.726V285ZM171.612 285H168.312V264H173.172C176.452 264 178.092 265.73 178.092 269.19V271.26C178.092 274.72 176.452 276.45 173.172 276.45H171.612V285ZM171.612 267V273.45H173.172C173.732 273.45 174.142 273.3 174.402 273C174.662 272.68 174.792 272.17 174.792 271.47V268.98C174.792 268.28 174.662 267.78 174.402 267.48C174.142 267.16 173.732 267 173.172 267H171.612ZM183.155 285H179.855V264H184.745C186.425 264 187.655 264.4 188.435 265.2C189.235 265.98 189.635 267.19 189.635 268.83V270.12C189.635 272.32 188.915 273.7 187.475 274.26V274.32C188.935 274.76 189.665 276.24 189.665 278.76V282.45C189.665 283.59 189.785 284.44 190.025 285H186.665C186.465 284.42 186.365 283.56 186.365 282.42V278.58C186.365 277.62 186.205 276.95 185.885 276.57C185.585 276.19 185.055 276 184.295 276H183.155V285ZM183.155 267V273H184.355C185.035 273 185.535 272.83 185.855 272.49C186.175 272.13 186.335 271.56 186.335 270.78V269.16C186.335 267.72 185.775 267 184.655 267H183.155ZM191.715 280.02V268.98C191.715 267.3 192.145 266 193.005 265.08C193.865 264.16 195.105 263.7 196.725 263.7C198.345 263.7 199.585 264.16 200.445 265.08C201.305 266 201.735 267.3 201.735 268.98V280.02C201.735 281.7 201.305 283 200.445 283.92C199.585 284.84 198.345 285.3 196.725 285.3C195.105 285.3 193.865 284.84 193.005 283.92C192.145 283 191.715 281.7 191.715 280.02ZM198.435 280.23V268.77C198.435 267.39 197.865 266.7 196.725 266.7C195.585 266.7 195.015 267.39 195.015 268.77V280.23C195.015 281.61 195.585 282.3 196.725 282.3C197.865 282.3 198.435 281.61 198.435 280.23ZM207.176 279.45H204.716L204.296 272.76V264H207.596V272.76L207.176 279.45ZM207.596 285H204.296V281.7H207.596V285ZM213.592 279.45H211.132L210.712 272.76V264H214.012V272.76L213.592 279.45ZM214.012 285H210.712V281.7H214.012V285ZM220.008 279.45H217.548L217.128 272.76V264H220.428V272.76L220.008 279.45ZM220.428 285H217.128V281.7H220.428V285Z" fill="#000AFF"/>
<path d="M121.02 146H118.82V132H122.06C124.247 132 125.34 133.153 125.34 135.46V136.84C125.34 139.147 124.247 140.3 122.06 140.3H121.02V146ZM121.02 134V138.3H122.06C122.433 138.3 122.707 138.2 122.88 138C123.053 137.787 123.14 137.447 123.14 136.98V135.32C123.14 134.853 123.053 134.52 122.88 134.32C122.707 134.107 122.433 134 122.06 134H121.02ZM130.435 135.6C131.955 135.6 132.715 136.593 132.715 138.58V146H130.595V138.82C130.595 137.927 130.302 137.48 129.715 137.48C128.995 137.48 128.635 138.027 128.635 139.12V146H126.515V132H128.635V136.52C129.049 135.907 129.649 135.6 130.435 135.6ZM134.089 142.88V138.92C134.089 137.853 134.355 137.033 134.889 136.46C135.435 135.887 136.209 135.6 137.209 135.6C138.209 135.6 138.975 135.887 139.509 136.46C140.055 137.033 140.329 137.853 140.329 138.92V142.88C140.329 143.947 140.055 144.767 139.509 145.34C138.975 145.913 138.209 146.2 137.209 146.2C136.209 146.2 135.435 145.913 134.889 145.34C134.355 144.767 134.089 143.947 134.089 142.88ZM138.209 143.08V138.72C138.209 137.893 137.875 137.48 137.209 137.48C136.542 137.48 136.209 137.893 136.209 138.72V143.08C136.209 143.907 136.542 144.32 137.209 144.32C137.875 144.32 138.209 143.907 138.209 143.08ZM145.689 135.6C147.209 135.6 147.969 136.593 147.969 138.58V146H145.849V138.82C145.849 137.927 145.556 137.48 144.969 137.48C144.249 137.48 143.889 138.027 143.889 139.12V146H141.769V135.8H143.609L143.649 136.98C144.036 136.06 144.716 135.6 145.689 135.6ZM155.623 138.92V141.36H151.463V143.08C151.463 143.907 151.816 144.32 152.523 144.32C153.229 144.32 153.583 143.907 153.583 143.08V142.7H155.623V142.88C155.623 143.947 155.349 144.767 154.803 145.34C154.269 145.913 153.496 146.2 152.483 146.2C151.469 146.2 150.689 145.913 150.143 145.34C149.609 144.767 149.343 143.947 149.343 142.88V138.92C149.343 137.853 149.609 137.033 150.143 136.46C150.689 135.887 151.469 135.6 152.483 135.6C153.496 135.6 154.269 135.887 154.803 136.46C155.349 137.033 155.623 137.853 155.623 138.92ZM151.463 138.72V139.68H153.543V138.72C153.543 137.893 153.196 137.48 152.503 137.48C151.809 137.48 151.463 137.893 151.463 138.72Z" fill="#000AFF"/>
<path d="M206.645 181H204.995V172.99H203.27V171.82C203.96 171.82 204.46 171.73 204.77 171.55C205.09 171.35 205.345 171 205.535 170.5H206.645V181ZM207.755 178.555V177.625C207.755 176.575 208.115 175.86 208.835 175.48V175.45C208.155 175.07 207.815 174.38 207.815 173.38V172.915C207.815 172.085 208.03 171.45 208.46 171.01C208.9 170.57 209.525 170.35 210.335 170.35C211.145 170.35 211.765 170.57 212.195 171.01C212.635 171.45 212.855 172.085 212.855 172.915V173.38C212.855 174.38 212.515 175.07 211.835 175.45V175.48C212.555 175.86 212.915 176.575 212.915 177.625V178.555C212.915 179.395 212.69 180.04 212.24 180.49C211.8 180.93 211.165 181.15 210.335 181.15C209.505 181.15 208.865 180.93 208.415 180.49C207.975 180.04 207.755 179.395 207.755 178.555ZM211.205 173.725V172.87C211.205 172.19 210.915 171.85 210.335 171.85C209.755 171.85 209.465 172.19 209.465 172.87V173.725C209.465 174.425 209.755 174.775 210.335 174.775C210.915 174.775 211.205 174.425 211.205 173.725ZM211.265 178.465V177.46C211.265 176.67 210.955 176.275 210.335 176.275C209.715 176.275 209.405 176.67 209.405 177.46V178.465C209.405 179.255 209.715 179.65 210.335 179.65C210.955 179.65 211.265 179.255 211.265 178.465ZM215.638 175.285H213.988V173.635H215.638V175.285ZM215.638 181H213.988V179.35H215.638V181ZM216.81 178.51V172.99C216.81 172.15 217.025 171.5 217.455 171.04C217.885 170.58 218.505 170.35 219.315 170.35C220.125 170.35 220.745 170.58 221.175 171.04C221.605 171.5 221.82 172.15 221.82 172.99V178.51C221.82 179.35 221.605 180 221.175 180.46C220.745 180.92 220.125 181.15 219.315 181.15C218.505 181.15 217.885 180.92 217.455 180.46C217.025 180 216.81 179.35 216.81 178.51ZM220.17 178.615V172.885C220.17 172.195 219.885 171.85 219.315 171.85C218.745 171.85 218.46 172.195 218.46 172.885V178.615C218.46 179.305 218.745 179.65 219.315 179.65C219.885 179.65 220.17 179.305 220.17 178.615ZM222.711 178.555V177.625C222.711 176.575 223.071 175.86 223.791 175.48V175.45C223.111 175.07 222.771 174.38 222.771 173.38V172.915C222.771 172.085 222.986 171.45 223.416 171.01C223.856 170.57 224.481 170.35 225.291 170.35C226.101 170.35 226.721 170.57 227.151 171.01C227.591 171.45 227.811 172.085 227.811 172.915V173.38C227.811 174.38 227.471 175.07 226.791 175.45V175.48C227.511 175.86 227.871 176.575 227.871 177.625V178.555C227.871 179.395 227.646 180.04 227.196 180.49C226.756 180.93 226.121 181.15 225.291 181.15C224.461 181.15 223.821 180.93 223.371 180.49C222.931 180.04 222.711 179.395 222.711 178.555ZM226.161 173.725V172.87C226.161 172.19 225.871 171.85 225.291 171.85C224.711 171.85 224.421 172.19 224.421 172.87V173.725C224.421 174.425 224.711 174.775 225.291 174.775C225.871 174.775 226.161 174.425 226.161 173.725ZM226.221 178.465V177.46C226.221 176.67 225.911 176.275 225.291 176.275C224.671 176.275 224.361 176.67 224.361 177.46V178.465C224.361 179.255 224.671 179.65 225.291 179.65C225.911 179.65 226.221 179.255 226.221 178.465Z" fill="black"/>
</svg>
