<svg width="310" height="135" viewBox="0 0 310 135" fill="none" xmlns="http://www.w3.org/2000/svg">
<path d="M7.19454 69.0826C5.72537 68.539 5.72537 66.461 7.19454 65.9174L48.4559 50.6493C49.4721 50.2733 50.2733 49.4721 50.6493 48.4559L65.9174 7.19453C66.461 5.72537 68.539 5.72537 69.0826 7.19454L84.3507 48.4559C84.7267 49.4721 85.5279 50.2733 86.5441 50.6493L127.805 65.9174C129.275 66.461 129.275 68.539 127.805 69.0826L86.5441 84.3507C85.5279 84.7267 84.7267 85.5279 84.3507 86.5441L69.0826 127.805C68.539 129.275 66.461 129.275 65.9174 127.805L50.6493 86.5441C50.2733 85.5279 49.4721 84.7267 48.4559 84.3507L7.19454 69.0826Z" fill="#FFC700" stroke="black" stroke-width="2.025"/>
<path d="M37.4058 68.133C36.8182 67.9156 36.8182 67.0844 37.4058 66.867L58.0365 59.2329C58.5908 59.0278 59.0278 58.5908 59.2329 58.0365L66.867 37.4058C67.0844 36.8182 67.9156 36.8182 68.133 37.4058L75.7671 58.0365C75.9722 58.5908 76.4092 59.0278 76.9635 59.2329L97.5942 66.867C98.1818 67.0844 98.1818 67.9156 97.5942 68.133L76.9635 75.7671C76.4092 75.9722 75.9722 76.4092 75.7671 76.9635L68.133 97.5942C67.9156 98.1818 67.0844 98.1818 66.867 97.5942L59.2329 76.9635C59.0278 76.4092 58.5908 75.9722 58.0365 75.7671L37.4058 68.133Z" fill="white" stroke="black" stroke-width="1.35"/>
<path d="M245.597 67.5413C244.863 67.2695 244.863 66.2305 245.597 65.9587L266.228 58.3246C266.736 58.1366 267.137 57.736 267.325 57.2279L274.959 36.5973C275.231 35.8627 276.269 35.8627 276.541 36.5973L284.175 57.2279C284.363 57.736 284.764 58.1366 285.272 58.3246L305.903 65.9587C306.637 66.2305 306.637 67.2695 305.903 67.5413L285.272 75.1754C284.764 75.3634 284.363 75.764 284.175 76.2721L276.541 96.9027C276.269 97.6373 275.231 97.6373 274.959 96.9027L267.325 76.2721C267.137 75.764 266.736 75.3634 266.228 75.1754L245.597 67.5413Z" fill="#FFC700" stroke="black" stroke-width="1.0125"/>
<path d="M260.703 67.0665C260.409 66.9578 260.409 66.5422 260.703 66.4335L271.018 62.6165C271.295 62.5139 271.514 62.2954 271.616 62.0183L275.433 51.7029C275.542 51.4091 275.958 51.4091 276.067 51.7029L279.884 62.0183C279.986 62.2954 280.205 62.5139 280.482 62.6165L290.797 66.4335C291.091 66.5422 291.091 66.9578 290.797 67.0665L280.482 70.8835C280.205 70.9861 279.986 71.2046 279.884 71.4817L276.067 81.7971C275.958 82.0909 275.542 82.0909 275.433 81.7971L271.616 71.4817C271.514 71.2046 271.295 70.9861 271.018 70.8835L260.703 67.0665Z" fill="white" stroke="black" stroke-width="0.675"/>
<path d="M143.396 67.812C142.294 67.4042 142.294 65.8458 143.396 65.438L174.342 53.987C175.104 53.705 175.705 53.1041 175.987 52.3419L187.438 21.3959C187.846 20.294 189.404 20.294 189.812 21.3959L201.263 52.3419C201.545 53.104 202.146 53.705 202.908 53.987L233.854 65.438C234.956 65.8458 234.956 67.4042 233.854 67.812L202.908 79.263C202.146 79.545 201.545 80.1459 201.263 80.9081L189.812 111.854C189.404 112.956 187.846 112.956 187.438 111.854L175.987 80.9081C175.705 80.1459 175.104 79.545 174.342 79.263L143.396 67.812Z" fill="#FFC700" stroke="black" stroke-width="1.51875"/>
<path d="M166.054 67.0998C165.614 66.9367 165.614 66.3133 166.054 66.1502L181.527 60.4247C181.943 60.2709 182.271 59.9431 182.425 59.5274L188.15 44.0544C188.313 43.6136 188.937 43.6136 189.1 44.0544L194.825 59.5274C194.979 59.9431 195.307 60.2709 195.723 60.4247L211.196 66.1502C211.636 66.3133 211.636 66.9367 211.196 67.0998L195.723 72.8253C195.307 72.9791 194.979 73.3069 194.825 73.7226L189.1 89.1956C188.937 89.6364 188.313 89.6364 188.15 89.1956L182.425 73.7226C182.271 73.3069 181.943 72.9791 181.527 72.8253L166.054 67.0998Z" fill="white" stroke="black" stroke-width="1.0125"/>
</svg>
