<svg width="1443" height="711" viewBox="0 0 1443 711" fill="none" xmlns="http://www.w3.org/2000/svg">
<path d="M6.63 74H43.55V139H35.75V80.76H14.43V139H6.63V74ZM78.8765 72.7C89.1032 72.7 94.2165 78.94 94.2165 91.42V121.45C94.2165 134.017 89.1032 140.3 78.8765 140.3C72.3765 140.3 67.6098 137.353 64.5765 131.46V159.15H56.7765V74H63.4065L63.6665 83.62C66.5265 76.34 71.5965 72.7 78.8765 72.7ZM86.4165 120.93V92.2C86.4165 83.88 83.1665 79.72 76.6665 79.72C73.0265 79.72 70.0798 81.1933 67.8265 84.14C65.6598 87.0867 64.5765 91.1167 64.5765 96.23V116.77C64.5765 121.883 65.6598 125.913 67.8265 128.86C70.0798 131.807 73.0265 133.28 76.6665 133.28C83.1665 133.28 86.4165 129.163 86.4165 120.93ZM105.115 119.37V93.63C105.115 86.9567 106.718 81.8 109.925 78.16C113.132 74.52 117.768 72.7 123.835 72.7C129.902 72.7 134.538 74.52 137.745 78.16C140.952 81.8 142.555 86.9567 142.555 93.63V119.37C142.555 126.043 140.952 131.2 137.745 134.84C134.538 138.48 129.902 140.3 123.835 140.3C117.768 140.3 113.132 138.48 109.925 134.84C106.718 131.2 105.115 126.043 105.115 119.37ZM134.755 120.15V92.98C134.755 84.14 131.115 79.72 123.835 79.72C116.555 79.72 112.915 84.14 112.915 92.98V120.15C112.915 128.903 116.555 133.28 123.835 133.28C131.115 133.28 134.755 128.903 134.755 120.15ZM162.33 139H154.53V74H183.52V80.76H162.33V139ZM214.843 72.7C225.07 72.7 230.183 78.94 230.183 91.42V121.45C230.183 134.017 225.07 140.3 214.843 140.3C208.343 140.3 203.577 137.353 200.543 131.46V159.15H192.743V74H199.373L199.633 83.62C202.493 76.34 207.563 72.7 214.843 72.7ZM222.383 120.93V92.2C222.383 83.88 219.133 79.72 212.633 79.72C208.993 79.72 206.047 81.1933 203.793 84.14C201.627 87.0867 200.543 91.1167 200.543 96.23V116.77C200.543 121.883 201.627 125.913 203.793 128.86C206.047 131.807 208.993 133.28 212.633 133.28C219.133 133.28 222.383 129.163 222.383 120.93ZM278.132 139H270.852C270.332 137.18 270.029 134.103 269.942 129.77C267.082 136.79 261.839 140.3 254.212 140.3C249.619 140.3 246.022 138.913 243.422 136.14C240.822 133.28 239.522 129.38 239.522 124.44C239.522 119.5 240.735 115.427 243.162 112.22C245.675 109.013 249.922 106.067 255.902 103.38C261.622 100.867 265.262 98.96 266.822 97.66C268.295 96.36 269.032 94.4967 269.032 92.07V90.38C269.032 83.1867 265.739 79.59 259.152 79.59C255.772 79.59 253.129 80.5433 251.222 82.45C249.402 84.3567 248.492 87.13 248.492 90.77V92.46H241.212V91.16C241.212 85.2667 242.772 80.7167 245.892 77.51C249.099 74.3033 253.562 72.7 259.282 72.7C270.982 72.7 276.832 78.9833 276.832 91.55V121.84C276.832 129.9 277.265 135.62 278.132 139ZM256.552 133.41C260.365 133.41 263.399 131.937 265.652 128.99C267.905 126.043 269.032 121.97 269.032 116.77V102.6C268.165 103.987 264.569 106.197 258.242 109.23C250.962 112.783 247.322 117.507 247.322 123.4C247.322 126.607 248.102 129.077 249.662 130.81C251.309 132.543 253.605 133.41 256.552 133.41ZM317.032 126.39L332.632 74H344.332V139H336.532V83.36L320.022 139H313.522L297.012 83.36V139H289.862V74H301.432L317.032 126.39ZM384.571 126.39L400.171 74H411.871V139H404.071V83.36L387.561 139H381.061L364.551 83.36V139H357.401V74H368.971L384.571 126.39ZM460.691 139H453.411C452.891 137.18 452.587 134.103 452.501 129.77C449.641 136.79 444.397 140.3 436.771 140.3C432.177 140.3 428.581 138.913 425.981 136.14C423.381 133.28 422.081 129.38 422.081 124.44C422.081 119.5 423.294 115.427 425.721 112.22C428.234 109.013 432.481 106.067 438.461 103.38C444.181 100.867 447.821 98.96 449.381 97.66C450.854 96.36 451.591 94.4967 451.591 92.07V90.38C451.591 83.1867 448.297 79.59 441.711 79.59C438.331 79.59 435.687 80.5433 433.781 82.45C431.961 84.3567 431.051 87.13 431.051 90.77V92.46H423.771V91.16C423.771 85.2667 425.331 80.7167 428.451 77.51C431.657 74.3033 436.121 72.7 441.841 72.7C453.541 72.7 459.391 78.9833 459.391 91.55V121.84C459.391 129.9 459.824 135.62 460.691 139ZM439.111 133.41C442.924 133.41 445.957 131.937 448.211 128.99C450.464 126.043 451.591 121.97 451.591 116.77V102.6C450.724 103.987 447.127 106.197 440.801 109.23C433.521 112.783 429.881 117.507 429.881 123.4C429.881 126.607 430.661 129.077 432.221 130.81C433.867 132.543 436.164 133.41 439.111 133.41Z" fill="white" fill-opacity="0.5"/>
<path d="M508 139H491.5L494.05 127.15H489.1C482.5 127.15 477.45 125.55 473.95 122.35C470.45 119.05 468.7 114.45 468.7 108.55C468.7 106.15 469 103.6 469.6 100.9L475.75 71.2C477.55 62.5 480.8 56.1 485.5 52C490.2 47.9 496.75 45.85 505.15 45.85H511.3L513.85 34H530.35L527.8 45.85H532.6C539.2 45.85 544.25 47.5 547.75 50.8C551.25 54 553 58.55 553 64.45C553 66.85 552.7 69.4 552.1 72.1L545.95 101.8C544.15 110.5 540.9 116.9 536.2 121C531.5 125.1 524.95 127.15 516.55 127.15H510.55L508 139ZM491.65 112.15H497.2L508.15 60.85H503.5C497.4 60.85 493.75 64.35 492.55 71.35L486.1 102.7C485.8 104.2 485.65 105.45 485.65 106.45C485.65 110.25 487.65 112.15 491.65 112.15ZM524.65 60.85L513.7 112.15H518.2C524.3 112.15 527.95 108.65 529.15 101.65L535.6 70.3C535.9 68.8 536.05 67.55 536.05 66.55C536.05 62.75 534.05 60.85 530.05 60.85H524.65ZM541.874 139L581.324 34H604.124L598.874 139H582.074L583.574 118.45H564.974L557.774 139H541.874ZM588.224 53.05L570.074 104.2H584.474L588.224 53.05ZM657.876 26.35C652.976 26.35 649.176 25.15 646.476 22.75C643.876 20.25 642.576 16.8 642.576 12.4C642.576 12.2 642.676 10.9 642.876 8.49999H652.176V9.69999C652.176 12 652.676 13.6 653.676 14.5C654.676 15.3 656.226 15.7 658.326 15.7C663.226 15.7 666.576 13.3 668.376 8.49999H677.976C675.576 20.4 668.876 26.35 657.876 26.35ZM629.076 101.8L663.426 34H680.826L658.476 139H643.776L657.876 71.95L624.126 139H606.726L629.076 34H643.776L629.076 101.8ZM672.089 139.15C670.389 139.15 668.689 138.95 666.989 138.55L668.939 124.3C669.139 124.4 669.789 124.45 670.889 124.45C674.489 124.45 677.239 123.55 679.139 121.75C681.139 119.85 682.639 116.8 683.639 112.6L702.839 34H749.489L727.139 139H710.339L729.389 49H715.589L700.289 112.9C698.089 122.1 694.839 128.8 690.539 133C686.239 137.1 680.089 139.15 672.089 139.15Z" fill="white" fill-opacity="0.5"/>
<path d="M758.28 79.6H799.56V139H794.04V84.4H763.8V139H758.28V79.6ZM845.208 139H840.168C839.528 137.24 839.168 133.4 839.088 127.48C835.968 135.96 829.368 140.2 819.288 140.2C813.928 140.2 809.728 138.84 806.688 136.12C803.728 133.4 802.248 129.6 802.248 124.72C802.248 120.16 803.608 116.52 806.328 113.8C809.048 111.08 813.608 108.88 820.008 107.2C828.248 105.12 833.288 103.48 835.128 102.28C837.288 101 838.368 98.88 838.368 95.92C838.368 91.92 837.128 88.84 834.648 86.68C832.248 84.44 828.848 83.32 824.448 83.32C819.888 83.32 816.288 84.48 813.648 86.8C811.008 89.12 809.688 92.2 809.688 96.04H804.528C804.528 90.76 806.328 86.52 809.928 83.32C813.528 80.04 818.408 78.4 824.568 78.4C830.808 78.4 835.568 80 838.848 83.2C842.208 86.4 843.888 90.92 843.888 96.76V122.92C843.888 130.28 844.328 135.64 845.208 139ZM820.248 135.28C826.008 135.28 830.448 133.56 833.568 130.12C836.768 126.6 838.368 121.64 838.368 115.24V105.04C836.768 106.96 831.048 109.2 821.208 111.76C816.168 113.12 812.648 114.76 810.648 116.68C808.728 118.52 807.768 121.2 807.768 124.72C807.768 128.16 808.848 130.8 811.008 132.64C813.168 134.4 816.248 135.28 820.248 135.28ZM849.414 79.6H890.694V139H885.174V84.4H854.934V139H849.414V79.6ZM916.062 140.2C909.262 140.2 904.022 138.32 900.342 134.56C896.742 130.8 894.942 125.44 894.942 118.48V100C894.942 93.12 896.742 87.8 900.342 84.04C904.022 80.28 909.262 78.4 916.062 78.4C922.782 78.4 927.942 80.28 931.542 84.04C935.222 87.8 937.062 93.12 937.062 100V118.48C937.062 125.44 935.222 130.8 931.542 134.56C927.942 138.32 922.782 140.2 916.062 140.2ZM916.062 135.28C921.022 135.28 924.822 133.92 927.462 131.2C930.182 128.4 931.542 124.4 931.542 119.2V99.52C931.542 94.32 930.182 90.32 927.462 87.52C924.822 84.72 921.022 83.32 916.062 83.32C911.022 83.32 907.142 84.72 904.422 87.52C901.782 90.32 900.462 94.32 900.462 99.52V119.2C900.462 124.4 901.782 128.4 904.422 131.2C907.142 133.92 911.022 135.28 916.062 135.28ZM974.255 93.04V79.6H979.775V139H974.255V107.56C970.815 114.6 964.735 118.12 956.015 118.12C950.335 118.12 945.975 116.48 942.935 113.2C939.975 109.84 938.495 105 938.495 98.68V79.6H944.015V97.72C944.015 108.04 948.335 113.2 956.975 113.2C962.335 113.2 966.535 111.4 969.575 107.8C972.695 104.2 974.255 99.28 974.255 93.04ZM1029.69 139H1023.21L1003.77 106.36L991.05 120.16V139H985.53V79.6H991.05V113.68L1022.13 79.6H1028.73L1007.73 102.4L1029.69 139ZM1070.23 139H1065.19C1064.55 137.24 1064.19 133.4 1064.11 127.48C1060.99 135.96 1054.39 140.2 1044.31 140.2C1038.95 140.2 1034.75 138.84 1031.71 136.12C1028.75 133.4 1027.27 129.6 1027.27 124.72C1027.27 120.16 1028.63 116.52 1031.35 113.8C1034.07 111.08 1038.63 108.88 1045.03 107.2C1053.27 105.12 1058.31 103.48 1060.15 102.28C1062.31 101 1063.39 98.88 1063.39 95.92C1063.39 91.92 1062.15 88.84 1059.67 86.68C1057.27 84.44 1053.87 83.32 1049.47 83.32C1044.91 83.32 1041.31 84.48 1038.67 86.8C1036.03 89.12 1034.71 92.2 1034.71 96.04H1029.55C1029.55 90.76 1031.35 86.52 1034.95 83.32C1038.55 80.04 1043.43 78.4 1049.59 78.4C1055.83 78.4 1060.59 80 1063.87 83.2C1067.23 86.4 1068.91 90.92 1068.91 96.76V122.92C1068.91 130.28 1069.35 135.64 1070.23 139ZM1045.27 135.28C1051.03 135.28 1055.47 133.56 1058.59 130.12C1061.79 126.6 1063.39 121.64 1063.39 115.24V105.04C1061.79 106.96 1056.07 109.2 1046.23 111.76C1041.19 113.12 1037.67 114.76 1035.67 116.68C1033.75 118.52 1032.79 121.2 1032.79 124.72C1032.79 128.16 1033.87 130.8 1036.03 132.64C1038.19 134.4 1041.27 135.28 1045.27 135.28Z" fill="white" fill-opacity="0.5"/>
<path d="M1130.28 139H1115.04L1112.52 123.16H1095.48L1092.96 139H1078.92L1094.4 55H1114.68L1130.28 139ZM1104 70.24L1097.64 110.2H1110.36L1104 70.24ZM1140.36 139.48C1137.16 139.48 1135.12 139.2 1134.24 138.64V126.28C1135.28 126.6 1136.64 126.76 1138.32 126.76C1140.24 126.76 1141.64 126.24 1142.52 125.2C1143.48 124.08 1144.04 122.24 1144.2 119.68L1146.36 77.8H1184.88V139H1170.36V90.16H1160.16L1158.48 121.48C1157.84 133.48 1151.8 139.48 1140.36 139.48ZM1218.75 139H1196.19V77.8H1210.71V98.08H1218.75C1233.15 98.08 1240.35 104.88 1240.35 118.48C1240.35 132.16 1233.15 139 1218.75 139ZM1210.71 110.44V126.64H1218.51C1223.47 126.64 1225.95 123.92 1225.95 118.48C1225.95 113.12 1223.47 110.44 1218.51 110.44H1210.71ZM1285.42 157.6H1271.02V139H1268.74C1261.62 139 1256.22 137.24 1252.54 133.72C1248.86 130.12 1247.02 124.96 1247.02 118.24V98.56C1247.02 91.84 1248.86 86.72 1252.54 83.2C1256.3 79.6 1261.7 77.8 1268.74 77.8H1271.02V55H1285.42V77.8H1287.58C1294.7 77.8 1300.1 79.6 1303.78 83.2C1307.54 86.72 1309.42 91.84 1309.42 98.56V118.24C1309.42 124.96 1307.54 130.12 1303.78 133.72C1300.1 137.24 1294.7 139 1287.58 139H1285.42V157.6ZM1268.74 127H1271.02V89.8H1268.74C1263.86 89.8 1261.42 92.32 1261.42 97.36V119.32C1261.42 121.96 1261.98 123.92 1263.1 125.2C1264.3 126.4 1266.18 127 1268.74 127ZM1285.42 89.8V127H1287.58C1292.46 127 1294.9 124.44 1294.9 119.32V97.36C1294.9 94.72 1294.34 92.8 1293.22 91.6C1292.1 90.4 1290.22 89.8 1287.58 89.8H1285.42Z" fill="white" fill-opacity="0.5"/>
<path d="M1328.16 137H1317.6V95H1336.02V98.42H1321.44V112.76H1328.16C1331.76 112.76 1334.4 113.64 1336.08 115.4C1337.8 117.16 1338.66 119.86 1338.66 123.5V126.2C1338.66 129.88 1337.8 132.6 1336.08 134.36C1334.4 136.12 1331.76 137 1328.16 137ZM1321.44 116.18V133.58H1328.16C1330.48 133.58 1332.18 133.02 1333.26 131.9C1334.34 130.78 1334.88 128.96 1334.88 126.44V123.32C1334.88 120.8 1334.34 118.98 1333.26 117.86C1332.18 116.74 1330.48 116.18 1328.16 116.18H1321.44ZM1363.04 116.78V122.48H1347.26V127.64C1347.26 132.12 1349.26 134.36 1353.26 134.36C1357.34 134.36 1359.38 132.18 1359.38 127.82V127.46H1363.04V127.7C1362.96 130.86 1362.08 133.3 1360.4 135.02C1358.72 136.74 1356.34 137.6 1353.26 137.6C1350.1 137.6 1347.68 136.72 1346 134.96C1344.36 133.2 1343.54 130.66 1343.54 127.34V116.78C1343.54 113.46 1344.36 110.92 1346 109.16C1347.68 107.4 1350.1 106.52 1353.26 106.52C1356.42 106.52 1358.84 107.4 1360.52 109.16C1362.2 110.92 1363.04 113.46 1363.04 116.78ZM1347.26 116.36V119.42H1359.38V116.36C1359.38 111.96 1357.34 109.76 1353.26 109.76C1349.26 109.76 1347.26 111.96 1347.26 116.36ZM1372.28 95.66H1374.86C1375.02 97.98 1376.36 99.14 1378.88 99.14C1381.36 99.14 1382.72 97.98 1382.96 95.66H1385.54C1385.46 97.62 1384.82 99.16 1383.62 100.28C1382.46 101.4 1380.88 101.96 1378.88 101.96C1376.88 101.96 1375.3 101.4 1374.14 100.28C1372.98 99.16 1372.36 97.62 1372.28 95.66ZM1372.58 130.94L1384.64 107.12H1388.6V137H1385.18V113.06L1373.06 137H1369.16V107.12H1372.58V130.94Z" fill="#FFC700" fill-opacity="0.5"/>
<path d="M67.75 288.5C60.55 288.5 55.05 286.4 51.25 282.2C47.55 277.9 45.7 271.75 45.7 263.75V236.6C45.7 228.6 47.55 222.5 51.25 218.3C55.05 214.1 60.55 212 67.75 212C81.75 212 89 219.75 89.5 235.25V235.55H88V235.25C87.6 220.75 80.85 213.5 67.75 213.5C61.05 213.5 55.95 215.5 52.45 219.5C48.95 223.4 47.2 229.1 47.2 236.6V263.75C47.2 279.25 54.05 287 67.75 287C81.05 287 87.8 279.5 88 264.5V263.45H89.5V264.5C89.3 280.5 82.05 288.5 67.75 288.5ZM126.023 287H124.523V215H100.823V213.5H149.573V215H126.023V287ZM189.145 212C195.345 212 200.095 213.9 203.395 217.7C206.795 221.5 208.495 227 208.495 234.2V266.15C208.495 273.45 206.795 279 203.395 282.8C200.095 286.6 195.345 288.5 189.145 288.5C183.245 288.5 178.245 286.8 174.145 283.4C170.045 279.9 167.245 275.1 165.745 269V310.25H164.245V213.5H165.445L165.595 232.1C166.995 225.8 169.745 220.9 173.845 217.4C178.045 213.8 183.145 212 189.145 212ZM206.995 265.7V234.65C206.995 220.55 200.995 213.5 188.995 213.5C181.895 213.5 176.245 216.1 172.045 221.3C167.845 226.4 165.745 233.2 165.745 241.7V258.8C165.745 267.3 167.845 274.15 172.045 279.35C176.245 284.45 181.895 287 188.995 287C200.995 287 206.995 279.9 206.995 265.7ZM247.033 282.95L269.383 213.5H270.883L243.433 299.3C242.033 303.8 240.283 307 238.183 308.9C236.183 310.8 233.533 311.75 230.233 311.75C227.133 311.75 224.783 311.15 223.183 309.95V308.15C225.183 309.55 227.533 310.25 230.233 310.25C233.133 310.25 235.483 309.4 237.283 307.7C239.083 306 240.633 303.1 241.933 299L246.283 285.2L221.683 213.5H223.183L247.033 282.95ZM331.573 287H329.773L304.123 243.2L287.473 261.8V287H285.973V213.5H287.473V259.4L328.573 213.5H330.673L305.023 242.15L331.573 287ZM365.671 287H364.171V215H340.471V213.5H389.221V215H365.671V287ZM423.693 282.95L446.043 213.5H447.543L420.093 299.3C418.693 303.8 416.943 307 414.843 308.9C412.843 310.8 410.193 311.75 406.893 311.75C403.793 311.75 401.443 311.15 399.843 309.95V308.15C401.843 309.55 404.193 310.25 406.893 310.25C409.793 310.25 412.143 309.4 413.943 307.7C415.743 306 417.293 303.1 418.593 299L422.943 285.2L398.343 213.5H399.843L423.693 282.95ZM487.533 212C493.733 212 498.483 213.9 501.783 217.7C505.183 221.5 506.883 227 506.883 234.2V266.15C506.883 273.45 505.183 279 501.783 282.8C498.483 286.6 493.733 288.5 487.533 288.5C481.633 288.5 476.633 286.8 472.533 283.4C468.433 279.9 465.633 275.1 464.133 269V310.25H462.633V213.5H463.833L463.983 232.1C465.383 225.8 468.133 220.9 472.233 217.4C476.433 213.8 481.533 212 487.533 212ZM505.383 265.7V234.65C505.383 220.55 499.383 213.5 487.383 213.5C480.283 213.5 474.633 216.1 470.433 221.3C466.233 226.4 464.133 233.2 464.133 241.7V258.8C464.133 267.3 466.233 274.15 470.433 279.35C474.633 284.45 480.283 287 487.383 287C499.383 287 505.383 279.9 505.383 265.7ZM567.907 287H566.557C565.757 283.6 565.357 277.2 565.357 267.8C563.957 274.4 561.107 279.5 556.807 283.1C552.607 286.7 547.357 288.5 541.057 288.5C535.157 288.5 530.507 286.95 527.107 283.85C523.807 280.65 522.157 276.3 522.157 270.8C522.157 265.4 523.657 261.05 526.657 257.75C529.657 254.45 534.857 251.6 542.257 249.2C552.057 246.1 558.357 243.65 561.157 241.85C563.757 240.05 565.057 237.2 565.057 233.3V231.2C565.057 225.7 563.357 221.4 559.957 218.3C556.557 215.1 551.907 213.5 546.007 213.5C539.907 213.5 535.007 215.15 531.307 218.45C527.607 221.65 525.757 226 525.757 231.5V232.1H524.257V231.5C524.257 225.6 526.257 220.9 530.257 217.4C534.257 213.8 539.507 212 546.007 212C552.407 212 557.407 213.7 561.007 217.1C564.707 220.5 566.557 225.15 566.557 231.05V267.35C566.557 277.05 567.007 283.6 567.907 287ZM541.057 287C548.457 287 554.307 284.5 558.607 279.5C562.907 274.4 565.057 267.5 565.057 258.8V239.6C564.157 241.5 562.107 243.2 558.907 244.7C556.107 246 550.707 248 542.707 250.7C535.807 252.9 530.907 255.55 528.007 258.65C525.107 261.65 523.657 265.7 523.657 270.8C523.657 275.9 525.157 279.9 528.157 282.8C531.257 285.6 535.557 287 541.057 287Z" fill="white" fill-opacity="0.5"/>
<path d="M624.04 298H614.2L600.16 256.24L592.12 270.28V298H582.76V214H592.12V255.4L614.08 214H623.8L606.4 245.56L624.04 298ZM648.304 299.2C642.544 299.2 638.144 297.52 635.104 294.16C632.064 290.72 630.544 285.88 630.544 279.64V255.88C630.544 249.64 632.064 244.84 635.104 241.48C638.144 238.12 642.544 236.44 648.304 236.44C653.984 236.44 658.344 238.12 661.384 241.48C664.504 244.84 666.064 249.64 666.064 255.88V279.64C666.064 285.88 664.504 290.72 661.384 294.16C658.344 297.52 653.984 299.2 648.304 299.2ZM648.304 291.16C654.064 291.16 656.944 287.6 656.944 280.48V255.04C656.944 248 654.064 244.48 648.304 244.48C642.464 244.48 639.544 248 639.544 255.04V280.48C639.544 287.6 642.464 291.16 648.304 291.16ZM702.076 283.6L714.676 237.64H727.876V298H719.116V248.32L705.316 298H698.116L684.436 248.32V298H676.276V237.64H689.356L702.076 283.6ZM739.44 237.64H774.6V298H765.48V245.32H748.44V298H739.44V237.64Z" fill="#FF3D00" fill-opacity="0.5"/>
<path d="M838.89 289.24L874.25 210.36H880.03V294H876.29V214.61L840.59 294H836.85L801.15 214.61V294H797.58V210.36H803.53L838.89 289.24ZM937.794 294H905.324V210.36H909.064V246.74H937.794C956.041 246.74 965.164 254.617 965.164 270.37C965.164 286.123 956.041 294 937.794 294ZM988.624 294H984.884V210.36H988.624V294ZM909.064 250.14V290.6H937.794C945.841 290.6 951.791 288.957 955.644 285.67C959.497 282.383 961.424 277.283 961.424 270.37C961.424 263.457 959.497 258.357 955.644 255.07C951.791 251.783 945.841 250.14 937.794 250.14H909.064ZM1112.16 294H1013.9V210.36H1017.64V290.6H1061.16V210.36H1064.9V290.6H1108.42V210.36H1112.16V294ZM1196.74 294H1192.32L1161.38 245.38L1141.15 266.29V294H1137.41V210.36H1141.15V261.53L1190.79 210.36H1195.55L1163.93 242.83L1196.74 294ZM1268.67 294H1265.27C1264.25 290.373 1263.74 283.403 1263.74 273.09C1261.81 280.343 1258.24 285.953 1253.03 289.92C1247.93 293.773 1241.53 295.7 1233.82 295.7C1226.23 295.7 1220.28 293.887 1215.97 290.26C1211.78 286.52 1209.68 281.307 1209.68 274.62C1209.68 268.387 1211.49 263.457 1215.12 259.83C1218.75 256.09 1224.98 253.087 1233.82 250.82C1246.85 247.533 1254.96 244.927 1258.13 243C1261.53 240.96 1263.23 237.617 1263.23 232.97V232.46C1263.23 226.227 1261.19 221.297 1257.11 217.67C1253.03 214.043 1247.48 212.23 1240.45 212.23C1233.2 212.23 1227.36 214.1 1222.94 217.84C1218.63 221.58 1216.48 226.397 1216.48 232.29H1212.91C1212.91 225.15 1215.4 219.427 1220.39 215.12C1225.49 210.813 1232.23 208.66 1240.62 208.66C1248.89 208.66 1255.35 210.813 1260 215.12C1264.65 219.427 1266.97 225.263 1266.97 232.63V269.86C1266.97 282.44 1267.54 290.487 1268.67 294ZM1234.16 292.3C1243.34 292.3 1250.48 289.523 1255.58 283.97C1260.68 278.303 1263.23 270.37 1263.23 260.17V241.98C1261.98 244.247 1259.32 246.23 1255.24 247.93C1251.61 249.403 1244.7 251.5 1234.5 254.22C1226.79 256.26 1221.35 258.867 1218.18 262.04C1215.01 265.1 1213.42 269.293 1213.42 274.62C1213.42 280.173 1215.23 284.537 1218.86 287.71C1222.49 290.77 1227.59 292.3 1234.16 292.3ZM1345.7 294H1342.3C1341.28 290.373 1340.77 283.403 1340.77 273.09C1338.85 280.343 1335.28 285.953 1330.06 289.92C1324.96 293.773 1318.56 295.7 1310.85 295.7C1303.26 295.7 1297.31 293.887 1293 290.26C1288.81 286.52 1286.71 281.307 1286.71 274.62C1286.71 268.387 1288.53 263.457 1292.15 259.83C1295.78 256.09 1302.01 253.087 1310.85 250.82C1323.89 247.533 1331.99 244.927 1335.16 243C1338.56 240.96 1340.26 237.617 1340.26 232.97V232.46C1340.26 226.227 1338.22 221.297 1334.14 217.67C1330.06 214.043 1324.51 212.23 1317.48 212.23C1310.23 212.23 1304.39 214.1 1299.97 217.84C1295.67 221.58 1293.51 226.397 1293.51 232.29H1289.94C1289.94 225.15 1292.44 219.427 1297.42 215.12C1302.52 210.813 1309.27 208.66 1317.65 208.66C1325.93 208.66 1332.39 210.813 1337.03 215.12C1341.68 219.427 1344 225.263 1344 232.63V269.86C1344 282.44 1344.57 290.487 1345.7 294ZM1311.19 292.3C1320.37 292.3 1327.51 289.523 1332.61 283.97C1337.71 278.303 1340.26 270.37 1340.26 260.17V241.98C1339.02 244.247 1336.35 246.23 1332.27 247.93C1328.65 249.403 1321.73 251.5 1311.53 254.22C1303.83 256.26 1298.39 258.867 1295.21 262.04C1292.04 265.1 1290.45 269.293 1290.45 274.62C1290.45 280.173 1292.27 284.537 1295.89 287.71C1299.52 290.77 1304.62 292.3 1311.19 292.3ZM1406.58 279.72H1391.96V249.97H1362.38V235.52H1391.96V205.94H1406.58V235.52H1436.16V249.97H1406.58V279.72Z" fill="white" fill-opacity="0.5"/>
<path d="M31.56 464.6L44.16 418.64H57.36V479H48.6V429.32L34.8 479H27.6L13.92 429.32V479H5.76V418.64H18.84L31.56 464.6ZM85.4841 480.2C79.7241 480.2 75.3241 478.52 72.2841 475.16C69.2441 471.72 67.7241 466.88 67.7241 460.64V436.88C67.7241 430.64 69.2441 425.84 72.2841 422.48C75.3241 419.12 79.7241 417.44 85.4841 417.44C91.1641 417.44 95.5241 419.12 98.5641 422.48C101.684 425.84 103.244 430.64 103.244 436.88V460.64C103.244 466.88 101.684 471.72 98.5641 475.16C95.5241 478.52 91.1641 480.2 85.4841 480.2ZM85.4841 472.16C91.2441 472.16 94.1241 468.6 94.1241 461.48V436.04C94.1241 429 91.2441 425.48 85.4841 425.48C79.6441 425.48 76.7241 429 76.7241 436.04V461.48C76.7241 468.6 79.6441 472.16 85.4841 472.16ZM140.095 443.72V418.64H149.095V479H140.095V451.4H122.455V479H113.455V418.64H122.455V443.72H140.095ZM177.125 480.2C171.365 480.2 166.965 478.52 163.925 475.16C160.885 471.72 159.365 466.88 159.365 460.64V436.88C159.365 430.64 160.885 425.84 163.925 422.48C166.965 419.12 171.365 417.44 177.125 417.44C182.805 417.44 187.165 419.12 190.205 422.48C193.325 425.84 194.885 430.64 194.885 436.88V460.64C194.885 466.88 193.325 471.72 190.205 475.16C187.165 478.52 182.805 480.2 177.125 480.2ZM177.125 472.16C182.885 472.16 185.765 468.6 185.765 461.48V436.04C185.765 429 182.885 425.48 177.125 425.48C171.285 425.48 168.365 429 168.365 436.04V461.48C168.365 468.6 171.285 472.16 177.125 472.16ZM234.136 405.5C245.736 405.5 251.536 412.95 251.536 427.85V455.6C251.536 463.6 249.486 469.75 245.386 474.05C241.386 478.35 235.636 480.5 228.136 480.5C220.636 480.5 214.836 478.35 210.736 474.05C206.736 469.75 204.736 463.6 204.736 455.6V414.35C204.736 406.45 206.436 399.7 209.836 394.1C211.036 392 213.136 389.95 216.136 387.95C219.436 385.75 221.736 384.3 223.036 383.6C225.036 382.6 227.786 381.4 231.286 380C237.586 377.5 242.636 375 246.436 372.5V388.1C244.136 389.7 240.186 391.55 234.586 393.65C230.186 395.25 226.936 396.9 224.836 398.6C222.036 400.8 220.636 404.55 220.636 409.85V412.55C223.936 407.85 228.436 405.5 234.136 405.5ZM235.636 457.1V428.9C235.636 422.7 233.386 419.6 228.886 419.6C223.386 419.6 220.636 423.7 220.636 431.9V457.1C220.636 463.3 223.136 466.4 228.136 466.4C233.136 466.4 235.636 463.3 235.636 457.1ZM265.018 479.45C261.818 479.45 259.568 479.2 258.268 478.7V464.75C259.768 465.05 261.268 465.2 262.768 465.2C264.968 465.2 266.568 464.6 267.568 463.4C268.568 462.2 269.118 460.1 269.218 457.1L271.618 402.5H314.068V479H298.168V416.9H286.768L284.968 458.75C284.368 472.55 277.718 479.45 265.018 479.45ZM324.836 455.6V425.9C324.836 417.9 326.836 411.75 330.836 407.45C334.936 403.15 340.736 401 348.236 401C355.736 401 361.486 403.15 365.486 407.45C369.586 411.75 371.636 417.9 371.636 425.9V455.6C371.636 463.6 369.586 469.75 365.486 474.05C361.486 478.35 355.736 480.5 348.236 480.5C340.736 480.5 334.936 478.35 330.836 474.05C326.836 469.75 324.836 463.6 324.836 455.6ZM355.736 457.1V424.4C355.736 418.2 353.236 415.1 348.236 415.1C343.236 415.1 340.736 418.2 340.736 424.4V457.1C340.736 463.3 343.236 466.4 348.236 466.4C353.236 466.4 355.736 463.3 355.736 457.1ZM433.889 479H416.789L404.639 446.9L398.339 456.95V479H382.439V402.5H398.339V434.6L416.039 402.5H432.989L415.289 430.7L433.889 479Z" fill="white" fill-opacity="0.5"/>
<path d="M456.88 480.2C452.08 480.2 448.32 478.96 445.6 476.48C442.96 474 441.64 470.48 441.64 465.92C441.64 464.08 441.88 462.08 442.36 459.92L447.52 435.8C449.92 424.44 455.68 418.76 464.8 418.76C469.6 418.76 473.36 420 476.08 422.48C478.8 424.96 480.16 428.48 480.16 433.04C480.16 434.88 479.92 436.88 479.44 439.04L474.28 463.16C471.88 474.52 466.08 480.2 456.88 480.2ZM456.88 477.8C464.64 477.8 469.56 472.88 471.64 463.04L476.92 438.68C477.32 436.12 477.52 434.24 477.52 433.04C477.52 425.12 473.28 421.16 464.8 421.16C457.04 421.16 452.16 426.08 450.16 435.92L444.88 460.28C444.4 462.36 444.16 464.24 444.16 465.92C444.16 469.76 445.28 472.72 447.52 474.8C449.76 476.8 452.88 477.8 456.88 477.8ZM502.028 497.6H499.388L503.228 479H501.668C496.628 479 492.708 477.72 489.908 475.16C487.188 472.6 485.828 469.08 485.828 464.6C485.828 462.76 486.028 460.96 486.428 459.2L490.628 439.52C492.148 432.24 494.668 427.16 498.188 424.28C501.628 421.4 506.948 419.96 514.148 419.96H515.828L521.108 395H523.748L518.468 419.96H519.908C524.948 419.96 528.868 421.24 531.668 423.8C534.468 426.28 535.868 429.8 535.868 434.36C535.868 436.2 535.668 438 535.268 439.76L531.068 459.44C529.548 466.72 527.028 471.8 523.508 474.68C520.068 477.56 514.748 479 507.548 479H505.988L502.028 497.6ZM502.028 476.6H503.708L515.228 422.36H513.788C507.468 422.36 502.788 423.64 499.748 426.2C496.788 428.76 494.628 433.2 493.268 439.52L488.948 459.56C488.548 461.8 488.348 463.48 488.348 464.6C488.348 468.44 489.508 471.4 491.828 473.48C494.228 475.56 497.628 476.6 502.028 476.6ZM517.868 422.36L506.468 476.6H507.908C514.228 476.6 518.868 475.36 521.828 472.88C524.868 470.32 527.068 465.84 528.428 459.44L532.748 439.4C533.068 438.04 533.228 436.36 533.228 434.36C533.228 430.52 532.068 427.56 529.748 425.48C527.428 423.4 524.028 422.36 519.548 422.36H517.868ZM542.924 474.32L580.364 419.96H583.724L571.244 479H568.724L580.244 424.76L542.804 479H539.564L552.044 419.96H554.564L542.924 474.32ZM602.31 480.2C592.15 480.2 587.07 475.6 587.07 466.4C587.07 464.48 587.31 462.4 587.79 460.16L593.19 435.44C595.43 424.32 601.15 418.76 610.35 418.76C620.27 418.76 625.23 423.28 625.23 432.32C625.23 434.56 625.07 436.48 624.75 438.08H622.11L622.23 437.72C622.55 436.2 622.71 434.44 622.71 432.44C622.71 424.92 618.59 421.16 610.35 421.16C602.67 421.16 597.83 425.96 595.83 435.56L590.43 460.64C589.95 462.64 589.71 464.52 589.71 466.28C589.71 473.96 593.91 477.8 602.31 477.8C609.91 477.8 614.71 473 616.71 463.4L617.31 460.52H619.83L619.23 463.52C616.99 474.64 611.35 480.2 602.31 480.2ZM669.337 419.96H672.577L650.257 442.88L660.697 479H657.937L648.097 445.04L634.177 459.32L629.977 479H627.337L639.817 419.96H642.457L635.017 455.24L669.337 419.96ZM695.657 418.76C700.217 418.76 703.817 419.88 706.457 422.12C709.097 424.28 710.417 427.32 710.417 431.24C710.417 432.04 710.217 433.44 709.817 435.44L703.337 465.92C701.897 472 701.257 476.36 701.417 479H698.897C698.897 477.32 699.377 473.96 700.337 468.92C696.497 476.44 690.897 480.2 683.537 480.2C679.537 480.2 676.377 479.12 674.057 476.96C671.817 474.72 670.697 471.76 670.697 468.08C670.697 462.64 672.257 458.4 675.377 455.36C678.577 452.24 683.577 449.72 690.377 447.8C696.857 446.04 701.097 444.56 703.097 443.36C704.857 442.16 706.057 440.24 706.697 437.6V437.72L707.297 434.96C707.617 433.6 707.777 432.44 707.777 431.48C707.777 428.36 706.697 425.88 704.537 424.04C702.377 422.12 699.417 421.16 695.657 421.16C692.057 421.16 689.017 422.2 686.537 424.28C684.057 426.36 682.417 429.2 681.617 432.8L681.017 435.32H678.497L679.097 432.68C680.057 428.36 682.017 424.96 684.977 422.48C687.937 420 691.497 418.76 695.657 418.76ZM684.137 477.8C688.457 477.8 692.217 476.2 695.417 473C698.617 469.8 700.817 465.4 702.017 459.8L705.497 443.6C704.137 445.52 699.177 447.64 690.617 449.96C684.697 451.64 680.337 453.88 677.537 456.68C674.737 459.4 673.337 463.08 673.337 467.72C673.337 470.92 674.257 473.4 676.097 475.16C677.937 476.92 680.617 477.8 684.137 477.8Z" fill="white" fill-opacity="0.5"/>
<path d="M751.15 479H722.2V374H771.85V390.65H740.95V414.5H751.15C760.35 414.5 767.3 416.9 772 421.7C776.7 426.4 779.05 433.3 779.05 442.4V451.1C779.05 460.2 776.7 467.15 772 471.95C767.3 476.65 760.35 479 751.15 479ZM740.95 431.15V462.35H751.15C757.25 462.35 760.3 458.9 760.3 452V441.5C760.3 434.6 757.25 431.15 751.15 431.15H740.95ZM814.197 453.5L824.247 402.5H841.497L822.297 484.85C820.697 491.55 817.997 496.35 814.197 499.25C810.497 502.25 805.247 503.75 798.447 503.75C794.347 503.75 790.947 503.15 788.247 501.95V486.65C790.647 487.55 793.197 488 795.897 488C798.397 488 800.297 487.5 801.597 486.5C802.997 485.5 804.097 483.8 804.897 481.4L784.047 402.5H802.647L814.197 453.5ZM867.31 479H850.96V374H877.36L889.81 448.7L902.26 374H928.66V479H910.96V400.1L897.01 479H881.26L867.31 400.1V479ZM994.698 479H978.048C977.348 478.2 976.848 474.55 976.548 468.05C973.548 476.35 967.498 480.5 958.398 480.5C952.598 480.5 947.998 478.75 944.598 475.25C941.198 471.65 939.498 466.8 939.498 460.7C939.498 454.5 941.048 449.45 944.148 445.55C947.248 441.65 952.498 438.4 959.898 435.8C966.398 433.5 970.398 431.8 971.898 430.7C973.698 429.3 974.598 427.55 974.598 425.45V424.7C974.598 421.7 973.998 419.5 972.798 418.1C971.698 416.7 969.848 416 967.248 416C961.848 416 959.148 419.15 959.148 425.45V426.95H942.198V425.9C942.198 418 944.348 411.9 948.648 407.6C953.048 403.2 959.298 401 967.398 401C976.298 401 982.698 403.2 986.598 407.6C990.598 412 992.598 418.9 992.598 428.3V456.2C992.598 466.1 993.298 473.7 994.698 479ZM964.848 465.35C971.348 465.35 974.598 460.95 974.598 452.15V442.7C972.798 444.2 969.798 445.8 965.598 447.5C960.198 449.9 957.498 453.3 957.498 457.7C957.498 462.8 959.948 465.35 964.848 465.35ZM1025.28 479H1006.53V374H1054.38V390.65H1025.28V479ZM1105.88 479H1089.23C1088.53 478.2 1088.03 474.55 1087.73 468.05C1084.73 476.35 1078.68 480.5 1069.58 480.5C1063.78 480.5 1059.18 478.75 1055.78 475.25C1052.38 471.65 1050.68 466.8 1050.68 460.7C1050.68 454.5 1052.23 449.45 1055.33 445.55C1058.43 441.65 1063.68 438.4 1071.08 435.8C1077.58 433.5 1081.58 431.8 1083.08 430.7C1084.88 429.3 1085.78 427.55 1085.78 425.45V424.7C1085.78 421.7 1085.18 419.5 1083.98 418.1C1082.88 416.7 1081.03 416 1078.43 416C1073.03 416 1070.33 419.15 1070.33 425.45V426.95H1053.38V425.9C1053.38 418 1055.53 411.9 1059.83 407.6C1064.23 403.2 1070.48 401 1078.58 401C1087.48 401 1093.88 403.2 1097.78 407.6C1101.78 412 1103.78 418.9 1103.78 428.3V456.2C1103.78 466.1 1104.48 473.7 1105.88 479ZM1076.03 465.35C1082.53 465.35 1085.78 460.95 1085.78 452.15V442.7C1083.98 444.2 1080.98 445.8 1076.78 447.5C1071.38 449.9 1068.68 453.3 1068.68 457.7C1068.68 462.8 1071.13 465.35 1076.03 465.35Z" fill="#FFC700" fill-opacity="0.5"/>
<path d="M1157.65 479H1154.5C1153.8 476.1 1153.45 471.1 1153.45 464C1152.05 469.2 1149.55 473.25 1145.95 476.15C1142.35 479.05 1138 480.5 1132.9 480.5C1127.7 480.5 1123.6 478.95 1120.6 475.85C1117.7 472.75 1116.25 468.45 1116.25 462.95C1116.25 457.45 1117.7 453 1120.6 449.6C1123.5 446.2 1128.5 443 1135.6 440C1143.3 436.9 1148.15 434.5 1150.15 432.8C1152.15 431.1 1153.15 428.55 1153.15 425.15V422.3C1153.15 417.4 1151.75 413.6 1148.95 410.9C1146.25 408.1 1142.45 406.7 1137.55 406.7C1132.45 406.7 1128.4 408.15 1125.4 411.05C1122.4 413.95 1120.9 417.95 1120.9 423.05V424.4H1117.75V423.2C1117.75 417.1 1119.55 412.35 1123.15 408.95C1126.75 405.45 1131.55 403.7 1137.55 403.7C1143.55 403.7 1148.15 405.35 1151.35 408.65C1154.65 411.95 1156.3 416.6 1156.3 422.6V461.15C1156.3 469.45 1156.75 475.4 1157.65 479ZM1133.5 477.5C1139.4 477.5 1144.15 475.25 1147.75 470.75C1151.35 466.25 1153.15 460.25 1153.15 452.75V432.65C1152.45 434.25 1150.95 435.75 1148.65 437.15C1146.35 438.45 1142.35 440.3 1136.65 442.7C1130.35 445.3 1125.9 448.15 1123.3 451.25C1120.7 454.25 1119.4 458.1 1119.4 462.8C1119.4 467.4 1120.6 471 1123 473.6C1125.5 476.2 1129 477.5 1133.5 477.5ZM1195.66 405.65C1201.26 405.65 1205.56 407.45 1208.56 411.05C1211.66 414.65 1213.21 419.85 1213.21 426.65V457.1C1213.21 464.6 1211.51 470.4 1208.11 474.5C1204.71 478.5 1199.76 480.5 1193.26 480.5C1186.66 480.5 1181.61 478.5 1178.11 474.5C1174.71 470.4 1173.01 464.6 1173.01 457.1V413.9C1173.01 406.7 1174.36 400.3 1177.06 394.7C1178.06 392.9 1179.76 390.95 1182.16 388.85C1184.26 387.05 1186.11 385.7 1187.71 384.8L1194.46 381.2C1200.76 378 1205.46 375.1 1208.56 372.5V376.25C1205.66 378.75 1201.26 381.45 1195.36 384.35C1192.56 385.75 1190.06 387.15 1187.86 388.55C1185.96 389.75 1184.01 391.35 1182.01 393.35C1178.11 397.35 1176.16 403.95 1176.16 413.15V420.65C1177.76 415.95 1180.26 412.3 1183.66 409.7C1187.06 407 1191.06 405.65 1195.66 405.65ZM1209.91 457.25V427.25C1209.91 414.85 1205.01 408.65 1195.21 408.65C1189.51 408.65 1184.91 410.9 1181.41 415.4C1177.91 419.9 1176.16 425.9 1176.16 433.4V457.25C1176.16 470.75 1181.86 477.5 1193.26 477.5C1198.66 477.5 1202.76 475.8 1205.56 472.4C1208.46 468.9 1209.91 463.85 1209.91 457.25ZM1252.07 403.7C1257.67 403.7 1261.97 405.5 1264.97 409.1C1267.97 412.6 1269.47 417.8 1269.47 424.7V459.5C1269.47 466.4 1267.97 471.65 1264.97 475.25C1261.97 478.75 1257.67 480.5 1252.07 480.5C1247.47 480.5 1243.47 479.2 1240.07 476.6C1236.67 473.9 1234.17 470.2 1232.57 465.5V502.25H1229.27V405.2H1231.97L1232.12 420.35C1233.52 415.05 1235.97 410.95 1239.47 408.05C1242.97 405.15 1247.17 403.7 1252.07 403.7ZM1266.17 458.9V425.3C1266.17 412.9 1261.27 406.7 1251.47 406.7C1245.87 406.7 1241.32 408.95 1237.82 413.45C1234.32 417.95 1232.57 423.95 1232.57 431.45V452.75C1232.57 460.25 1234.32 466.25 1237.82 470.75C1241.32 475.25 1245.87 477.5 1251.47 477.5C1261.27 477.5 1266.17 471.3 1266.17 458.9ZM1304.41 403.7C1311.01 403.7 1316.01 405.75 1319.41 409.85C1322.91 413.85 1324.66 419.6 1324.66 427.1V440.9H1287.76V457.25C1287.76 470.75 1293.31 477.5 1304.41 477.5C1315.81 477.5 1321.51 470.75 1321.51 457.25V455.9H1324.66V457.1C1324.66 464.6 1322.91 470.4 1319.41 474.5C1316.01 478.5 1311.01 480.5 1304.41 480.5C1297.91 480.5 1292.96 478.5 1289.56 474.5C1286.16 470.4 1284.46 464.6 1284.46 457.1V427.1C1284.46 419.6 1286.16 413.85 1289.56 409.85C1292.96 405.75 1297.91 403.7 1304.41 403.7ZM1287.76 426.95V437.9H1321.51V426.95C1321.51 413.45 1315.81 406.7 1304.41 406.7C1293.31 406.7 1287.76 413.45 1287.76 426.95Z" fill="#FF3D00" fill-opacity="0.5"/>
<path d="M230.8 613.52V672.93H236.52V690.22H230.67V678H192.71V690.22H186.86V672.93H193.36C195.7 671.023 197.087 667.253 197.52 661.62L200.25 613.52H230.8ZM199.6 672.93H224.95V618.59H205.71L203.5 661.36C203.24 666.993 201.94 670.85 199.6 672.93ZM238.572 658.63V632.89C238.572 626.217 240.132 621.103 243.252 617.55C246.372 613.997 250.878 612.22 256.772 612.22C262.665 612.22 267.172 613.997 270.292 617.55C273.412 621.103 274.972 626.217 274.972 632.89V658.63C274.972 665.303 273.412 670.417 270.292 673.97C267.172 677.523 262.665 679.3 256.772 679.3C250.878 679.3 246.372 677.523 243.252 673.97C240.132 670.417 238.572 665.303 238.572 658.63ZM269.122 659.15V632.37C269.122 622.403 265.005 617.42 256.772 617.42C248.538 617.42 244.422 622.403 244.422 632.37V659.15C244.422 669.117 248.538 674.1 256.772 674.1C265.005 674.1 269.122 669.117 269.122 659.15ZM281.233 613.52H317.113V678H311.263V618.59H287.083V678H281.233V613.52ZM323.325 658.63V632.89C323.325 626.217 324.885 621.103 328.005 617.55C331.125 613.997 335.632 612.22 341.525 612.22C347.419 612.22 351.925 613.997 355.045 617.55C358.165 621.103 359.725 626.217 359.725 632.89V658.63C359.725 665.303 358.165 670.417 355.045 673.97C351.925 677.523 347.419 679.3 341.525 679.3C335.632 679.3 331.125 677.523 328.005 673.97C324.885 670.417 323.325 665.303 323.325 658.63ZM353.875 659.15V632.37C353.875 622.403 349.759 617.42 341.525 617.42C333.292 617.42 329.175 622.403 329.175 632.37V659.15C329.175 669.117 333.292 674.1 341.525 674.1C349.759 674.1 353.875 669.117 353.875 659.15ZM364.327 678.39C362.854 678.39 361.641 678.217 360.687 677.87V672.67C361.467 672.93 362.551 673.06 363.937 673.06C366.797 673.06 368.877 672.237 370.177 670.59C371.477 668.943 372.214 666.04 372.387 661.88L374.857 613.52H405.537V678H399.687V618.85H380.317L377.977 662.92C377.717 668.207 376.504 672.107 374.337 674.62C372.257 677.133 368.921 678.39 364.327 678.39ZM443.611 642.12V613.52H449.461V678H443.611V647.19H418.911V678H413.061V613.52H418.911V642.12H443.611ZM462.421 667.08L486.991 613.52H493.361V678H487.901V624.57L463.331 678H456.961V613.52H462.421V667.08ZM519.192 678H513.342V618.59H496.702V613.52H535.962V618.59H519.192V678ZM556.333 612.22C562.227 612.22 566.733 613.997 569.853 617.55C573.06 621.103 574.663 626.217 574.663 632.89V645.89H543.983V659.15C543.983 669.117 548.1 674.1 556.333 674.1C564.74 674.1 568.943 669.117 568.943 659.15V657.59H574.663V658.63C574.663 665.303 573.06 670.417 569.853 673.97C566.733 677.523 562.227 679.3 556.333 679.3C550.353 679.3 545.803 677.567 542.683 674.1C539.65 670.547 538.133 665.39 538.133 658.63V632.89C538.133 626.13 539.65 621.017 542.683 617.55C545.803 613.997 550.353 612.22 556.333 612.22ZM543.983 632.37V640.69H568.943V632.37C568.943 622.403 564.74 617.42 556.333 617.42C548.1 617.42 543.983 622.403 543.983 632.37ZM578.751 678.39C577.278 678.39 576.064 678.217 575.111 677.87V672.67C575.891 672.93 576.974 673.06 578.361 673.06C581.221 673.06 583.301 672.237 584.601 670.59C585.901 668.943 586.638 666.04 586.811 661.88L589.281 613.52H619.961V678H614.111V618.85H594.741L592.401 662.92C592.141 668.207 590.928 672.107 588.761 674.62C586.681 677.133 583.344 678.39 578.751 678.39ZM627.485 678V613.52H633.335V639.52H645.685C658.945 639.52 665.575 645.89 665.575 658.63C665.575 671.543 658.945 678 645.685 678H627.485ZM645.685 644.98H633.335V672.67H645.685C650.452 672.67 653.962 671.587 656.215 669.42C658.555 667.167 659.725 663.57 659.725 658.63C659.725 654.123 658.598 650.743 656.345 648.49C654.178 646.15 650.625 644.98 645.685 644.98ZM700.412 642.12V613.52H706.262V678H700.412V647.19H675.712V678H669.862V613.52H675.712V642.12H700.412Z" fill="#FFC700" fill-opacity="0.5"/>
<path d="M752.8 678H728.2V573H751.6C759.9 573 765.9 574.95 769.6 578.85C773.4 582.65 775.3 588.65 775.3 596.85V601.2C775.3 612.4 771.4 619.4 763.6 622.2V622.5C772.5 625.1 776.95 632.45 776.95 644.55V653.55C776.95 669.85 768.9 678 752.8 678ZM739.9 583.65V617.85H749.8C754.6 617.85 758.1 616.75 760.3 614.55C762.5 612.25 763.6 608.55 763.6 603.45V598.05C763.6 592.95 762.65 589.3 760.75 587.1C758.85 584.8 755.7 583.65 751.3 583.65H739.9ZM739.9 628.5V667.35H752.8C757.1 667.35 760.25 666.25 762.25 664.05C764.25 661.85 765.25 658.25 765.25 653.25V644.25C765.25 638.55 764.1 634.5 761.8 632.1C759.6 629.7 755.8 628.5 750.4 628.5H739.9ZM786.752 671.1L845.402 573H849.452L827.102 678H823.952L844.652 580.35L786.302 678H782.252L804.602 573H807.752L786.752 671.1ZM863.707 678H860.407L882.007 576.15H861.157L861.757 573H907.057L906.307 576.15H885.457L863.707 678ZM933.798 678H930.498L930.198 652.5H896.298L885.198 678H881.898L927.798 572.55H932.298L933.798 678ZM928.998 577.2L897.648 649.35H930.048L928.998 577.2ZM945.25 678.15C943.85 678.15 942.75 678.05 941.95 677.85L942.4 674.7C943.2 674.9 944.15 675 945.25 675C949.35 675 952.7 673.45 955.3 670.35C957.9 667.15 960.15 662 962.05 654.9L982.75 573H1018.9L996.55 678H993.25L1015 576.15H985.3L965.35 655.05C963.25 663.25 960.65 669.15 957.55 672.75C954.55 676.35 950.45 678.15 945.25 678.15ZM1018.64 671.1L1077.29 573H1081.34L1058.99 678H1055.84L1076.54 580.35L1018.19 678H1014.14L1036.49 573H1039.64L1018.64 671.1ZM1141.34 573H1145.39L1111.19 613.2L1123.19 678H1119.89L1108.34 616.5L1087.64 640.8L1079.69 678H1076.39L1098.74 573H1102.04L1088.99 634.5L1141.34 573Z" fill="white" fill-opacity="0.5"/>
<path d="M1170.17 678H1149.24V587H1185.51V596.23H1159.38V624.57H1170.17C1183.86 624.57 1190.71 631.937 1190.71 646.67V655.9C1190.71 670.633 1183.86 678 1170.17 678ZM1159.38 633.8V668.77H1170.17C1173.81 668.77 1176.45 667.86 1178.1 666.04C1179.75 664.133 1180.57 660.97 1180.57 656.55V646.02C1180.57 641.6 1179.75 638.48 1178.1 636.66C1176.45 634.753 1173.81 633.8 1170.17 633.8H1159.38ZM1204.84 699.45C1201.9 699.45 1199.69 699.017 1198.21 698.15V689.7C1199.77 690.393 1201.51 690.74 1203.41 690.74C1205.75 690.74 1207.44 690.263 1208.48 689.31C1209.61 688.357 1210.48 686.58 1211.08 683.98L1212.38 679.3L1195.48 612.61H1205.49L1217.19 662.4L1227.85 612.61H1237.08L1220.57 685.41C1219.45 690.437 1217.67 694.033 1215.24 696.2C1212.82 698.367 1209.35 699.45 1204.84 699.45ZM1254.69 678H1245.72V587H1260.41L1273.8 659.67L1287.06 587H1301.88V678H1292.13V602.08L1277.7 678H1269.12L1254.69 602.08V678ZM1351.2 678H1342.23C1341.8 676.353 1341.45 673.407 1341.19 669.16C1338.5 675.92 1333.43 679.3 1325.98 679.3C1321.47 679.3 1317.92 677.87 1315.32 675.01C1312.72 672.063 1311.42 668.12 1311.42 663.18C1311.42 658.153 1312.63 654.037 1315.06 650.83C1317.57 647.537 1321.78 644.503 1327.67 641.73C1333.04 639.303 1336.47 637.483 1337.94 636.27C1339.33 635.143 1340.02 633.41 1340.02 631.07V629.51C1340.02 623.01 1337.2 619.76 1331.57 619.76C1328.71 619.76 1326.46 620.627 1324.81 622.36C1323.25 624.093 1322.47 626.563 1322.47 629.77V631.72H1313.24V630.29C1313.24 624.223 1314.84 619.543 1318.05 616.25C1321.26 612.957 1325.81 611.31 1331.7 611.31C1343.75 611.31 1349.77 617.897 1349.77 631.07V660.19C1349.77 667.817 1350.25 673.753 1351.2 678ZM1329.36 670.72C1332.65 670.72 1335.25 669.42 1337.16 666.82C1339.07 664.22 1340.02 660.58 1340.02 655.9V642.77C1339.07 644.07 1335.9 646.107 1330.53 648.88C1324.38 652 1321.3 656.29 1321.3 661.75C1321.3 667.73 1323.99 670.72 1329.36 670.72ZM1372.15 678H1362.01V587H1396.85V596.23H1372.15V678ZM1434.48 678H1425.51C1425.08 676.353 1424.73 673.407 1424.47 669.16C1421.78 675.92 1416.71 679.3 1409.26 679.3C1404.75 679.3 1401.2 677.87 1398.6 675.01C1396 672.063 1394.7 668.12 1394.7 663.18C1394.7 658.153 1395.91 654.037 1398.34 650.83C1400.85 647.537 1405.06 644.503 1410.95 641.73C1416.32 639.303 1419.75 637.483 1421.22 636.27C1422.61 635.143 1423.3 633.41 1423.3 631.07V629.51C1423.3 623.01 1420.48 619.76 1414.85 619.76C1411.99 619.76 1409.74 620.627 1408.09 622.36C1406.53 624.093 1405.75 626.563 1405.75 629.77V631.72H1396.52V630.29C1396.52 624.223 1398.12 619.543 1401.33 616.25C1404.54 612.957 1409.09 611.31 1414.98 611.31C1427.03 611.31 1433.05 617.897 1433.05 631.07V660.19C1433.05 667.817 1433.53 673.753 1434.48 678ZM1412.64 670.72C1415.93 670.72 1418.53 669.42 1420.44 666.82C1422.35 664.22 1423.3 660.58 1423.3 655.9V642.77C1422.35 644.07 1419.18 646.107 1413.81 648.88C1407.66 652 1404.58 656.29 1404.58 661.75C1404.58 667.73 1407.27 670.72 1412.64 670.72Z" fill="#000AFF" fill-opacity="0.5"/>
</svg>
