<svg width="1296" height="705" viewBox="0 0 1296 705" fill="none" xmlns="http://www.w3.org/2000/svg">
<rect x="448" y="376" width="398" height="328" rx="4" fill="white" stroke="black" stroke-width="2"/>
<path d="M452 376H842C844.209 376 846 377.791 846 380V399H448V380C448 377.791 449.791 376 452 376Z" fill="#D9D9D9" stroke="black" stroke-width="2"/>
<mask id="path-3-outside-1_459_3639" maskUnits="userSpaceOnUse" x="819.192" y="376.899" width="21.9203" height="21.9203" fill="black">
<rect fill="white" x="819.192" y="376.899" width="21.9203" height="21.9203"/>
<path d="M835.449 391.225L833.518 393.156L830.128 389.765L826.811 393.081L824.881 391.151L828.197 387.835L824.856 384.494L826.787 382.563L830.128 385.904L833.444 382.588L835.375 384.518L832.058 387.835L835.449 391.225Z"/>
</mask>
<path d="M835.449 391.225L833.518 393.156L830.128 389.765L826.811 393.081L824.881 391.151L828.197 387.835L824.856 384.494L826.787 382.563L830.128 385.904L833.444 382.588L835.375 384.518L832.058 387.835L835.449 391.225Z" fill="#FFC700"/>
<path d="M835.449 391.225L836.156 391.932L836.863 391.225L836.156 390.518L835.449 391.225ZM833.518 393.156L832.811 393.863L833.518 394.57L834.225 393.863L833.518 393.156ZM830.128 389.765L830.835 389.058L830.128 388.351L829.421 389.058L830.128 389.765ZM826.811 393.081L826.104 393.789L826.811 394.496L827.519 393.789L826.811 393.081ZM824.881 391.151L824.174 390.444L823.467 391.151L824.174 391.858L824.881 391.151ZM828.197 387.835L828.904 388.542L829.612 387.835L828.904 387.128L828.197 387.835ZM824.856 384.494L824.149 383.787L823.442 384.494L824.149 385.201L824.856 384.494ZM826.787 382.563L827.494 381.856L826.787 381.149L826.08 381.856L826.787 382.563ZM830.128 385.904L829.421 386.611L830.128 387.319L830.835 386.611L830.128 385.904ZM833.444 382.588L834.151 381.881L833.444 381.174L832.737 381.881L833.444 382.588ZM835.375 384.518L836.082 385.226L836.789 384.518L836.082 383.811L835.375 384.518ZM832.058 387.835L831.351 387.128L830.644 387.835L831.351 388.542L832.058 387.835ZM834.742 390.518L832.811 392.449L834.225 393.863L836.156 391.932L834.742 390.518ZM834.225 392.449L830.835 389.058L829.421 390.472L832.811 393.863L834.225 392.449ZM829.421 389.058L826.104 392.374L827.519 393.789L830.835 390.472L829.421 389.058ZM827.519 392.374L825.588 390.444L824.174 391.858L826.104 393.789L827.519 392.374ZM825.588 391.858L828.904 388.542L827.49 387.128L824.174 390.444L825.588 391.858ZM828.904 387.128L825.563 383.787L824.149 385.201L827.49 388.542L828.904 387.128ZM825.563 385.201L827.494 383.27L826.08 381.856L824.149 383.787L825.563 385.201ZM826.08 383.27L829.421 386.611L830.835 385.197L827.494 381.856L826.08 383.27ZM830.835 386.611L834.151 383.295L832.737 381.881L829.421 385.197L830.835 386.611ZM832.737 383.295L834.667 385.226L836.082 383.811L834.151 381.881L832.737 383.295ZM834.667 383.811L831.351 387.128L832.765 388.542L836.082 385.226L834.667 383.811ZM831.351 388.542L834.742 391.932L836.156 390.518L832.765 387.128L831.351 388.542Z" fill="black" mask="url(#path-3-outside-1_459_3639)"/>
<mask id="path-5-outside-2_459_3639" maskUnits="userSpaceOnUse" x="804" y="384" width="11" height="7" fill="black">
<rect fill="white" x="804" y="384" width="11" height="7"/>
<path d="M813.575 389.075H805.875V385.925H813.575V389.075Z"/>
</mask>
<path d="M813.575 389.075H805.875V385.925H813.575V389.075Z" fill="#FFC700"/>
<path d="M813.575 389.075V390.075H814.575V389.075H813.575ZM805.875 389.075H804.875V390.075H805.875V389.075ZM805.875 385.925V384.925H804.875V385.925H805.875ZM813.575 385.925H814.575V384.925H813.575V385.925ZM813.575 388.075H805.875V390.075H813.575V388.075ZM806.875 389.075V385.925H804.875V389.075H806.875ZM805.875 386.925H813.575V384.925H805.875V386.925ZM812.575 385.925V389.075H814.575V385.925H812.575Z" fill="black" mask="url(#path-5-outside-2_459_3639)"/>
<rect x="1" y="10" width="398" height="328" rx="4" fill="white" stroke="black" stroke-width="2"/>
<path d="M5 10H395C397.209 10 399 11.7909 399 14V33H1V14C1 11.7909 2.79086 10 5 10Z" fill="#D9D9D9" stroke="black" stroke-width="2"/>
<mask id="path-9-outside-3_459_3639" maskUnits="userSpaceOnUse" x="372.192" y="10.8993" width="21.9203" height="21.9203" fill="black">
<rect fill="white" x="372.192" y="10.8993" width="21.9203" height="21.9203"/>
<path d="M388.449 25.2253L386.518 27.1557L383.128 23.7651L379.811 27.0815L377.881 25.1511L381.197 21.8347L377.856 18.4937L379.787 16.5633L383.128 19.9043L386.444 16.588L388.375 18.5184L385.058 21.8347L388.449 25.2253Z"/>
</mask>
<path d="M388.449 25.2253L386.518 27.1557L383.128 23.7651L379.811 27.0815L377.881 25.1511L381.197 21.8347L377.856 18.4937L379.787 16.5633L383.128 19.9043L386.444 16.588L388.375 18.5184L385.058 21.8347L388.449 25.2253Z" fill="#FFC700"/>
<path d="M388.449 25.2253L389.156 25.9324L389.863 25.2253L389.156 24.5182L388.449 25.2253ZM386.518 27.1557L385.811 27.8628L386.518 28.5699L387.225 27.8628L386.518 27.1557ZM383.128 23.7651L383.835 23.058L383.128 22.3509L382.421 23.058L383.128 23.7651ZM379.811 27.0815L379.104 27.7886L379.811 28.4957L380.519 27.7886L379.811 27.0815ZM377.881 25.1511L377.174 24.444L376.467 25.1511L377.174 25.8582L377.881 25.1511ZM381.197 21.8347L381.904 22.5419L382.612 21.8347L381.904 21.1276L381.197 21.8347ZM377.856 18.4937L377.149 17.7866L376.442 18.4937L377.149 19.2008L377.856 18.4937ZM379.787 16.5633L380.494 15.8562L379.787 15.149L379.08 15.8562L379.787 16.5633ZM383.128 19.9043L382.421 20.6114L383.128 21.3186L383.835 20.6114L383.128 19.9043ZM386.444 16.588L387.151 15.8809L386.444 15.1738L385.737 15.8809L386.444 16.588ZM388.375 18.5184L389.082 19.2255L389.789 18.5184L389.082 17.8113L388.375 18.5184ZM385.058 21.8347L384.351 21.1276L383.644 21.8347L384.351 22.5419L385.058 21.8347ZM387.742 24.5182L385.811 26.4486L387.225 27.8628L389.156 25.9324L387.742 24.5182ZM387.225 26.4486L383.835 23.058L382.421 24.4723L385.811 27.8628L387.225 26.4486ZM382.421 23.058L379.104 26.3744L380.519 27.7886L383.835 24.4723L382.421 23.058ZM380.519 26.3744L378.588 24.444L377.174 25.8582L379.104 27.7886L380.519 26.3744ZM378.588 25.8582L381.904 22.5419L380.49 21.1276L377.174 24.444L378.588 25.8582ZM381.904 21.1276L378.563 17.7866L377.149 19.2008L380.49 22.5419L381.904 21.1276ZM378.563 19.2008L380.494 17.2704L379.08 15.8562L377.149 17.7866L378.563 19.2008ZM379.08 17.2704L382.421 20.6114L383.835 19.1972L380.494 15.8562L379.08 17.2704ZM383.835 20.6114L387.151 17.2951L385.737 15.8809L382.421 19.1972L383.835 20.6114ZM385.737 17.2951L387.667 19.2255L389.082 17.8113L387.151 15.8809L385.737 17.2951ZM387.667 17.8113L384.351 21.1276L385.765 22.5419L389.082 19.2255L387.667 17.8113ZM384.351 22.5419L387.742 25.9324L389.156 24.5182L385.765 21.1276L384.351 22.5419Z" fill="black" mask="url(#path-9-outside-3_459_3639)"/>
<mask id="path-11-outside-4_459_3639" maskUnits="userSpaceOnUse" x="357" y="18" width="11" height="7" fill="black">
<rect fill="white" x="357" y="18" width="11" height="7"/>
<path d="M366.575 23.075H358.875V19.925H366.575V23.075Z"/>
</mask>
<path d="M366.575 23.075H358.875V19.925H366.575V23.075Z" fill="#FFC700"/>
<path d="M366.575 23.075V24.075H367.575V23.075H366.575ZM358.875 23.075H357.875V24.075H358.875V23.075ZM358.875 19.925V18.925H357.875V19.925H358.875ZM366.575 19.925H367.575V18.925H366.575V19.925ZM366.575 22.075H358.875V24.075H366.575V22.075ZM359.875 23.075V19.925H357.875V23.075H359.875ZM358.875 20.925H366.575V18.925H358.875V20.925ZM365.575 19.925V23.075H367.575V19.925H365.575Z" fill="black" mask="url(#path-11-outside-4_459_3639)"/>
<rect x="448" y="10" width="398" height="328" rx="4" fill="white" stroke="black" stroke-width="2"/>
<path d="M452 10H842C844.209 10 846 11.7909 846 14V33H448V14C448 11.7909 449.791 10 452 10Z" fill="#D9D9D9" stroke="black" stroke-width="2"/>
<mask id="path-15-outside-5_459_3639" maskUnits="userSpaceOnUse" x="819.192" y="10.8993" width="21.9203" height="21.9203" fill="black">
<rect fill="white" x="819.192" y="10.8993" width="21.9203" height="21.9203"/>
<path d="M835.449 25.2253L833.518 27.1557L830.128 23.7651L826.811 27.0815L824.881 25.1511L828.197 21.8347L824.856 18.4937L826.787 16.5633L830.128 19.9043L833.444 16.588L835.375 18.5184L832.058 21.8347L835.449 25.2253Z"/>
</mask>
<path d="M835.449 25.2253L833.518 27.1557L830.128 23.7651L826.811 27.0815L824.881 25.1511L828.197 21.8347L824.856 18.4937L826.787 16.5633L830.128 19.9043L833.444 16.588L835.375 18.5184L832.058 21.8347L835.449 25.2253Z" fill="#FFC700"/>
<path d="M835.449 25.2253L836.156 25.9324L836.863 25.2253L836.156 24.5182L835.449 25.2253ZM833.518 27.1557L832.811 27.8628L833.518 28.5699L834.225 27.8628L833.518 27.1557ZM830.128 23.7651L830.835 23.058L830.128 22.3509L829.421 23.058L830.128 23.7651ZM826.811 27.0815L826.104 27.7886L826.811 28.4957L827.519 27.7886L826.811 27.0815ZM824.881 25.1511L824.174 24.444L823.467 25.1511L824.174 25.8582L824.881 25.1511ZM828.197 21.8347L828.904 22.5419L829.612 21.8347L828.904 21.1276L828.197 21.8347ZM824.856 18.4937L824.149 17.7866L823.442 18.4937L824.149 19.2008L824.856 18.4937ZM826.787 16.5633L827.494 15.8562L826.787 15.149L826.08 15.8562L826.787 16.5633ZM830.128 19.9043L829.421 20.6114L830.128 21.3186L830.835 20.6114L830.128 19.9043ZM833.444 16.588L834.151 15.8809L833.444 15.1738L832.737 15.8809L833.444 16.588ZM835.375 18.5184L836.082 19.2255L836.789 18.5184L836.082 17.8113L835.375 18.5184ZM832.058 21.8347L831.351 21.1276L830.644 21.8347L831.351 22.5419L832.058 21.8347ZM834.742 24.5182L832.811 26.4486L834.225 27.8628L836.156 25.9324L834.742 24.5182ZM834.225 26.4486L830.835 23.058L829.421 24.4723L832.811 27.8628L834.225 26.4486ZM829.421 23.058L826.104 26.3744L827.519 27.7886L830.835 24.4723L829.421 23.058ZM827.519 26.3744L825.588 24.444L824.174 25.8582L826.104 27.7886L827.519 26.3744ZM825.588 25.8582L828.904 22.5419L827.49 21.1276L824.174 24.444L825.588 25.8582ZM828.904 21.1276L825.563 17.7866L824.149 19.2008L827.49 22.5419L828.904 21.1276ZM825.563 19.2008L827.494 17.2704L826.08 15.8562L824.149 17.7866L825.563 19.2008ZM826.08 17.2704L829.421 20.6114L830.835 19.1972L827.494 15.8562L826.08 17.2704ZM830.835 20.6114L834.151 17.2951L832.737 15.8809L829.421 19.1972L830.835 20.6114ZM832.737 17.2951L834.667 19.2255L836.082 17.8113L834.151 15.8809L832.737 17.2951ZM834.667 17.8113L831.351 21.1276L832.765 22.5419L836.082 19.2255L834.667 17.8113ZM831.351 22.5419L834.742 25.9324L836.156 24.5182L832.765 21.1276L831.351 22.5419Z" fill="black" mask="url(#path-15-outside-5_459_3639)"/>
<mask id="path-17-outside-6_459_3639" maskUnits="userSpaceOnUse" x="804" y="18" width="11" height="7" fill="black">
<rect fill="white" x="804" y="18" width="11" height="7"/>
<path d="M813.575 23.075H805.875V19.925H813.575V23.075Z"/>
</mask>
<path d="M813.575 23.075H805.875V19.925H813.575V23.075Z" fill="#FFC700"/>
<path d="M813.575 23.075V24.075H814.575V23.075H813.575ZM805.875 23.075H804.875V24.075H805.875V23.075ZM805.875 19.925V18.925H804.875V19.925H805.875ZM813.575 19.925H814.575V18.925H813.575V19.925ZM813.575 22.075H805.875V24.075H813.575V22.075ZM806.875 23.075V19.925H804.875V23.075H806.875ZM805.875 20.925H813.575V18.925H805.875V20.925ZM812.575 19.925V23.075H814.575V19.925H812.575Z" fill="black" mask="url(#path-17-outside-6_459_3639)"/>
<rect x="895" y="10" width="398" height="328" rx="4" fill="white" stroke="black" stroke-width="2"/>
<path d="M899 10H1289C1291.21 10 1293 11.7909 1293 14V33H895V14C895 11.7909 896.791 10 899 10Z" fill="#D9D9D9" stroke="black" stroke-width="2"/>
<mask id="path-21-outside-7_459_3639" maskUnits="userSpaceOnUse" x="1266.19" y="10.8993" width="21.9203" height="21.9203" fill="black">
<rect fill="white" x="1266.19" y="10.8993" width="21.9203" height="21.9203"/>
<path d="M1282.45 25.2253L1280.52 27.1557L1277.13 23.7651L1273.81 27.0815L1271.88 25.1511L1275.2 21.8347L1271.86 18.4937L1273.79 16.5633L1277.13 19.9043L1280.44 16.588L1282.37 18.5184L1279.06 21.8347L1282.45 25.2253Z"/>
</mask>
<path d="M1282.45 25.2253L1280.52 27.1557L1277.13 23.7651L1273.81 27.0815L1271.88 25.1511L1275.2 21.8347L1271.86 18.4937L1273.79 16.5633L1277.13 19.9043L1280.44 16.588L1282.37 18.5184L1279.06 21.8347L1282.45 25.2253Z" fill="#FFC700"/>
<path d="M1282.45 25.2253L1283.16 25.9324L1283.86 25.2253L1283.16 24.5182L1282.45 25.2253ZM1280.52 27.1557L1279.81 27.8628L1280.52 28.5699L1281.23 27.8628L1280.52 27.1557ZM1277.13 23.7651L1277.83 23.058L1277.13 22.3509L1276.42 23.058L1277.13 23.7651ZM1273.81 27.0815L1273.1 27.7886L1273.81 28.4957L1274.52 27.7886L1273.81 27.0815ZM1271.88 25.1511L1271.17 24.444L1270.47 25.1511L1271.17 25.8582L1271.88 25.1511ZM1275.2 21.8347L1275.9 22.5419L1276.61 21.8347L1275.9 21.1276L1275.2 21.8347ZM1271.86 18.4937L1271.15 17.7866L1270.44 18.4937L1271.15 19.2008L1271.86 18.4937ZM1273.79 16.5633L1274.49 15.8562L1273.79 15.149L1273.08 15.8562L1273.79 16.5633ZM1277.13 19.9043L1276.42 20.6114L1277.13 21.3186L1277.83 20.6114L1277.13 19.9043ZM1280.44 16.588L1281.15 15.8809L1280.44 15.1738L1279.74 15.8809L1280.44 16.588ZM1282.37 18.5184L1283.08 19.2255L1283.79 18.5184L1283.08 17.8113L1282.37 18.5184ZM1279.06 21.8347L1278.35 21.1276L1277.64 21.8347L1278.35 22.5419L1279.06 21.8347ZM1281.74 24.5182L1279.81 26.4486L1281.23 27.8628L1283.16 25.9324L1281.74 24.5182ZM1281.23 26.4486L1277.83 23.058L1276.42 24.4723L1279.81 27.8628L1281.23 26.4486ZM1276.42 23.058L1273.1 26.3744L1274.52 27.7886L1277.83 24.4723L1276.42 23.058ZM1274.52 26.3744L1272.59 24.444L1271.17 25.8582L1273.1 27.7886L1274.52 26.3744ZM1272.59 25.8582L1275.9 22.5419L1274.49 21.1276L1271.17 24.444L1272.59 25.8582ZM1275.9 21.1276L1272.56 17.7866L1271.15 19.2008L1274.49 22.5419L1275.9 21.1276ZM1272.56 19.2008L1274.49 17.2704L1273.08 15.8562L1271.15 17.7866L1272.56 19.2008ZM1273.08 17.2704L1276.42 20.6114L1277.83 19.1972L1274.49 15.8562L1273.08 17.2704ZM1277.83 20.6114L1281.15 17.2951L1279.74 15.8809L1276.42 19.1972L1277.83 20.6114ZM1279.74 17.2951L1281.67 19.2255L1283.08 17.8113L1281.15 15.8809L1279.74 17.2951ZM1281.67 17.8113L1278.35 21.1276L1279.77 22.5419L1283.08 19.2255L1281.67 17.8113ZM1278.35 22.5419L1281.74 25.9324L1283.16 24.5182L1279.77 21.1276L1278.35 22.5419Z" fill="black" mask="url(#path-21-outside-7_459_3639)"/>
<mask id="path-23-outside-8_459_3639" maskUnits="userSpaceOnUse" x="1251" y="18" width="11" height="7" fill="black">
<rect fill="white" x="1251" y="18" width="11" height="7"/>
<path d="M1260.58 23.075H1252.88V19.925H1260.58V23.075Z"/>
</mask>
<path d="M1260.58 23.075H1252.88V19.925H1260.58V23.075Z" fill="#FFC700"/>
<path d="M1260.58 23.075V24.075H1261.58V23.075H1260.58ZM1252.88 23.075H1251.88V24.075H1252.88V23.075ZM1252.88 19.925V18.925H1251.88V19.925H1252.88ZM1260.58 19.925H1261.58V18.925H1260.58V19.925ZM1260.58 22.075H1252.88V24.075H1260.58V22.075ZM1253.88 23.075V19.925H1251.88V23.075H1253.88ZM1252.88 20.925H1260.58V18.925H1252.88V20.925ZM1259.58 19.925V23.075H1261.58V19.925H1259.58Z" fill="black" mask="url(#path-23-outside-8_459_3639)"/>
<rect x="895" y="376" width="398" height="328" rx="4" fill="white" stroke="black" stroke-width="2"/>
<path d="M899 376H1289C1291.21 376 1293 377.791 1293 380V399H895V380C895 377.791 896.791 376 899 376Z" fill="#D9D9D9" stroke="black" stroke-width="2"/>
<mask id="path-27-outside-9_459_3639" maskUnits="userSpaceOnUse" x="1266.19" y="376.899" width="21.9203" height="21.9203" fill="black">
<rect fill="white" x="1266.19" y="376.899" width="21.9203" height="21.9203"/>
<path d="M1282.45 391.225L1280.52 393.156L1277.13 389.765L1273.81 393.081L1271.88 391.151L1275.2 387.835L1271.86 384.494L1273.79 382.563L1277.13 385.904L1280.44 382.588L1282.37 384.518L1279.06 387.835L1282.45 391.225Z"/>
</mask>
<path d="M1282.45 391.225L1280.52 393.156L1277.13 389.765L1273.81 393.081L1271.88 391.151L1275.2 387.835L1271.86 384.494L1273.79 382.563L1277.13 385.904L1280.44 382.588L1282.37 384.518L1279.06 387.835L1282.45 391.225Z" fill="#FFC700"/>
<path d="M1282.45 391.225L1283.16 391.932L1283.86 391.225L1283.16 390.518L1282.45 391.225ZM1280.52 393.156L1279.81 393.863L1280.52 394.57L1281.23 393.863L1280.52 393.156ZM1277.13 389.765L1277.83 389.058L1277.13 388.351L1276.42 389.058L1277.13 389.765ZM1273.81 393.081L1273.1 393.789L1273.81 394.496L1274.52 393.789L1273.81 393.081ZM1271.88 391.151L1271.17 390.444L1270.47 391.151L1271.17 391.858L1271.88 391.151ZM1275.2 387.835L1275.9 388.542L1276.61 387.835L1275.9 387.128L1275.2 387.835ZM1271.86 384.494L1271.15 383.787L1270.44 384.494L1271.15 385.201L1271.86 384.494ZM1273.79 382.563L1274.49 381.856L1273.79 381.149L1273.08 381.856L1273.79 382.563ZM1277.13 385.904L1276.42 386.611L1277.13 387.319L1277.83 386.611L1277.13 385.904ZM1280.44 382.588L1281.15 381.881L1280.44 381.174L1279.74 381.881L1280.44 382.588ZM1282.37 384.518L1283.08 385.226L1283.79 384.518L1283.08 383.811L1282.37 384.518ZM1279.06 387.835L1278.35 387.128L1277.64 387.835L1278.35 388.542L1279.06 387.835ZM1281.74 390.518L1279.81 392.449L1281.23 393.863L1283.16 391.932L1281.74 390.518ZM1281.23 392.449L1277.83 389.058L1276.42 390.472L1279.81 393.863L1281.23 392.449ZM1276.42 389.058L1273.1 392.374L1274.52 393.789L1277.83 390.472L1276.42 389.058ZM1274.52 392.374L1272.59 390.444L1271.17 391.858L1273.1 393.789L1274.52 392.374ZM1272.59 391.858L1275.9 388.542L1274.49 387.128L1271.17 390.444L1272.59 391.858ZM1275.9 387.128L1272.56 383.787L1271.15 385.201L1274.49 388.542L1275.9 387.128ZM1272.56 385.201L1274.49 383.27L1273.08 381.856L1271.15 383.787L1272.56 385.201ZM1273.08 383.27L1276.42 386.611L1277.83 385.197L1274.49 381.856L1273.08 383.27ZM1277.83 386.611L1281.15 383.295L1279.74 381.881L1276.42 385.197L1277.83 386.611ZM1279.74 383.295L1281.67 385.226L1283.08 383.811L1281.15 381.881L1279.74 383.295ZM1281.67 383.811L1278.35 387.128L1279.77 388.542L1283.08 385.226L1281.67 383.811ZM1278.35 388.542L1281.74 391.932L1283.16 390.518L1279.77 387.128L1278.35 388.542Z" fill="black" mask="url(#path-27-outside-9_459_3639)"/>
<mask id="path-29-outside-10_459_3639" maskUnits="userSpaceOnUse" x="1251" y="384" width="11" height="7" fill="black">
<rect fill="white" x="1251" y="384" width="11" height="7"/>
<path d="M1260.58 389.075H1252.88V385.925H1260.58V389.075Z"/>
</mask>
<path d="M1260.58 389.075H1252.88V385.925H1260.58V389.075Z" fill="#FFC700"/>
<path d="M1260.58 389.075V390.075H1261.58V389.075H1260.58ZM1252.88 389.075H1251.88V390.075H1252.88V389.075ZM1252.88 385.925V384.925H1251.88V385.925H1252.88ZM1260.58 385.925H1261.58V384.925H1260.58V385.925ZM1260.58 388.075H1252.88V390.075H1260.58V388.075ZM1253.88 389.075V385.925H1251.88V389.075H1253.88ZM1252.88 386.925H1260.58V384.925H1252.88V386.925ZM1259.58 385.925V389.075H1261.58V385.925H1259.58Z" fill="black" mask="url(#path-29-outside-10_459_3639)"/>
<rect x="1" y="376" width="398" height="328" rx="4" fill="white" stroke="black" stroke-width="2"/>
<path d="M5 376H395C397.209 376 399 377.791 399 380V399H1V380C1 377.791 2.79086 376 5 376Z" fill="#D9D9D9" stroke="black" stroke-width="2"/>
<mask id="path-33-outside-11_459_3639" maskUnits="userSpaceOnUse" x="372.192" y="376.899" width="21.9203" height="21.9203" fill="black">
<rect fill="white" x="372.192" y="376.899" width="21.9203" height="21.9203"/>
<path d="M388.449 391.225L386.518 393.156L383.128 389.765L379.811 393.081L377.881 391.151L381.197 387.835L377.856 384.494L379.787 382.563L383.128 385.904L386.444 382.588L388.375 384.518L385.058 387.835L388.449 391.225Z"/>
</mask>
<path d="M388.449 391.225L386.518 393.156L383.128 389.765L379.811 393.081L377.881 391.151L381.197 387.835L377.856 384.494L379.787 382.563L383.128 385.904L386.444 382.588L388.375 384.518L385.058 387.835L388.449 391.225Z" fill="#FFC700"/>
<path d="M388.449 391.225L389.156 391.932L389.863 391.225L389.156 390.518L388.449 391.225ZM386.518 393.156L385.811 393.863L386.518 394.57L387.225 393.863L386.518 393.156ZM383.128 389.765L383.835 389.058L383.128 388.351L382.421 389.058L383.128 389.765ZM379.811 393.081L379.104 393.789L379.811 394.496L380.519 393.789L379.811 393.081ZM377.881 391.151L377.174 390.444L376.467 391.151L377.174 391.858L377.881 391.151ZM381.197 387.835L381.904 388.542L382.612 387.835L381.904 387.128L381.197 387.835ZM377.856 384.494L377.149 383.787L376.442 384.494L377.149 385.201L377.856 384.494ZM379.787 382.563L380.494 381.856L379.787 381.149L379.08 381.856L379.787 382.563ZM383.128 385.904L382.421 386.611L383.128 387.319L383.835 386.611L383.128 385.904ZM386.444 382.588L387.151 381.881L386.444 381.174L385.737 381.881L386.444 382.588ZM388.375 384.518L389.082 385.226L389.789 384.518L389.082 383.811L388.375 384.518ZM385.058 387.835L384.351 387.128L383.644 387.835L384.351 388.542L385.058 387.835ZM387.742 390.518L385.811 392.449L387.225 393.863L389.156 391.932L387.742 390.518ZM387.225 392.449L383.835 389.058L382.421 390.472L385.811 393.863L387.225 392.449ZM382.421 389.058L379.104 392.374L380.519 393.789L383.835 390.472L382.421 389.058ZM380.519 392.374L378.588 390.444L377.174 391.858L379.104 393.789L380.519 392.374ZM378.588 391.858L381.904 388.542L380.49 387.128L377.174 390.444L378.588 391.858ZM381.904 387.128L378.563 383.787L377.149 385.201L380.49 388.542L381.904 387.128ZM378.563 385.201L380.494 383.27L379.08 381.856L377.149 383.787L378.563 385.201ZM379.08 383.27L382.421 386.611L383.835 385.197L380.494 381.856L379.08 383.27ZM383.835 386.611L387.151 383.295L385.737 381.881L382.421 385.197L383.835 386.611ZM385.737 383.295L387.667 385.226L389.082 383.811L387.151 381.881L385.737 383.295ZM387.667 383.811L384.351 387.128L385.765 388.542L389.082 385.226L387.667 383.811ZM384.351 388.542L387.742 391.932L389.156 390.518L385.765 387.128L384.351 388.542Z" fill="black" mask="url(#path-33-outside-11_459_3639)"/>
<mask id="path-35-outside-12_459_3639" maskUnits="userSpaceOnUse" x="357" y="384" width="11" height="7" fill="black">
<rect fill="white" x="357" y="384" width="11" height="7"/>
<path d="M366.575 389.075H358.875V385.925H366.575V389.075Z"/>
</mask>
<path d="M366.575 389.075H358.875V385.925H366.575V389.075Z" fill="#FFC700"/>
<path d="M366.575 389.075V390.075H367.575V389.075H366.575ZM358.875 389.075H357.875V390.075H358.875V389.075ZM358.875 385.925V384.925H357.875V385.925H358.875ZM366.575 385.925H367.575V384.925H366.575V385.925ZM366.575 388.075H358.875V390.075H366.575V388.075ZM359.875 389.075V385.925H357.875V389.075H359.875ZM358.875 386.925H366.575V384.925H358.875V386.925ZM365.575 385.925V389.075H367.575V385.925H365.575Z" fill="black" mask="url(#path-35-outside-12_459_3639)"/>
</svg>
